            <svg width="300px " height="300px" viewBox="0 0 100 100" fill="none" xmlns="http://www.w3.org/2000/svg">
              <path d="M85.297 19.6481L88.6912 11.5486C88.7534 11.3999 88.7857 11.2402 88.7857 11.0779V1.2298C88.7857 0.783723 88.5419 0.373282 88.1477 0.155772C87.7534 -0.0617373 87.2721 -0.0506775 86.8878 0.184036L82.235 3.02763L77.5821 0.184036C77.1817 -0.0605084 76.6742 -0.0605084 76.2737 0.184036L71.6209 3.02763L66.9681 0.184036C66.5676 -0.0605084 66.0602 -0.0605084 65.6597 0.184036L61.0069 3.02763L56.3541 0.184036C55.9536 -0.0605084 55.4461 -0.0605084 55.0457 0.184036L50.3929 3.02763L45.74 0.184036C45.3396 -0.0605084 44.8321 -0.0605084 44.4316 0.184036L39.7788 3.02763L35.126 0.184036C34.7255 -0.0605084 34.2181 -0.0605084 33.8176 0.184036L29.1648 3.02763L24.512 0.185265C24.1115 -0.0592795 23.604 -0.0592795 23.2036 0.185265L18.5508 3.02886L13.8979 0.185265C13.5136 -0.0494486 13.0323 -0.0592795 12.638 0.157001C12.2438 0.373282 12 0.784952 12 1.2298V11.0779C12 11.2389 12.0323 11.3987 12.0945 11.5486L15.4887 19.6481V80.3504L12.0945 88.4523C12.0323 88.601 12 88.7608 12 88.923V98.7699C12 99.216 12.2438 99.6264 12.638 99.8439C13.0323 100.061 13.5136 100.05 13.8979 99.8157L18.5508 96.9721L23.2036 99.8157C23.604 100.06 24.1115 100.06 24.512 99.8157L29.1648 96.9721L33.8176 99.8157C34.2181 100.06 34.7255 100.06 35.126 99.8157L39.7788 96.9721L44.4316 99.8157C44.8321 100.06 45.3396 100.06 45.74 99.8157L50.3929 96.9721L55.0457 99.8157C55.4461 100.06 55.9536 100.06 56.3541 99.8157L61.0069 96.9721L65.6597 99.8157C66.0602 100.06 66.5676 100.06 66.9681 99.8157L71.6209 96.9721L76.2737 99.8157C76.474 99.9386 76.7016 100 76.9279 100C77.1543 100 77.3819 99.9386 77.5821 99.8157L82.235 96.9721L86.8878 99.8157C87.2721 100.05 87.7534 100.06 88.1477 99.8439C88.5419 99.6264 88.7857 99.216 88.7857 98.7699V88.923C88.7857 88.762 88.7534 88.6022 88.6912 88.4523L85.297 80.3516V19.6481ZM86.2982 89.1663V92.6157H14.4875V89.1663L14.5895 88.9218H86.195L86.297 89.1663H86.2982ZM14.4875 10.8346V7.38397H86.2982V10.8346L86.1963 11.0792H14.5895L14.4875 10.8346ZM17.9761 62.4925V35.3259H82.8096V62.4925H17.9761Z" fill="#FF5858" />
            </svg>