<svg width="100" height="100" viewBox="0 0 100 100" fill="none" xmlns="http://www.w3.org/2000/svg">
<path d="M89.9177 36.2012H64.6341C60.4827 25.0317 49.7934 17.5841 37.7488 17.5659C37.5698 12.9134 35.6468 8.56463 32.3024 5.27805C28.8402 1.87561 24.2523 0 19.3834 0C19.056 0 18.7408 0.130488 18.5115 0.362195C18.2821 0.593902 18.1533 0.908537 18.1582 1.23415C18.2183 6.06707 20.1573 10.6024 23.617 14.0024C25.6822 16.0329 28.1485 17.5183 30.8356 18.3866C25.7963 19.6122 21.1728 22.1866 17.4101 25.928C11.987 31.3195 9.00068 38.4878 9.00068 46.1122C9.00068 53.7366 11.987 60.9061 17.4089 66.2976C22.8309 71.689 30.0397 74.6585 37.7071 74.6585C37.8335 74.6585 37.9598 74.6549 38.0861 74.6537C35.9105 77.3098 33.7422 79.3134 31.3813 80.8598C27.9217 83.1256 23.9248 84.4781 19.1627 84.9915C15.9188 85.3415 13.3765 86.1366 11.6043 87.3549C9.81746 88.5841 8.89643 90.2317 9.00926 91.9951C9.15153 94.2073 10.9163 96.3195 13.8499 97.7915C16.7405 99.2402 20.5228 100 24.8287 100C25.0739 100 25.3205 99.9976 25.5694 99.9927C27.8849 99.9451 30.1868 99.6732 32.4201 99.189C34.5676 99.7268 36.9529 100 39.5296 100C39.7749 100 40.0226 99.9976 40.2716 99.9927C42.587 99.9451 44.8902 99.6732 47.1235 99.189C49.2709 99.7268 51.6575 100 54.233 100C54.4782 100 54.726 99.9976 54.9737 99.9927C63.1735 99.8293 70.8409 96.9415 77.1471 91.639C83.0498 86.6768 87.2294 79.9598 88.9157 72.7281C90.2819 66.8732 90.6793 61.4439 90.0661 57.0293C89.4749 52.7732 87.98 49.7756 85.7222 48.2963V43.9329H89.9165C90.5934 43.9329 91.1429 43.3866 91.1429 42.7134V37.4207C91.1429 36.7476 90.5934 36.2012 89.9165 36.2012H89.9177ZM30.9141 31.0927C30.9141 32.7134 29.5883 34.0317 27.9585 34.0317C26.3286 34.0317 25.0028 32.7134 25.0028 31.0927C25.0028 29.472 26.3286 28.1537 27.9585 28.1537C29.5883 28.1537 30.9141 29.472 30.9141 31.0927ZM20.6773 2.49024C24.4105 2.7878 27.8873 4.36707 30.5793 7.0122C33.2676 9.65488 34.8962 13.0878 35.2421 16.789C31.5089 16.4927 28.032 14.9134 25.3401 12.2671C22.6518 9.62439 21.0231 6.19146 20.6773 2.49024ZM88.6913 41.4939H84.497C83.82 41.4939 83.2706 42.0402 83.2706 42.7134V49C83.2706 49.4646 83.5355 49.8878 83.9549 50.0939C85.8055 51.0024 87.1129 53.5829 87.6378 57.3622C88.2019 61.4268 87.807 66.6878 86.5267 72.1768C84.9593 78.9 81.0655 85.15 75.5638 89.7756C69.6918 94.7122 62.5553 97.4024 54.9247 97.5537C52.1836 97.6085 49.6781 97.3415 47.4804 96.7622C47.4779 96.7622 47.4755 96.7622 47.473 96.761C47.4693 96.761 47.4657 96.7598 47.4632 96.7585C47.4632 96.7585 47.4632 96.7585 47.462 96.7585C45.1159 96.1402 43.1818 95.1573 42.0131 93.989C41.9799 93.9561 41.9493 93.9244 41.9149 93.889C41.2233 93.1646 40.8578 92.4098 40.8578 91.7061C40.8578 90.1244 42.9464 88.0512 48.8319 87.4171C49.9381 87.2976 51.0186 87.1329 52.0401 86.9305C57.0108 85.9463 61.2161 83.95 64.899 80.8293C68.6162 77.678 71.3891 73.7512 73.6102 70.3256C74.2957 69.2671 74.866 67.8768 75.3529 66.0744C75.814 64.3695 76.1611 62.4634 76.4959 60.6195C77.3801 55.7537 78.295 50.722 81.2004 49.861C81.7204 49.7073 82.076 49.2317 82.076 48.6927V42.7159C82.076 42.0427 81.5266 41.4963 80.8496 41.4963H69.9714C69.2944 41.4963 68.745 42.0427 68.745 42.7159V49.0951C68.745 49.5415 68.9903 49.9524 69.3852 50.1659C72.3629 51.7793 73.7622 57.8061 72.9589 65.5341C72.5457 67.0427 72.0845 68.1793 71.5486 69.0049C66.2321 77.2049 61.0334 82.6634 51.5594 84.539C50.6077 84.7281 49.5996 84.8805 48.5657 84.9927C45.4127 85.3329 42.9181 86.0951 41.1521 87.2585C39.38 88.4256 38.4037 90.0061 38.4037 91.7061C38.4037 93.0463 39.0022 94.3817 40.1318 95.5646C40.1796 95.6146 40.2274 95.6634 40.2752 95.711C40.9056 96.3415 41.6758 96.9146 42.5662 97.4232C41.7874 97.4939 41.005 97.539 40.2213 97.5549C37.4815 97.6098 34.9772 97.3427 32.7795 96.7634C32.7758 96.7634 32.7721 96.7622 32.7696 96.761C32.7672 96.761 32.7647 96.7598 32.7611 96.7585C30.4015 96.1366 28.4601 95.1463 27.2937 93.9707C26.5493 93.2207 26.1556 92.4378 26.1556 91.7061C26.1556 90.1232 28.2442 88.05 34.1297 87.4159C40.0692 86.7756 44.9932 84.889 49.1863 81.6463C53.3929 78.3939 56.4613 74.0976 58.908 70.3232C59.5924 69.2683 60.1614 67.8817 60.6483 66.0866V66.0842C61.0248 64.6951 61.3191 63.1963 61.5816 61.7841C61.5816 61.778 61.5828 61.7732 61.584 61.7671C61.584 61.7622 61.5865 61.7585 61.5865 61.7537C61.6564 61.3781 61.7251 61 61.7937 60.622C62.5897 56.2415 63.4114 51.7122 65.6827 50.2354C65.977 50.0451 66.2861 49.9098 66.6282 49.8232C67.1715 49.6854 67.5517 49.1988 67.5517 48.6415V42.7134C67.5517 42.0402 67.0023 41.4939 66.3253 41.4939H55.4471C54.7701 41.4939 54.2207 42.0402 54.2207 42.7134V49.1927C54.2207 49.622 54.4476 50.0195 54.818 50.239C57.2977 51.7146 58.6627 56.2866 58.4677 62.4695C58.4371 63.4549 58.3647 64.4902 58.2543 65.5451C57.8423 67.0463 57.3811 68.1793 56.8477 69.0024C54.5126 72.6037 51.5974 76.6939 47.6815 79.7219C43.8588 82.678 39.3395 84.4012 33.866 84.9915C30.713 85.3317 28.2185 86.0939 26.4524 87.2573C24.6803 88.4256 23.7041 90.0049 23.7041 91.7061C23.7041 93.0915 24.3418 94.4671 25.5486 95.6829C26.1838 96.3232 26.9638 96.9061 27.8665 97.422C27.0877 97.4927 26.3053 97.5378 25.5216 97.5537C21.369 97.6354 17.6162 96.9476 14.9561 95.6134C12.8504 94.5573 11.543 93.1463 11.4584 91.839C11.386 90.7171 12.2568 89.872 13 89.361C13.9848 88.6842 15.9004 87.7963 19.4288 87.4159C24.5883 86.8598 28.9396 85.3817 32.7328 82.8963C35.9313 80.8 38.7778 77.972 41.6905 73.9951C42.4877 72.9073 43.3106 71.7073 44.2059 70.3244C45.7671 67.9171 46.4416 64.2061 47.0928 60.6171C48.0016 55.6171 48.9398 50.4463 52.0549 49.7927C52.6215 49.6732 53.0274 49.1756 53.0274 48.6V42.7134C53.0274 42.0402 52.478 41.4939 51.801 41.4939H47.6067V38.6402H88.6913V41.4939ZM75.0647 55.3512C74.3681 52.1341 73.0558 49.7354 71.2003 48.4195V43.9317H79.6257V47.8598C77.1422 49.072 75.9023 51.972 75.0647 55.35V55.3512Z" fill="#FFFA87"/>
</svg>
