<svg width="100" height="100" viewBox="0 0 100 100" fill="none" xmlns="http://www.w3.org/2000/svg">
<path d="M53.0098 80.6088C52.0976 80.3277 51.1562 80.1139 50.2123 79.9758C50.105 79.9599 49.9952 79.9599 49.8879 79.9758C48.9464 80.1139 48.0037 80.3265 47.0891 80.6088C43.272 81.7843 39.8428 84.2025 37.4343 87.4187C34.9428 90.7449 33.627 94.7076 33.627 98.8782C33.627 99.4977 34.1282 99.9999 34.7465 99.9999C38.0635 99.9999 41.3318 99.1323 44.1964 97.4925C46.4818 96.1838 48.4806 94.4058 50.0501 92.2955C51.6208 94.4058 53.6184 96.185 55.9037 97.4925C58.7683 99.1323 62.0366 99.9999 65.3537 99.9999C65.972 99.9999 66.4732 99.4977 66.4732 98.8782C66.4732 94.7076 65.1561 90.7449 62.6647 87.4187C60.2561 84.2025 56.8269 81.783 53.0098 80.6088Z" fill="#FF89C1"/>
<path d="M74.7145 40.4396C72.684 37.5032 69.9133 35.217 66.6694 33.7958C66.0657 27.7191 64.4816 21.8378 61.9499 16.306C59.2316 10.3661 55.4938 4.99076 50.8414 0.329011C50.4036 -0.10967 49.695 -0.10967 49.2585 0.329011C44.606 4.99076 40.8682 10.3661 38.15 16.306C35.6182 21.839 34.0329 27.7203 33.4305 33.7971C30.1866 35.2182 27.4158 37.5032 25.3854 40.4408C23.1707 43.6423 22 47.4011 22 51.3101C22 51.607 22.1183 51.893 22.328 52.1031C22.5378 52.3133 22.8232 52.4318 23.1195 52.4318C27.0317 52.4318 30.8341 51.2258 34.0146 49.0067C34.9219 54.1059 36.5329 59.0292 38.817 63.6665C41.4695 69.0504 44.9816 73.9516 49.2572 78.237C49.4755 78.4558 49.7621 78.5657 50.0487 78.5657C50.3353 78.5657 50.6219 78.4558 50.8402 78.237C55.1158 73.9529 58.6292 69.0504 61.2804 63.6665C63.5645 59.0292 65.1755 54.1059 66.0828 49.0067C69.2645 51.2258 73.0669 52.4318 76.9779 52.4318C77.5962 52.4318 78.0974 51.9296 78.0974 51.3101C78.0974 47.4011 76.9267 43.6411 74.7133 40.4396H74.7145ZM53.0682 14.4365C54.4901 14.4365 55.6414 15.5912 55.6414 17.0148C55.6414 18.4383 54.4901 19.5943 53.0682 19.5943C51.6462 19.5943 50.4938 18.4396 50.4938 17.0148C50.4938 15.59 51.6462 14.4365 53.0682 14.4365ZM56.7121 21.7266C57.2231 21.3771 57.9194 21.5079 58.2682 22.0199C58.617 22.5319 58.4853 23.2296 57.9755 23.5791C55.634 25.1811 52.8938 26.0279 50.0499 26.0279C47.206 26.0279 44.4658 25.1811 42.1243 23.5791C41.6146 23.2296 41.4829 22.5319 41.8316 22.0199C42.1804 21.5079 42.8768 21.3771 43.3877 21.7266C45.3548 23.072 47.6585 23.7844 50.0499 23.7844C52.4414 23.7844 54.745 23.072 56.7121 21.7266Z" fill="#FF89C1"/>
</svg>
