<svg width="100" height="100" viewBox="0 0 100 100" fill="none" xmlns="http://www.w3.org/2000/svg">
<path d="M89.0883 11.3734C88.8488 11.1417 88.5244 11.0161 88.1915 11.0259L75.2477 11.377C68.7634 4.14066 59.5002 0 49.7309 0C40.6127 0 32.04 3.52492 25.5926 9.92367C19.1452 16.3224 15.5948 24.8317 15.5948 33.8812C15.5948 38.1365 16.3737 42.2625 17.9118 46.1727H11.2384C10.5541 46.1727 10 46.7226 10 47.4017V52.7958C10 53.4749 10.5541 54.0248 11.2384 54.0248H15.1328L16.4695 64.2789L19.5077 87.6012L20.9831 98.9283C21.063 99.5403 21.5888 100 22.2117 100H77.2526C77.8755 100 78.4013 99.5416 78.4812 98.9283L79.9566 87.6012L82.9948 64.2777L84.3315 54.0236H88.2259C88.9102 54.0236 89.4643 53.4737 89.4643 52.7946V47.4005C89.4643 46.7214 88.9102 46.1715 88.2259 46.1715H81.5525C83.0906 42.26 83.8695 38.134 83.8695 33.88C83.8695 30.2648 83.3007 26.7265 82.1803 23.3345L88.1915 23.4979C88.2026 23.4979 88.2136 23.4979 88.2259 23.4979C88.5478 23.4979 88.8574 23.3735 89.0896 23.1491C89.3291 22.9175 89.4643 22.6005 89.4643 22.2688V12.2537C89.4643 11.9221 89.3291 11.6038 89.0896 11.3734H89.0883ZM86.9876 16.0335H34.8767V14.9325L74.7378 13.851L86.9888 13.5181V16.0335H86.9876ZM58.7373 20.9813C58.7373 20.9813 58.7324 20.991 58.7299 20.9959C58.6403 21.1873 58.5494 21.3727 58.4572 21.5592C57.8417 22.8114 57.1439 24.2306 57.1439 26.9301C57.1439 29.6296 57.8417 31.05 58.4585 32.3022C59.0285 33.4618 59.5211 34.464 59.5211 36.5965C59.5211 38.729 59.0285 39.7313 58.4585 40.8908C57.8491 42.1296 57.1599 43.5305 57.1439 46.1727H53.0602C53.0738 44.1024 53.5615 43.1123 54.1229 41.9699C54.7384 40.7177 55.4375 39.2984 55.4375 36.5977C55.4375 33.897 54.7397 32.4778 54.1229 31.2256C53.5529 30.0661 53.0602 29.0638 53.0602 26.9313C53.0602 24.7988 53.5529 23.7966 54.1229 22.637C54.2507 22.3786 54.3822 22.1103 54.5099 21.8274C54.876 21.0142 55.2495 19.9961 55.3846 18.4927H59.4573C59.3307 19.6157 59.0371 20.3387 58.7373 20.9825V20.9813ZM46.4999 46.1727C46.5134 44.1024 47.0011 43.1123 47.5625 41.9699C48.178 40.7177 48.8771 39.2984 48.8771 36.5977C48.8771 33.897 48.1793 32.4778 47.5625 31.2256C46.9925 30.0661 46.4999 29.0638 46.4999 26.9313C46.4999 24.7988 46.9925 23.7966 47.5625 22.637C47.7186 22.3188 47.8807 21.9908 48.0343 21.6336C48.3451 20.913 48.6916 19.9339 48.823 18.4927H52.8956C52.7789 19.5169 52.5222 20.2192 52.2494 20.824C52.1388 21.0703 52.0221 21.308 51.8981 21.5592C51.2826 22.8114 50.5835 24.2306 50.5835 26.9313C50.5835 29.632 51.2813 31.0513 51.8981 32.3035C52.4681 33.463 52.9607 34.4652 52.9607 36.5977C52.9607 38.7303 52.4681 39.7325 51.8981 40.892C51.2887 42.1296 50.6007 43.533 50.5848 46.1739H46.5011L46.4999 46.1727ZM39.9407 46.1727C39.9542 44.1024 40.4419 43.1123 41.0034 41.9699C41.6189 40.7177 42.3179 39.2984 42.3179 36.5977C42.3179 33.897 41.6201 32.4778 41.0034 31.2256C40.4333 30.0661 39.9407 29.0638 39.9407 26.9313C39.9407 24.7988 40.4333 23.7978 41.0034 22.6383C41.1877 22.2627 41.3793 21.8738 41.5574 21.4397C41.5574 21.4397 41.5574 21.4385 41.5574 21.4373C41.942 20.5009 42.1705 19.5596 42.2651 18.4915H46.3352C46.2247 19.4633 45.99 20.129 45.7578 20.6655C45.6276 20.9666 45.4863 21.2544 45.3377 21.5592C44.7222 22.8114 44.0244 24.2306 44.0244 26.9313C44.0244 29.632 44.7222 31.0513 45.3389 32.3035C45.9089 33.463 46.4016 34.4652 46.4016 36.5977C46.4016 38.7303 45.9089 39.7325 45.3389 40.892C44.7295 42.1296 44.0416 43.533 44.0256 46.1739H39.9419L39.9407 46.1727ZM39.5402 19.7193L34.8754 19.5925V18.4915H39.7761C39.722 18.9743 39.6373 19.3755 39.5402 19.7193ZM77.6396 86.2149H21.8234L19.1047 65.3494H80.3584L77.6396 86.2149ZM86.9876 51.5656H12.4767V48.6295H86.9876V51.5656ZM80.4554 20.8301C80.4468 20.8301 80.4382 20.8301 80.4296 20.8301L61.6219 20.3192C61.7681 19.79 61.8824 19.1914 61.945 18.4927H86.9876V21.0081L80.4554 20.8313V20.8301Z" fill="#FFA858"/>
</svg>
