<svg width="100" height="100" viewBox="0 0 100 100" fill="none" xmlns="http://www.w3.org/2000/svg">
<path d="M83.7343 53.051H93.9635C94.6056 53.051 95.1373 52.5488 95.1749 51.9052C95.1774 51.8601 95.1786 51.8077 95.1786 51.7626C95.1786 48.3069 95.1786 44.3893 94.2111 40.8362C93.1672 37.0039 91.1886 34.2784 88.1868 32.5402C88.5376 32.077 88.8665 31.5834 89.1651 31.0641C90.2127 29.2406 90.8111 27.2806 90.8488 25.5436C90.8925 23.5434 90.1993 22.0258 88.8969 21.2713C87.9185 20.7045 86.7241 20.6546 85.4653 21.1129C83.9723 19.6355 82.0993 18.6263 80.0539 18.1997C79.6279 15.8679 78.4541 13.7348 76.6916 12.1148C74.6802 10.2682 72.0716 9.25037 69.3441 9.25037C69.1438 9.25037 68.9447 9.25524 68.7457 9.26621C66.903 5.58874 63.1801 3.2606 59.0215 3.2606C57.7081 3.2606 56.4359 3.48976 55.2281 3.94076C53.1682 1.45661 50.1069 0 46.8562 0C43.6055 0 40.5441 1.45661 38.4842 3.94198C37.2752 3.48976 36.0031 3.2606 34.6909 3.2606C30.5322 3.2606 26.8081 5.58996 24.9667 9.26621C24.7676 9.25524 24.5674 9.25037 24.3683 9.25037C21.6408 9.25037 19.031 10.2669 17.0196 12.1148C15.2571 13.7335 14.0845 15.8666 13.6572 18.1997C8.66099 19.2406 5 23.6848 5 28.9018C5 31.8796 6.17016 34.6624 8.29562 36.7382L8.31747 36.7613C8.66463 37.1221 16.8302 45.8947 18.9254 72.1282C18.9375 79.5551 21.824 86.5346 27.0546 91.7869C32.1928 96.9466 38.9904 99.8318 46.2383 99.9452C46.4398 99.9805 46.6474 100 46.8598 100C47.0723 100 47.2725 99.9817 47.4704 99.9476C52.0806 99.8745 56.6156 98.647 60.6152 96.3896C63.9254 94.5198 66.8326 91.9686 69.1304 88.9359C72.0109 96.3408 74.9909 99.9512 78.2113 99.9512C81.6999 99.9512 84.9057 95.7192 88.0095 87.0136C90.2115 80.8374 92.3127 72.4013 93.7742 63.8688C93.8348 63.5141 93.7365 63.1521 93.5059 62.8766C93.2753 62.6012 92.9354 62.4427 92.5773 62.4427H83.7331C83.5753 62.4427 83.4479 62.3147 83.4479 62.1563C83.4479 61.9978 83.5753 61.8698 83.7331 61.8698H93.0628C93.6625 61.8698 94.1723 61.431 94.2621 60.8362C94.3362 60.3547 94.4041 59.883 94.4697 59.4235C94.5195 59.0736 94.4151 58.7201 94.1844 58.4532C93.9538 58.1862 93.62 58.0339 93.268 58.0339H83.7331C83.5753 58.0339 83.4479 57.9059 83.4479 57.7474C83.4479 57.589 83.5753 57.461 83.7331 57.461H93.6479C94.2658 57.461 94.7853 56.9941 94.8545 56.3786C94.9091 55.8886 94.9577 55.4096 94.9989 54.9549C95.0293 54.6136 94.9164 54.276 94.687 54.0224C94.4563 53.7689 94.131 53.6251 93.7911 53.6251H83.7343C83.5765 53.6251 83.4491 53.4971 83.4491 53.3386C83.4491 53.1802 83.5765 53.0522 83.7343 53.0522V53.051ZM47.8843 90.7691V96.698C47.8843 97.0722 47.6015 97.3903 47.2082 97.511C47.1487 97.511 47.0905 97.5134 47.031 97.5134C47.0043 97.5134 46.9776 97.5134 46.9509 97.5122H46.8817C46.8732 97.5098 46.8647 97.5098 46.8574 97.5098C46.8501 97.5098 46.8404 97.5098 46.8331 97.5098H46.7639C46.7372 97.5122 46.7105 97.5134 46.6826 97.5134C46.6268 97.5134 46.5721 97.5122 46.5163 97.511C46.1206 97.3915 45.8378 97.0722 45.8378 96.698V90.7374C45.8317 90.7009 45.828 90.6643 45.828 90.6277C45.828 90.5863 45.7953 86.4834 43.6407 81.47C42.3831 78.5434 40.657 75.8825 38.5121 73.5592C35.838 70.6631 32.4951 68.2838 28.5755 66.4871C28.079 66.2591 27.8945 65.7338 28.164 65.3145C28.3497 65.0256 28.7018 64.8623 29.0647 64.8623C29.2298 64.8623 29.3973 64.8964 29.5527 64.9671C33.7356 66.8844 37.3031 69.4283 40.1569 72.528C42.4365 75.0037 44.2658 77.8352 45.5926 80.9422C45.6775 81.1409 45.7589 81.3384 45.8378 81.5346V78.2886C45.8317 78.2521 45.828 78.2155 45.828 78.1789C45.828 78.1375 45.7953 74.0346 43.6407 69.0212C42.3831 66.0946 40.657 63.4337 38.5121 61.1104C35.838 58.2143 32.4951 55.835 28.5755 54.0383C28.079 53.8103 27.8945 53.285 28.164 52.8657C28.3497 52.5768 28.7018 52.4135 29.0647 52.4135C29.2298 52.4135 29.3973 52.4476 29.5527 52.5183C33.7356 54.4356 37.3031 56.9795 40.1569 60.0792C42.4365 62.5549 44.2658 65.3864 45.5926 68.4934C45.6775 68.6921 45.7589 68.8896 45.8378 69.0858V65.8398C45.8317 65.8033 45.828 65.7667 45.828 65.7301C45.828 65.6887 45.7953 61.5858 43.6407 56.5724C42.3831 53.6458 40.657 50.9849 38.5121 48.6616C35.838 45.7655 32.4951 43.3862 28.5755 41.5895C28.079 41.3615 27.8945 40.8362 28.164 40.4169C28.3497 40.128 28.7018 39.9646 29.0647 39.9646C29.2298 39.9646 29.3973 39.9988 29.5527 40.0695C33.7356 41.9868 37.3031 44.5307 40.1569 47.6304C42.4365 50.106 44.2658 52.9376 45.5926 56.0446C45.6775 56.2433 45.7589 56.4408 45.8378 56.637V53.391C45.8317 53.3545 45.828 53.3179 45.828 53.2813C45.828 53.2399 45.7953 49.137 43.6407 44.1236C42.3831 41.197 40.657 38.5361 38.5121 36.2128C35.838 33.3167 32.4951 30.9373 28.5755 29.1407C28.079 28.9127 27.8945 28.3874 28.164 27.9681C28.3497 27.6792 28.7018 27.5158 29.0647 27.5158C29.2298 27.5158 29.3973 27.55 29.5527 27.6207C33.7356 29.538 37.3031 32.0819 40.1569 35.1816C42.4365 37.6572 44.2658 40.4888 45.5926 43.5958C45.6775 43.7945 45.7589 43.992 45.8378 44.1882V16.6809C45.8378 16.2031 46.2966 15.8155 46.8623 15.8155C47.4279 15.8155 47.8867 16.2031 47.8867 16.6809V44.3064C47.9632 44.1187 48.0409 43.9286 48.1222 43.7372C49.4502 40.629 51.2783 37.7986 53.5579 35.323C56.4117 32.2233 59.9792 29.6794 64.1621 27.7621C64.3175 27.6914 64.485 27.6572 64.6501 27.6572C65.013 27.6572 65.3651 27.8206 65.5508 28.1095C65.8203 28.5288 65.637 29.0541 65.1393 29.2821C61.2197 31.0787 57.8768 33.4581 55.2027 36.3542C53.0566 38.6775 51.3317 41.3396 50.0741 44.265C47.9195 49.2784 47.8867 53.3813 47.8867 53.4227V56.7565C47.9632 56.5687 48.0409 56.3786 48.1222 56.1872C49.4502 53.079 51.2783 50.2487 53.5579 47.773C55.9346 45.1914 58.809 42.9973 62.1192 41.2275C61.9262 41.9966 61.7757 42.7816 61.6592 43.5726C59.2096 45.0561 57.0477 46.8077 55.2039 48.8042C53.0578 51.1275 51.3329 53.7896 50.0753 56.715C47.9207 61.7284 47.888 65.8313 47.888 65.8727V69.2065C47.9644 69.0188 48.0421 68.8286 48.1235 68.6372C49.4514 65.529 51.2795 62.6987 53.5591 60.2231C55.7513 57.8425 58.3648 55.7911 61.3545 54.098C61.4006 54.7136 61.4625 55.3827 61.539 56.097C59.1392 57.5646 57.0174 59.2906 55.2039 61.2543C53.0578 63.5775 51.3329 66.2396 50.0753 69.165C47.9207 74.1785 47.888 78.2813 47.888 78.3228V81.6565C47.9644 81.4688 48.0421 81.2786 48.1235 81.0873C49.4514 77.979 51.2795 75.1487 53.5591 72.6731C56.1385 69.872 59.3031 67.5268 62.975 65.685C63.0867 66.2933 63.2032 66.91 63.3234 67.5317C60.1807 69.198 57.4544 71.2677 55.2039 73.7043C53.0578 76.0275 51.3329 78.6897 50.0753 81.6151C47.9207 86.6285 47.888 90.7314 47.888 90.7728L47.8843 90.7691ZM52.0612 58.2569C52.1377 58.0656 52.2178 57.8718 52.3015 57.678C53.4498 55.0073 55.0242 52.578 56.981 50.4583C58.2676 49.0651 59.7303 47.8011 61.3496 46.6724C61.2574 48.2765 61.2489 49.8659 61.2477 51.3774C57.7153 53.2301 54.6309 55.5363 52.0588 58.2569H52.0612ZM62.5331 63.1826C58.4582 65.1341 54.9393 67.6621 52.06 70.707C52.1365 70.5156 52.2166 70.3218 52.3003 70.128C53.4486 67.4573 55.023 65.028 56.9797 62.9083C58.4012 61.3688 60.035 59.9878 61.8607 58.7738C62.0464 60.1475 62.2709 61.6285 62.5319 63.1826H62.5331ZM63.2869 37.9327C63.2408 37.951 63.1959 37.9705 63.151 37.99C58.8127 39.9793 55.0837 42.6073 52.06 45.8057C52.1365 45.6143 52.2166 45.4205 52.3003 45.2267C53.4486 42.5561 55.023 40.1268 56.9797 38.0071C59.4354 35.3486 62.5186 33.157 66.1444 31.4944C66.5146 31.325 66.8447 31.0946 67.1252 30.8179C67.1701 30.8996 67.2138 30.9812 67.2611 31.0617C67.5609 31.5834 67.8875 32.077 68.237 32.539C66.0582 33.8006 64.4195 35.5839 63.2857 37.9315L63.2869 37.9327ZM87.683 23.3813C88.7779 24.0163 88.7451 26.9137 87.0627 29.8428C86.7435 30.3961 86.3866 30.9154 86.0006 31.3871C85.9739 31.42 85.9472 31.4517 85.9205 31.4834C85.9047 31.4773 85.8889 31.4725 85.8732 31.4664C85.8222 31.4481 85.77 31.4298 85.719 31.4127C85.6243 31.3798 85.5284 31.3469 85.4313 31.314C85.373 31.2945 85.3148 31.2762 85.2565 31.2579C85.163 31.2287 85.0696 31.1994 84.9761 31.1714C84.9154 31.1531 84.8535 31.136 84.7928 31.1177C84.6981 31.0909 84.6035 31.0641 84.5076 31.0385C84.4457 31.0215 84.3838 31.0056 84.3206 30.9898C84.2211 30.9642 84.1216 30.9398 84.0208 30.9154C83.9601 30.9008 83.9006 30.8862 83.84 30.8727C83.7307 30.8471 83.619 30.824 83.5086 30.8008C83.4552 30.7899 83.403 30.7777 83.3496 30.7667C83.2002 30.7362 83.0485 30.7082 82.8968 30.6802C82.881 30.6777 82.8652 30.6741 82.8494 30.6716C82.6795 30.6412 82.5083 30.6131 82.3348 30.5863C82.2874 30.579 82.2389 30.5729 82.1903 30.5656C82.0653 30.5473 81.939 30.529 81.8128 30.5132C81.7485 30.5046 81.6829 30.4973 81.6174 30.4888C81.5057 30.4754 81.3928 30.462 81.2787 30.4498C81.2071 30.4425 81.1355 30.4352 81.0639 30.4278C80.9546 30.4169 80.8441 30.4071 80.7337 30.3974C80.6596 30.3913 80.5844 30.3852 80.5091 30.3791C80.3987 30.3706 80.287 30.362 80.1741 30.3547C80.0988 30.3498 80.0236 30.345 79.9483 30.3401C79.8318 30.334 79.7153 30.3279 79.5975 30.323C79.5247 30.3194 79.4531 30.3157 79.379 30.3133C79.2504 30.3084 79.1193 30.3047 78.9882 30.3023C78.925 30.3011 78.8631 30.2986 78.8 30.2974C78.6058 30.2938 78.4104 30.2913 78.2125 30.2913C78.028 30.2913 77.8447 30.2925 77.6626 30.2962C77.6505 30.2962 77.6384 30.2962 77.625 30.2962C77.5619 30.2962 77.4988 30.2999 77.4356 30.3011C77.3058 30.3047 77.1759 30.3072 77.0472 30.312C76.9732 30.3145 76.8991 30.3181 76.8263 30.3218C76.7098 30.3267 76.5944 30.3328 76.4791 30.3389C76.4014 30.3437 76.325 30.3486 76.2485 30.3535C76.138 30.3608 76.0288 30.3681 75.9195 30.3766C75.8419 30.3827 75.7654 30.3888 75.6889 30.3949C75.5809 30.4047 75.4741 30.4144 75.3672 30.4254C75.292 30.4327 75.2179 30.44 75.1439 30.4486C75.0346 30.4608 74.9254 30.4729 74.8161 30.4863C74.7469 30.4949 74.6778 30.5022 74.6098 30.5119C74.4908 30.5278 74.3719 30.5449 74.2541 30.5619C74.1983 30.5705 74.1425 30.5778 74.0866 30.5863C73.9155 30.6131 73.7467 30.6399 73.5792 30.6704C73.5477 30.6765 73.5161 30.6826 73.4845 30.6887C73.3486 30.7131 73.2139 30.7387 73.0791 30.7655C73.0184 30.7777 72.9577 30.7911 72.897 30.8045C72.7939 30.8264 72.6919 30.8484 72.5899 30.8715C72.5232 30.8874 72.4576 30.9032 72.3909 30.9191C72.2974 30.9422 72.2027 30.9642 72.1105 30.9885C72.0425 31.0056 71.9757 31.0239 71.909 31.0422C71.8191 31.0666 71.7293 31.0909 71.6407 31.1165C71.5739 31.136 71.5072 31.1543 71.4416 31.175C71.353 31.2019 71.2656 31.2287 71.1794 31.2555C71.1163 31.275 71.052 31.2957 70.9889 31.3164C70.899 31.3457 70.8092 31.3774 70.7206 31.4079C70.6623 31.4286 70.6053 31.4481 70.5482 31.4688C70.5337 31.4737 70.5191 31.4785 70.5045 31.4834C70.0894 30.9885 69.707 30.4388 69.3635 29.8428C69.3101 29.7501 69.2591 29.6575 69.2093 29.5648C68.5247 28.2984 68.1484 27.0527 68.0343 26.0056C68.0295 25.9642 68.0258 25.9215 68.0222 25.8801C68.0222 25.8679 68.0198 25.8557 68.0185 25.8435C67.9214 24.5843 68.2285 23.6775 68.742 23.3801C68.901 23.2874 69.0952 23.2423 69.3174 23.2423C69.7714 23.2423 70.3382 23.4361 70.9464 23.8091C71.7536 24.3211 72.5875 25.1219 73.2563 26.0117C73.3255 26.1056 73.3959 26.1994 73.4639 26.2981C73.748 26.7077 74.2517 26.9003 74.736 26.7869C75.2191 26.6736 75.5857 26.275 75.6598 25.7825C76.0543 23.1582 77.2681 21.5895 78.2125 21.5895C79.1569 21.5895 80.372 23.1582 80.7665 25.7813C80.8405 26.275 81.2071 26.6724 81.6902 26.7857C82.1733 26.8991 82.6771 26.7053 82.9623 26.2969C83.1687 26.0007 83.3848 25.7192 83.6081 25.4559C84.2794 24.6672 85.0162 24.0407 85.7421 23.6494C86.5359 23.2228 87.2436 23.1229 87.683 23.3788V23.3813ZM83.2682 22.3976C83.2537 22.4086 83.2403 22.422 83.227 22.433C83.1371 22.5073 83.0473 22.5829 82.9575 22.6621C82.9296 22.6865 82.9004 22.7121 82.8725 22.7365C82.7669 22.8315 82.6613 22.9278 82.5581 23.0278C82.4999 22.8742 82.4392 22.7255 82.376 22.5792C82.3736 22.5731 82.37 22.567 82.3675 22.5597C82.3068 22.4208 82.2437 22.2843 82.177 22.1526C82.1721 22.1429 82.1673 22.1343 82.1624 22.1246C82.0981 21.9966 82.0313 21.871 81.9609 21.7504C81.9548 21.7394 81.9488 21.7296 81.9427 21.7187C81.8735 21.5992 81.8031 21.4834 81.7303 21.3725C81.7278 21.3676 81.7242 21.3627 81.7218 21.3591C82.2716 21.6455 82.79 21.9941 83.2682 22.3976ZM21.3543 72.0795C21.3543 72.0466 21.3531 72.0149 21.3506 71.982C19.2288 45.3084 10.9964 36.0373 10.0691 35.0731C10.0302 35.0329 10.0108 35.0134 10.0108 35.0134C10.0072 35.0098 10.0011 35.0037 9.99745 35C8.34053 33.3862 7.42771 31.2201 7.42771 28.9018C7.42771 24.599 10.6311 20.9727 14.8796 20.4668C15.4477 20.3998 15.8907 19.9427 15.9453 19.371C16.1432 17.2782 17.107 15.3389 18.6595 13.9127C20.2218 12.4781 22.2501 11.6882 24.3695 11.6882C24.7652 11.6882 25.1609 11.7162 25.5469 11.7699C26.0992 11.8479 26.6333 11.5383 26.8421 11.0178C28.1385 7.78645 31.2205 5.69722 34.6921 5.69722C35.9752 5.69722 37.2085 5.97757 38.3556 6.53096C38.8945 6.79181 39.5427 6.6175 39.8814 6.12262C41.463 3.81399 44.0704 2.4354 46.8574 2.4354C49.6444 2.4354 52.2518 3.81399 53.8334 6.12262C54.1721 6.6175 54.8203 6.79059 55.3592 6.52974C56.5051 5.97635 57.7372 5.696 59.0227 5.696C62.4931 5.696 65.5751 7.78401 66.8739 11.0166C67.0827 11.5358 67.6168 11.8454 68.1691 11.7674C68.5527 11.7126 68.9484 11.6858 69.3453 11.6858C71.4647 11.6858 73.4918 12.4756 75.0541 13.9103C76.5605 15.2938 77.5121 17.1599 77.7488 19.1821C77.7403 19.1821 77.733 19.1845 77.7245 19.1858C77.7015 19.1894 77.6784 19.1931 77.6553 19.1967C77.625 19.2016 77.5934 19.2077 77.5631 19.2126C77.54 19.2175 77.5158 19.2223 77.4927 19.2272C77.4624 19.2333 77.4332 19.2406 77.4041 19.2479C77.381 19.254 77.3568 19.2601 77.3337 19.2662C77.3046 19.2735 77.2754 19.2821 77.2463 19.2906C77.2232 19.2979 77.1989 19.3052 77.1759 19.3125C77.1467 19.3223 77.1188 19.332 77.0897 19.3418C77.0666 19.3503 77.0436 19.3576 77.0205 19.3662C76.9914 19.3771 76.9635 19.3881 76.9343 19.4003C76.9113 19.4088 76.8894 19.4186 76.8676 19.4271C76.8384 19.4393 76.8093 19.4527 76.7802 19.4661C76.7583 19.4759 76.7377 19.4856 76.7158 19.4954C76.6843 19.51 76.6527 19.5271 76.6199 19.5429C76.6017 19.5514 76.5835 19.5612 76.5665 19.5697C76.518 19.5953 76.4706 19.6221 76.4221 19.6502C76.4039 19.6611 76.3857 19.6721 76.3675 19.6831C76.3371 19.7014 76.3068 19.7196 76.2776 19.7379C76.2558 19.7513 76.2351 19.766 76.2133 19.7806C76.1866 19.7977 76.1611 19.8159 76.1344 19.833C76.1125 19.8489 76.0907 19.8647 76.0676 19.8805C76.0434 19.8988 76.0179 19.9159 75.9936 19.9342C75.9705 19.9512 75.9487 19.9683 75.9268 19.9866C75.9025 20.0049 75.8795 20.0244 75.8564 20.0439C75.8346 20.0622 75.8127 20.0804 75.7909 20.1C75.7678 20.1195 75.7447 20.1402 75.7217 20.1597C75.6998 20.1792 75.678 20.1987 75.6561 20.2182C75.6331 20.2389 75.6112 20.2596 75.5882 20.2816C75.5663 20.3023 75.5445 20.323 75.5238 20.3437C75.502 20.3657 75.4801 20.3876 75.4571 20.4108C75.4364 20.4327 75.4146 20.4534 75.3939 20.4754C75.3721 20.4985 75.3502 20.5229 75.3284 20.5461C75.3078 20.568 75.2883 20.59 75.2677 20.6131C75.2446 20.6387 75.2228 20.6643 75.2009 20.6899C75.1815 20.7118 75.1633 20.7338 75.1439 20.7557C75.1184 20.7862 75.0929 20.8179 75.0686 20.8496C75.0516 20.8715 75.0346 20.8922 75.0176 20.9142C74.9812 20.9605 74.9448 21.008 74.9096 21.0568C74.8926 21.08 74.8768 21.1031 74.8598 21.1263C74.838 21.1568 74.8161 21.1872 74.7943 21.2189C74.7773 21.2445 74.7603 21.2701 74.7433 21.2957C74.7227 21.3262 74.7033 21.3554 74.6826 21.3871C74.6656 21.4139 74.6486 21.4408 74.6316 21.4676C74.6122 21.498 74.5928 21.5285 74.5734 21.5602C74.5564 21.5882 74.5406 21.6163 74.5236 21.6443C74.5054 21.676 74.486 21.7077 74.4678 21.7394C74.452 21.7674 74.435 21.7967 74.4192 21.8259C74.401 21.8588 74.3828 21.8918 74.3658 21.9247C74.35 21.9539 74.3342 21.9832 74.3197 22.0124C74.3015 22.0466 74.2845 22.0807 74.2663 22.116C74.2517 22.1453 74.2371 22.1745 74.2226 22.2038C74.2044 22.2404 74.1874 22.2769 74.1704 22.3135C74.157 22.3428 74.1425 22.372 74.1291 22.4013C74.1109 22.4403 74.0939 22.4793 74.0757 22.5195C74.0636 22.5475 74.0502 22.5756 74.0381 22.6036C74.0186 22.6487 74.0004 22.6938 73.981 22.7389C73.9713 22.7621 73.9616 22.7864 73.9519 22.8096C73.924 22.8791 73.896 22.9498 73.8693 23.0217C71.7463 20.9544 69.3247 20.2304 67.5269 21.2726C66.8763 21.6504 66.3774 22.2184 66.0472 22.9412C65.7401 23.6141 65.5799 24.4235 65.5763 25.3376C65.2789 25.2596 64.9669 25.217 64.6465 25.217C64.1318 25.217 63.6147 25.3291 63.1498 25.5424C58.6731 27.5951 54.8446 30.3279 51.7711 33.6653C51.2625 34.2175 50.7757 34.7843 50.3096 35.3681V16.6772C50.3096 14.8562 48.7607 13.374 46.8574 13.374C44.9541 13.374 43.4052 14.8549 43.4052 16.6772V35.2377C42.9366 34.6502 42.4462 34.0785 41.934 33.5227C38.8605 30.1853 35.032 27.4512 30.5553 25.3986C30.0916 25.1865 29.5745 25.0731 29.0598 25.0731C27.8496 25.0731 26.7499 25.6594 26.1187 26.6407C25.6161 27.4232 25.4753 28.3801 25.7339 29.2662C26.0009 30.1816 26.6673 30.9422 27.5607 31.353C31.1865 33.0156 34.2697 35.2072 36.7253 37.8657C38.6821 39.9854 40.2577 42.4135 41.4048 45.0853C41.4885 45.2803 41.5686 45.4729 41.6451 45.6643C38.6214 42.4659 34.8924 39.8379 30.5541 37.8486C30.0904 37.6365 29.5733 37.5232 29.0586 37.5232C27.8484 37.5232 26.7487 38.1095 26.1175 39.0907C25.6149 39.8732 25.4741 40.8301 25.7327 41.7162C25.9997 42.6316 26.6661 43.3922 27.5595 43.803C31.1853 45.4656 34.2685 47.6572 36.7241 50.3157C38.6821 52.4354 40.2564 54.8635 41.4035 57.5353C41.4873 57.7304 41.5674 57.923 41.6439 58.1143C38.6202 54.9159 34.8912 52.2879 30.5529 50.2986C30.0892 50.0865 29.5721 49.9732 29.0574 49.9732C27.8472 49.9732 26.7474 50.5595 26.1162 51.5407C25.6137 52.3233 25.4729 53.2801 25.7314 54.1663C25.9985 55.0817 26.6649 55.8423 27.5583 56.253C31.1841 57.9156 34.2673 60.1073 36.7229 62.7657C38.6796 64.8854 40.2552 67.3135 41.4023 69.9854C41.4861 70.1804 41.5662 70.373 41.6427 70.5644C38.619 67.3659 34.89 64.7379 30.5517 62.7487C30.088 62.5353 29.5709 62.4232 29.055 62.4232C27.8448 62.4232 26.745 63.0095 26.1138 63.992C25.6113 64.7745 25.4717 65.7314 25.729 66.6175C25.9961 67.5329 26.6625 68.2935 27.5559 68.7043C31.1817 70.3669 34.2649 72.5585 36.7205 75.217C38.6772 77.3367 40.2528 79.7647 41.3999 82.4366C43.2996 86.8552 43.387 90.5266 43.3894 90.646C43.3894 90.7192 43.3931 90.7935 43.3991 90.8666V96.6992C43.3991 96.9088 43.421 97.1124 43.4598 97.3111C31.0057 95.7216 21.3446 85.0122 21.3446 72.0807L21.3543 72.0795ZM50.2513 97.3099C50.2902 97.1112 50.312 96.9064 50.312 96.698V90.7838C50.3157 90.6216 50.414 86.9686 52.3015 82.5768C53.4498 79.9061 55.0242 77.4768 56.981 75.3571C58.894 73.2862 61.1894 71.5005 63.8235 70.0256C64.973 75.5327 66.4466 81.3067 68.1181 86.1641C64.0007 92.3745 57.5078 96.3871 50.2513 97.3086V97.3099Z" fill="#85FF8A"/>
</svg>
