<svg width="100" height="100" viewBox="0 0 100 100" fill="none" xmlns="http://www.w3.org/2000/svg">
<path d="M84.6429 11.0695C84.6429 11.0695 84.6429 11.0659 84.6429 11.0646C84.6429 11.0549 84.6429 11.0451 84.6416 11.0366C84.6416 11 84.6379 10.9622 84.6342 10.9268C84.633 10.9134 84.6305 10.9 84.6281 10.8866C84.6232 10.8537 84.617 10.8195 84.6084 10.7878C84.6047 10.7744 84.6022 10.7622 84.5985 10.7488C84.5887 10.7134 84.5776 10.6793 84.5653 10.6463C84.5628 10.639 84.5616 10.6329 84.5591 10.6256L82.5617 5.57439L80.6628 0.77439C80.4781 0.307317 80.0224 0 79.5163 0H20.1266C19.6192 0 19.1648 0.307317 18.9801 0.77439L15.0837 10.6256C15.0813 10.6329 15.08 10.639 15.0776 10.6463C15.0653 10.6805 15.0542 10.7146 15.0443 10.7488C15.0406 10.7622 15.0369 10.7744 15.0345 10.7878C15.0271 10.8207 15.0209 10.8537 15.0148 10.8866C15.0123 10.9 15.0099 10.9134 15.0086 10.9268C15.0049 10.9634 15.0025 11 15.0012 11.0366C15.0012 11.0463 15 11.0561 15 11.0646C15 11.0659 15 11.0683 15 11.0695V88.9317C15 88.9317 15 88.9354 15 88.9366C15 88.9463 15 88.9561 15.0012 88.9659C15.0012 89.0024 15.0049 89.039 15.0086 89.0756C15.0099 89.089 15.0123 89.1024 15.0148 89.1159C15.0197 89.1488 15.0259 89.1817 15.0333 89.2146C15.0369 89.2281 15.0394 89.2402 15.0431 89.2537C15.0529 89.289 15.064 89.3232 15.0764 89.3561C15.0788 89.3634 15.08 89.3695 15.0825 89.3768L17.0799 94.4256L18.9789 99.2256C19.1636 99.6927 19.6192 100 20.1253 100H79.5151C80.0224 100 80.4768 99.6927 80.6615 99.2256L84.5579 89.3768C84.5603 89.3695 84.5628 89.3622 84.5653 89.3549C84.5776 89.3219 84.5887 89.2878 84.5985 89.2537C84.6022 89.2402 84.6059 89.2268 84.6084 89.2146C84.6158 89.1829 84.6219 89.15 84.6269 89.1171C84.6293 89.1037 84.6318 89.0902 84.633 89.0768C84.6367 89.0402 84.6392 89.0037 84.6404 88.9671C84.6404 88.9573 84.6416 88.9476 84.6416 88.9378C84.6416 88.9366 84.6416 88.9342 84.6416 88.9329V11.0695H84.6429ZM81.6073 9.85H18.0343L19.0183 7.36341H80.6246L81.6085 9.85H81.6073ZM61.0653 69.8195C55.6271 66.8695 52.7024 63.6305 49.875 60.4976C46.3518 56.5939 43.0244 52.9073 35.5568 50.2427C29.9783 48.2512 23.8949 46.9232 17.4592 46.2902V23.5829C23.603 24.2061 29.4044 25.4805 34.7206 27.378C41.602 29.8341 44.5846 33.1378 48.0377 36.9634C51.0042 40.25 54.0718 43.6488 59.8806 46.8C65.9074 50.0683 73.4058 52.3732 82.1787 53.6561V76.3476C73.8516 75.0976 66.7534 72.9037 61.0641 69.8183L61.0653 69.8195ZM18.0343 90.1512H81.6073L80.6246 92.6366H19.0183L18.0356 90.1512H18.0343ZM20.9652 2.43902H78.6752L79.6591 4.92561H19.9825L20.9664 2.43902H20.9652ZM78.6752 97.561H20.9652L19.9813 95.0744H79.6579L78.674 97.561H78.6752Z" fill="#5D9EFF"/>
</svg>
