<svg width="95" height="39" viewBox="0 0 95 39" fill="none" xmlns="http://www.w3.org/2000/svg">
<rect x="1" y="1" width="93" height="37" rx="15" fill="#FFFA87"/>
<rect x="1" y="1" width="93" height="37" rx="15" stroke="#FFFA87" stroke-width="2"/>
<path d="M45.463 20.6797H43.4708V12.7031H45.463V20.6797ZM47.3849 17.4766H44.9005V15.8594H47.3849V17.4766ZM35.9239 18.4688C37.5437 18.474 38.8015 18.4505 39.6974 18.3984C40.5984 18.3411 41.4656 18.224 42.2989 18.0469L42.5177 19.6484C41.6323 19.8203 40.713 19.9401 39.7599 20.0078C38.812 20.0755 37.5333 20.1094 35.9239 20.1094H34.7286V18.4688H35.9239ZM41.0802 15.1875H36.7208V19.5H34.7286V13.5859H41.0802V15.1875ZM45.5646 22.9453H38.1739V26.0312H36.1739V21.3594H45.5646V22.9453ZM45.8224 26.7812H36.1739V25.1797H45.8224V26.7812ZM59.787 26.9375H57.7636V12.7031H59.787V26.9375ZM55.5292 14.2031C55.5292 15.7292 55.3235 17.1146 54.912 18.3594C54.5058 19.599 53.8156 20.7396 52.8417 21.7812C51.8677 22.8177 50.563 23.724 48.9276 24.5L47.8808 22.9062C49.2505 22.2604 50.3495 21.5339 51.1776 20.7266C52.0058 19.9193 52.6073 19.013 52.9823 18.0078C53.3573 17.0026 53.5448 15.8516 53.5448 14.5547V14.2031H55.5292ZM54.4589 15.7734H48.6386V14.2031H54.4589V15.7734Z" fill="black"/>
</svg>
