<svg width="153" height="39" viewBox="0 0 153 39" fill="none" xmlns="http://www.w3.org/2000/svg">
<rect x="1.5" y="1" width="150" height="37" rx="15" stroke="#FFFA87" stroke-width="2"/>
<path d="M74.463 20.6797H72.4708V12.7031H74.463V20.6797ZM76.3849 17.4766H73.9005V15.8594H76.3849V17.4766ZM64.9239 18.4688C66.5437 18.474 67.8015 18.4505 68.6974 18.3984C69.5984 18.3411 70.4656 18.224 71.2989 18.0469L71.5177 19.6484C70.6323 19.8203 69.713 19.9401 68.7599 20.0078C67.812 20.0755 66.5333 20.1094 64.9239 20.1094H63.7286V18.4688H64.9239ZM70.0802 15.1875H65.7208V19.5H63.7286V13.5859H70.0802V15.1875ZM74.5646 22.9453H67.1739V26.0312H65.1739V21.3594H74.5646V22.9453ZM74.8224 26.7812H65.1739V25.1797H74.8224V26.7812ZM88.787 26.9375H86.7636V12.7031H88.787V26.9375ZM84.5292 14.2031C84.5292 15.7292 84.3235 17.1146 83.912 18.3594C83.5058 19.599 82.8156 20.7396 81.8417 21.7812C80.8677 22.8177 79.563 23.724 77.9276 24.5L76.8808 22.9062C78.2505 22.2604 79.3495 21.5339 80.1776 20.7266C81.0058 19.9193 81.6073 19.013 81.9823 18.0078C82.3573 17.0026 82.5448 15.8516 82.5448 14.5547V14.2031H84.5292ZM83.4589 15.7734H77.6386V14.2031H83.4589V15.7734Z" fill="#FFFA87"/>
</svg>
