<svg width="211" height="38" viewBox="0 0 211 38" fill="none" xmlns="http://www.w3.org/2000/svg">
<path d="M14.552 12.904C15.896 12.904 16.952 13.96 16.952 15.256C16.952 16.6 15.896 17.656 14.552 17.656H10.328V34.6C10.328 35.944 9.272 37 7.928 37C6.632 37 5.576 35.944 5.576 34.6V17.656H2.936C1.64 17.656 0.584 16.6 0.584 15.256C0.584 13.96 1.64 12.904 2.936 12.904H5.576C5.528 9.496 6.776 6.376 9.08 4.072C10.376 2.776 11.864 1.816 13.592 1.24C14.792 0.759997 16.184 1.432 16.616 2.68C17.048 3.88 16.424 5.272 15.176 5.704C14.168 6.04 13.256 6.616 12.44 7.432C11 8.872 10.328 10.744 10.328 12.904H14.552ZM30.7404 12.904C36.5484 12.904 42.7884 17.128 42.7884 24.952C42.7884 26.248 41.7324 27.304 40.3884 27.304H23.8284C24.8364 30.184 27.5244 32.248 30.7404 32.248C31.8444 32.248 33.8124 32.152 36.1164 30.664C37.2204 29.944 38.7084 30.616 39.2844 31.768C39.8604 32.968 39.2364 34.216 38.1324 34.936C34.9644 37.048 32.5164 37 30.7404 37C24.0684 37 18.6924 31.576 18.6924 24.952C18.6924 18.28 24.0684 12.904 30.7404 12.904ZM30.7404 17.656C27.5244 17.656 24.8364 19.72 23.8284 22.552H37.7004C36.6924 19.192 33.6204 17.656 30.7404 17.656ZM59.6135 12.904C65.4215 12.904 71.6615 17.128 71.6615 24.952C71.6615 26.248 70.6055 27.304 69.2615 27.304H52.7015C53.7095 30.184 56.3975 32.248 59.6135 32.248C60.7175 32.248 62.6855 32.152 64.9895 30.664C66.0935 29.944 67.5815 30.616 68.1575 31.768C68.7335 32.968 68.1095 34.216 67.0055 34.936C63.8375 37.048 61.3895 37 59.6135 37C52.9415 37 47.5655 31.576 47.5655 24.952C47.5655 18.28 52.9415 12.904 59.6135 12.904ZM59.6135 17.656C56.3975 17.656 53.7095 19.72 52.7015 22.552H66.5735C65.5655 19.192 62.4935 17.656 59.6135 17.656ZM88.5571 12.808C91.2931 12.808 93.8371 13.72 95.8531 15.256V3.304C95.8531 2.008 96.9091 0.951998 98.2051 0.951998C99.5491 0.951998 100.605 2.008 100.605 3.304V24.808V24.856C100.605 31.48 95.1811 36.904 88.5571 36.904C81.8851 36.904 76.5091 31.48 76.5091 24.856C76.5091 18.184 81.8851 12.808 88.5571 12.808ZM88.5571 32.152C92.5891 32.152 95.8531 28.888 95.8531 24.856V24.808C95.8531 20.824 92.5891 17.56 88.5571 17.56C84.5251 17.56 81.2611 20.824 81.2611 24.856C81.2611 28.84 84.5251 32.152 88.5571 32.152ZM117.529 12.808C124.201 12.808 129.577 18.184 129.577 24.856C129.577 31.48 124.201 36.904 117.529 36.904C110.905 36.904 105.481 31.48 105.481 24.856V24.808V3.304C105.481 2.008 106.537 0.951998 107.881 0.951998C109.177 0.951998 110.233 2.008 110.233 3.304V15.256C112.249 13.72 114.793 12.808 117.529 12.808ZM117.529 32.152C121.561 32.152 124.825 28.84 124.825 24.856C124.825 20.824 121.561 17.56 117.529 17.56C113.497 17.56 110.233 20.824 110.233 24.808V24.856C110.233 28.888 113.497 32.152 117.529 32.152ZM146.444 13C153.212 13 158.252 18.376 158.252 25.144V34.552C158.252 35.944 157.244 36.952 155.852 36.952C154.892 36.952 153.548 35.944 153.548 34.552C151.484 36.28 149.18 36.952 146.444 36.952C139.676 36.952 134.3 31.912 134.3 25.144C134.3 18.376 139.676 13 146.444 13ZM146.444 32.248C150.476 32.248 153.548 29.176 153.548 25.144C153.548 21.112 150.476 17.704 146.444 17.704C142.412 17.704 139.004 21.112 139.004 25.144C139.004 29.176 142.412 32.248 146.444 32.248ZM175.034 37.048C168.41 37.048 163.034 31.624 163.034 25C163.034 18.328 168.41 12.952 175.034 12.952C179.354 12.952 183.338 15.256 185.498 18.952C186.17 20.104 185.738 21.544 184.634 22.216C183.482 22.84 182.042 22.456 181.37 21.352C180.074 19.096 177.674 17.704 175.034 17.704C171.05 17.704 167.738 20.968 167.738 25C167.738 28.984 171.05 32.296 175.034 32.296C177.53 32.296 179.834 31.048 181.178 28.936C181.898 27.832 183.386 27.544 184.49 28.216C185.594 28.936 185.882 30.424 185.162 31.528C182.954 34.984 179.162 37.048 175.034 37.048ZM209.659 33.016C210.475 34.024 210.331 35.512 209.323 36.328C208.891 36.712 208.363 36.904 207.835 36.904C207.115 36.904 206.443 36.616 206.011 36.04L196.891 25.096L195.403 26.104V34.504C195.403 35.848 194.299 36.904 193.003 36.904C191.707 36.904 190.651 35.848 190.651 34.504V24.856V3.4C190.651 2.104 191.707 1.048 193.003 1.048C194.299 1.048 195.403 2.104 195.403 3.4V20.488L206.299 13.336C207.307 12.52 208.795 12.616 209.659 13.624C210.475 14.632 210.331 16.168 209.323 16.984L200.923 22.504L209.659 33.016Z" fill="#FFFA87"/>
</svg>
