<svg width="101" height="15" viewBox="0 0 101 15" fill="none" xmlns="http://www.w3.org/2000/svg">
<path d="M5.68056 8.28906H0.0243111V1.58594H5.68056V8.28906ZM1.90712 6.77344H3.82119V3.125H1.90712V6.77344ZM11.7431 10.7891H9.84462V0.234375H11.7431V10.7891ZM10.3759 5.86719H8.05556V4.23438H10.3759V5.86719ZM8.65712 10.3203H6.81337V0.476562H8.65712V10.3203ZM12.1024 14.1953H2.10244V12.5859H12.1024V14.1953ZM4.09462 13.4609H2.10244V9.45312H4.09462V13.4609ZM21.3442 0.804688C22.0577 0.799479 22.701 0.924479 23.2739 1.17969C23.8468 1.4349 24.2921 1.79167 24.6098 2.25C24.9327 2.70833 25.0942 3.23438 25.0942 3.82812C25.0942 4.41146 24.9327 4.93229 24.6098 5.39062C24.2921 5.84896 23.8468 6.20833 23.2739 6.46875C22.701 6.72396 22.0577 6.85156 21.3442 6.85156C20.6254 6.85156 19.9822 6.72396 19.4145 6.46875C18.852 6.20833 18.4093 5.84896 18.0864 5.39062C17.7635 4.93229 17.602 4.41146 17.602 3.82812C17.602 3.23438 17.7635 2.70833 18.0864 2.25C18.4093 1.79167 18.852 1.4349 19.4145 1.17969C19.9822 0.924479 20.6254 0.799479 21.3442 0.804688ZM21.3442 2.40625C20.9848 2.40104 20.6697 2.45573 20.3989 2.57031C20.128 2.67969 19.9145 2.84115 19.7582 3.05469C19.6072 3.26823 19.5317 3.52604 19.5317 3.82812C19.5317 4.11979 19.6072 4.36979 19.7582 4.57812C19.9145 4.78646 20.128 4.94792 20.3989 5.0625C20.6749 5.17188 20.99 5.22656 21.3442 5.22656C21.714 5.22656 22.0369 5.17188 22.3129 5.0625C22.5942 4.94792 22.8129 4.78646 22.9692 4.57812C23.1254 4.36979 23.2036 4.11979 23.2036 3.82812C23.2036 3.52604 23.1254 3.26823 22.9692 3.05469C22.8129 2.84115 22.5968 2.67969 22.3207 2.57031C22.0447 2.45573 21.7192 2.40104 21.3442 2.40625ZM22.4301 14.0234H20.4301V8.28125H22.4301V14.0234ZM28.6879 14.4297H26.7036V0.234375H28.6879V14.4297ZM16.7348 7.71094C18.4119 7.71094 20.0135 7.67708 21.5395 7.60938C23.0707 7.54167 24.5109 7.40625 25.8598 7.20312L25.9848 8.66406C24.7244 8.91406 23.4275 9.08333 22.0942 9.17188C20.7661 9.25521 19.2817 9.30729 17.6411 9.32812C17.464 9.33854 17.2452 9.34375 16.9848 9.34375L16.7348 7.71094ZM43.3635 12.8594H30.3635V11.2266H43.3635V12.8594ZM37.8166 11.9062H35.8557V8.53125H37.8166V11.9062ZM41.8635 5.85156H33.8479V8.28125H31.8635V4.28906H39.8947V2.74219H31.8401V1.14062H41.8635V5.85156ZM42.1994 9.07031H31.8635V7.45312H42.1994V9.07031ZM54.9724 6.61719H52.9959V4.71875H54.9724V6.61719ZM54.0193 0.34375C55.1131 0.34375 56.0454 0.4375 56.8162 0.625C57.587 0.8125 58.173 1.08854 58.574 1.45312C58.9802 1.8125 59.1834 2.2526 59.1834 2.77344C59.1834 3.28906 58.9802 3.72917 58.574 4.09375C58.173 4.45833 57.587 4.73438 56.8162 4.92188C56.0454 5.10938 55.1131 5.20312 54.0193 5.20312C52.9256 5.20312 51.9907 5.10938 51.2146 4.92188C50.4438 4.73438 49.8526 4.45833 49.4412 4.09375C49.0349 3.72917 48.8318 3.28906 48.8318 2.77344C48.8318 2.2526 49.0349 1.8125 49.4412 1.45312C49.8526 1.08854 50.4438 0.8125 51.2146 0.625C51.9907 0.4375 52.9256 0.34375 54.0193 0.34375ZM54.0193 1.8125C53.3162 1.8125 52.7381 1.84896 52.2849 1.92188C51.8318 1.99479 51.4907 2.10156 51.2615 2.24219C51.0375 2.3776 50.9256 2.55469 50.9256 2.77344C50.9256 2.9974 51.0349 3.18229 51.2537 3.32812C51.4776 3.46875 51.8136 3.57292 52.2615 3.64062C52.7146 3.70833 53.3006 3.74479 54.0193 3.75C54.7485 3.74479 55.337 3.70833 55.7849 3.64062C56.2381 3.57292 56.574 3.46875 56.7927 3.32812C57.0167 3.18229 57.1287 2.9974 57.1287 2.77344C57.1287 2.55469 57.0167 2.3776 56.7927 2.24219C56.5688 2.10156 56.2276 1.99479 55.7693 1.92188C55.3162 1.84896 54.7329 1.8125 54.0193 1.8125ZM60.5115 7.57812H47.5427V6.00781H60.5115V7.57812ZM58.9256 11.9766H51.0037V13.2891H49.0427V10.5938H56.9568V9.83594H49.0349V8.35156H58.9256V11.9766ZM59.3006 14.3359H49.0427V12.8438H59.3006V14.3359ZM72.4058 14.4766H70.4371V0.203125H72.4058V14.4766ZM74.5152 7.23438H71.9683V5.58594H74.5152V7.23438ZM62.9761 9.5C64.3095 9.50521 65.4683 9.47917 66.4527 9.42188C67.4423 9.36458 68.4345 9.25 69.4292 9.07812L69.6089 10.6719C68.5829 10.8542 67.5569 10.9818 66.5308 11.0547C65.5048 11.1276 64.3199 11.1615 62.9761 11.1562H61.7808V9.5H62.9761ZM68.3355 6.91406H63.7652V10.1328H61.7808V5.34375H66.3511V3.01562H61.7652V1.40625H68.3355V6.91406ZM86.0579 14.4141H84.0579V0.203125H86.0579V14.4141ZM88.0658 7.3125H85.5423V5.67188H88.0658V7.3125ZM82.2611 1.67188C82.2611 3.15625 82.0501 4.52604 81.6283 5.78125C81.2064 7.03125 80.5189 8.18229 79.5658 9.23438C78.6126 10.2812 77.3626 11.1875 75.8158 11.9531L74.6908 10.4297C75.9668 9.78385 77.0163 9.05469 77.8392 8.24219C78.6673 7.42969 79.2845 6.51302 79.6908 5.49219C80.1022 4.47135 80.3079 3.31771 80.3079 2.03125V1.67188H82.2611ZM81.3079 3.30469H75.4876V1.67188H81.3079V3.30469ZM100.444 14.4375H98.421V0.203125H100.444V14.4375ZM96.1866 1.70312C96.1866 3.22917 95.9809 4.61458 95.5694 5.85938C95.1632 7.09896 94.4731 8.23958 93.4991 9.28125C92.5252 10.3177 91.2205 11.224 89.5851 12L88.5382 10.4062C89.908 9.76042 91.0069 9.03385 91.8351 8.22656C92.6632 7.41927 93.2648 6.51302 93.6398 5.50781C94.0148 4.5026 94.2023 3.35156 94.2023 2.05469V1.70312H96.1866ZM95.1163 3.27344H89.296V1.70312H95.1163V3.27344Z" fill="white"/>
</svg>
