<svg width="272" height="57" viewBox="0 0 272 57" fill="none" xmlns="http://www.w3.org/2000/svg">
<rect x="1" y="1" width="270" height="55" rx="15" fill="white"/>
<rect x="1" y="1" width="270" height="55" rx="15" stroke="white" stroke-width="2"/>
<g clip-path="url(#clip0_812_1804)">
<path d="M65.2141 28.7244C65.2141 27.7412 65.1343 27.0236 64.9616 26.2795H53.7336V30.7175H60.3242C60.1914 31.8204 59.4739 33.4814 57.8793 34.5975L57.857 34.746L61.407 37.4962L61.653 37.5208C63.9118 35.4346 65.2141 32.3652 65.2141 28.7244Z" fill="#4285F4"/>
<path d="M53.7335 40.4176C56.9623 40.4176 59.673 39.3545 61.6529 37.5209L57.8792 34.5976C56.8693 35.3018 55.514 35.7934 53.7335 35.7934C50.5711 35.7934 47.887 33.7074 46.9302 30.824L46.79 30.8359L43.0986 33.6927L43.0503 33.8269C45.0168 37.7334 49.0562 40.4176 53.7335 40.4176Z" fill="#34A853"/>
<path d="M46.9304 30.824C46.678 30.08 46.5318 29.2826 46.5318 28.4589C46.5318 27.635 46.678 26.8378 46.9171 26.0937L46.9104 25.9352L43.1728 23.0325L43.0505 23.0906C42.24 24.7117 41.7749 26.5322 41.7749 28.4589C41.7749 30.3855 42.24 32.2059 43.0505 33.827L46.9304 30.824Z" fill="#FBBC05"/>
<path d="M53.7335 21.124C55.9791 21.124 57.4938 22.094 58.3575 22.9046L61.7326 19.6093C59.6598 17.6826 56.9623 16.5 53.7335 16.5C49.0562 16.5 45.0168 19.1841 43.0503 23.0906L46.9169 26.0936C47.887 23.2102 50.5711 21.124 53.7335 21.124Z" fill="#EB4335"/>
</g>
<path d="M92.2865 21.9492H78.763V19.582H92.2865V21.9492ZM96.0013 31.0664H76.5482V28.6523H96.0013V31.0664ZM87.6693 39.6797H84.6693V30.3281H87.6693V39.6797ZM93.7162 21.4805C93.7162 22.5586 93.7005 23.4727 93.6693 24.2227C93.6458 24.9727 93.5677 25.8477 93.4349 26.8477C93.3099 27.8398 93.1185 28.9219 92.8607 30.0938L89.9076 29.7656C90.1654 28.6562 90.3529 27.6211 90.4701 26.6602C90.5951 25.6914 90.6693 24.8359 90.6927 24.0938C90.7162 23.3516 90.7279 22.4844 90.7279 21.4922V19.582H93.7162V21.4805ZM113.046 21.5625H99.4053V19.1953H113.046V21.5625ZM116.526 28.2188H97.0264V25.875H116.526V28.2188ZM114.218 20.6484C114.218 21.7266 114.187 22.7109 114.124 23.6016C114.062 24.4844 113.905 25.4766 113.655 26.5781L110.702 26.2969C110.937 25.2266 111.081 24.2852 111.136 23.4727C111.198 22.6523 111.233 21.7109 111.241 20.6484V19.1953H114.218V20.6484ZM114.136 35.6836H102.218V37.9219H99.2295V33.4453H111.171V32.0273H99.2178V29.7305H114.136V35.6836ZM114.698 39.4922H99.2295V37.1836H114.698V39.4922ZM135.463 26.3789H131.08V23.9531H135.463V26.3789ZM135.393 31.6875H130.975V29.2734H135.393V31.6875ZM141.264 39.6562H138.451V18.3047H141.264V39.6562ZM136.811 38.7188H133.987V18.8086H136.811V38.7188ZM132.065 20.8594C132.065 22.9609 131.815 24.8711 131.315 26.5898C130.815 28.3086 129.987 29.8906 128.83 31.3359C127.682 32.7734 126.143 34.0664 124.213 35.2148L122.455 33.1172C124.08 32.1562 125.381 31.1055 126.358 29.9648C127.342 28.8164 128.057 27.5508 128.502 26.168C128.955 24.7852 129.182 23.2188 129.182 21.4688V20.8594H132.065ZM130.178 23.2617H123.698V20.8594H130.178V23.2617ZM159.035 25.9453H154.934V23.5195H159.035V25.9453ZM161.238 30.9961H158.262V18.3047H161.238V30.9961ZM153.949 31.4648C155.473 31.4648 156.785 31.6289 157.887 31.957C158.988 32.2773 159.832 32.7461 160.418 33.3633C161.012 33.9805 161.309 34.7188 161.309 35.5781C161.309 36.4297 161.012 37.1602 160.418 37.7695C159.832 38.3867 158.988 38.8594 157.887 39.1875C156.785 39.5156 155.473 39.6836 153.949 39.6914C152.441 39.6836 151.137 39.5156 150.035 39.1875C148.941 38.8594 148.098 38.3867 147.504 37.7695C146.918 37.1602 146.625 36.4297 146.625 35.5781C146.625 34.7188 146.918 33.9805 147.504 33.3633C148.098 32.7461 148.941 32.2773 150.035 31.957C151.137 31.6289 152.441 31.4648 153.949 31.4648ZM153.949 33.7383C153.012 33.7383 152.219 33.8047 151.57 33.9375C150.922 34.0703 150.43 34.2734 150.094 34.5469C149.758 34.8203 149.59 35.1641 149.59 35.5781C149.59 35.9688 149.758 36.3047 150.094 36.5859C150.43 36.8594 150.922 37.0664 151.57 37.207C152.219 37.3398 153.012 37.4062 153.949 37.4062C154.91 37.4062 155.715 37.3398 156.363 37.207C157.012 37.0664 157.5 36.8594 157.828 36.5859C158.156 36.3047 158.32 35.9688 158.32 35.5781C158.32 35.1641 158.156 34.8203 157.828 34.5469C157.5 34.2734 157.012 34.0703 156.363 33.9375C155.715 33.8047 154.91 33.7383 153.949 33.7383ZM150.703 21.8672C150.703 23.25 150.48 24.5469 150.035 25.7578C149.59 26.9688 148.914 28.0352 148.008 28.957C147.109 29.8711 146.004 30.5547 144.691 31.0078L143.133 28.6289C144.273 28.2461 145.227 27.7031 145.992 27C146.766 26.2891 147.336 25.4922 147.703 24.6094C148.078 23.7188 148.266 22.8047 148.266 21.8672V20.4609H150.703V21.8672ZM151.312 21.8438C151.312 22.7109 151.488 23.5508 151.84 24.3633C152.199 25.1758 152.746 25.9102 153.48 26.5664C154.215 27.2227 155.129 27.7344 156.223 28.1016L154.746 30.4453C153.457 30.0234 152.371 29.3828 151.488 28.5234C150.613 27.6562 149.961 26.6484 149.531 25.5C149.102 24.3516 148.887 23.1328 148.887 21.8438V20.4609H151.312V21.8438ZM155.566 22.0195H143.988V19.6055H155.566V22.0195ZM188.542 37.2891H169.042V34.8398H188.542V37.2891ZM180.222 35.8594H177.281V30.7969H180.222V35.8594ZM186.292 26.7773H174.269V30.4219H171.292V24.4336H183.339V22.1133H171.257V19.7109H186.292V26.7773ZM186.796 31.6055H171.292V29.1797H186.796V31.6055ZM205.165 22.6992H191.524V20.2852H205.165V22.6992ZM208.974 36.8438H189.521V34.418H208.974V36.8438ZM206.571 22.8398C206.571 24.1758 206.556 25.293 206.524 26.1914C206.501 27.082 206.435 28.1094 206.325 29.2734C206.224 30.4375 206.052 31.7109 205.81 33.0938L202.774 32.8477C203.032 31.5664 203.22 30.3555 203.337 29.2148C203.454 28.0742 203.524 27.0469 203.548 26.1328C203.571 25.2109 203.583 24.1133 203.583 22.8398V20.2852H206.571V22.8398ZM227.835 33.6797H224.846V18.3516H227.835V33.6797ZM228.421 39.293H213.549V36.8789H228.421V39.293ZM216.573 37.8633H213.549V32.1445H216.573V37.8633ZM216.151 19.6992C217.237 19.6992 218.225 19.9297 219.116 20.3906C220.014 20.8438 220.717 21.4844 221.225 22.3125C221.733 23.1328 221.987 24.0508 221.987 25.0664C221.987 26.1133 221.733 27.0469 221.225 27.8672C220.717 28.6875 220.014 29.332 219.116 29.8008C218.225 30.2617 217.237 30.4922 216.151 30.4922C215.065 30.4922 214.077 30.2617 213.186 29.8008C212.303 29.332 211.604 28.6875 211.089 27.8672C210.573 27.0469 210.315 26.1133 210.315 25.0664C210.315 24.0508 210.573 23.1328 211.089 22.3125C211.604 21.4844 212.303 20.8438 213.186 20.3906C214.077 19.9297 215.065 19.6992 216.151 19.6992ZM216.151 22.3008C215.596 22.293 215.096 22.4023 214.651 22.6289C214.214 22.8477 213.866 23.168 213.608 23.5898C213.358 24.0117 213.233 24.5039 213.233 25.0664C213.233 25.6445 213.358 26.1484 213.608 26.5781C213.866 27 214.214 27.3242 214.651 27.5508C215.096 27.7695 215.596 27.8789 216.151 27.8789C216.698 27.8789 217.186 27.7695 217.616 27.5508C218.053 27.3242 218.397 27 218.647 26.5781C218.897 26.1484 219.022 25.6445 219.022 25.0664C219.022 24.5039 218.897 24.0117 218.647 23.5898C218.397 23.168 218.053 22.8477 217.616 22.6289C217.186 22.4023 216.698 22.293 216.151 22.3008Z" fill="black"/>
<defs>
<clipPath id="clip0_812_1804">
<rect width="24" height="24" fill="white" transform="translate(41.5 16.5)"/>
</clipPath>
</defs>
</svg>
