<svg width="272" height="57" viewBox="0 0 272 57" fill="none" xmlns="http://www.w3.org/2000/svg">
<rect x="1" y="1" width="270" height="55" rx="15" stroke="#B6B6B6" stroke-width="2"/>
<g clip-path="url(#clip0_376_995)">
<path d="M55.214 28.7244C55.214 27.7412 55.1342 27.0236 54.9615 26.2795H43.7336V30.7175H50.3241C50.1913 31.8204 49.4738 33.4814 47.8793 34.5975L47.8569 34.746L51.407 37.4962L51.6529 37.5208C53.9118 35.4346 55.214 32.3652 55.214 28.7244Z" fill="#4285F4"/>
<path d="M43.7336 40.4176C46.9624 40.4176 49.673 39.3545 51.6529 37.5209L47.8792 34.5976C46.8694 35.3018 45.514 35.7934 43.7336 35.7934C40.5711 35.7934 37.8871 33.7074 36.9303 30.824L36.79 30.8359L33.0986 33.6927L33.0504 33.8269C35.0169 37.7334 39.0563 40.4176 43.7336 40.4176Z" fill="#34A853"/>
<path d="M36.9303 30.824C36.6778 30.08 36.5317 29.2826 36.5317 28.4589C36.5317 27.635 36.6778 26.8378 36.917 26.0937L36.9103 25.9352L33.1726 23.0325L33.0504 23.0906C32.2398 24.7117 31.7748 26.5322 31.7748 28.4589C31.7748 30.3855 32.2398 32.2059 33.0504 33.827L36.9303 30.824Z" fill="#FBBC05"/>
<path d="M43.7336 21.124C45.9791 21.124 47.4939 22.094 48.3576 22.9046L51.7326 19.6093C49.6598 17.6826 46.9624 16.5 43.7336 16.5C39.0563 16.5 35.0169 19.1841 33.0504 23.0906L36.917 26.0936C37.8871 23.2102 40.5711 21.124 43.7336 21.124Z" fill="#EB4335"/>
</g>
<path d="M82.0474 21.9492H68.5239V19.582H82.0474V21.9492ZM85.7622 31.0664H66.3091V28.6523H85.7622V31.0664ZM77.4302 39.6797H74.4302V30.3281H77.4302V39.6797ZM83.4771 21.4805C83.4771 22.5586 83.4614 23.4727 83.4302 24.2227C83.4068 24.9727 83.3286 25.8477 83.1958 26.8477C83.0708 27.8398 82.8794 28.9219 82.6216 30.0938L79.6685 29.7656C79.9263 28.6562 80.1138 27.6211 80.231 26.6602C80.356 25.6914 80.4302 24.8359 80.4536 24.0938C80.4771 23.3516 80.4888 22.4844 80.4888 21.4922V19.582H83.4771V21.4805ZM102.807 21.5625H89.1662V19.1953H102.807V21.5625ZM106.287 28.2188H86.7873V25.875H106.287V28.2188ZM103.979 20.6484C103.979 21.7266 103.947 22.7109 103.885 23.6016C103.822 24.4844 103.666 25.4766 103.416 26.5781L100.463 26.2969C100.697 25.2266 100.842 24.2852 100.897 23.4727C100.959 22.6523 100.994 21.7109 101.002 20.6484V19.1953H103.979V20.6484ZM103.897 35.6836H91.9787V37.9219H88.9904V33.4453H100.932V32.0273H88.9787V29.7305H103.897V35.6836ZM104.459 39.4922H88.9904V37.1836H104.459V39.4922ZM125.224 26.3789H120.841V23.9531H125.224V26.3789ZM125.154 31.6875H120.736V29.2734H125.154V31.6875ZM131.025 39.6562H128.212V18.3047H131.025V39.6562ZM126.572 38.7188H123.748V18.8086H126.572V38.7188ZM121.826 20.8594C121.826 22.9609 121.576 24.8711 121.076 26.5898C120.576 28.3086 119.748 29.8906 118.591 31.3359C117.443 32.7734 115.904 34.0664 113.974 35.2148L112.216 33.1172C113.841 32.1562 115.142 31.1055 116.119 29.9648C117.103 28.8164 117.818 27.5508 118.263 26.168C118.716 24.7852 118.943 23.2188 118.943 21.4688V20.8594H121.826ZM119.939 23.2617H113.459V20.8594H119.939V23.2617ZM148.796 25.9453H144.695V23.5195H148.796V25.9453ZM150.999 30.9961H148.023V18.3047H150.999V30.9961ZM143.71 31.4648C145.234 31.4648 146.546 31.6289 147.648 31.957C148.749 32.2773 149.593 32.7461 150.179 33.3633C150.773 33.9805 151.07 34.7188 151.07 35.5781C151.07 36.4297 150.773 37.1602 150.179 37.7695C149.593 38.3867 148.749 38.8594 147.648 39.1875C146.546 39.5156 145.234 39.6836 143.71 39.6914C142.202 39.6836 140.898 39.5156 139.796 39.1875C138.702 38.8594 137.859 38.3867 137.265 37.7695C136.679 37.1602 136.386 36.4297 136.386 35.5781C136.386 34.7188 136.679 33.9805 137.265 33.3633C137.859 32.7461 138.702 32.2773 139.796 31.957C140.898 31.6289 142.202 31.4648 143.71 31.4648ZM143.71 33.7383C142.773 33.7383 141.98 33.8047 141.331 33.9375C140.683 34.0703 140.191 34.2734 139.855 34.5469C139.519 34.8203 139.351 35.1641 139.351 35.5781C139.351 35.9688 139.519 36.3047 139.855 36.5859C140.191 36.8594 140.683 37.0664 141.331 37.207C141.98 37.3398 142.773 37.4062 143.71 37.4062C144.671 37.4062 145.476 37.3398 146.124 37.207C146.773 37.0664 147.261 36.8594 147.589 36.5859C147.917 36.3047 148.081 35.9688 148.081 35.5781C148.081 35.1641 147.917 34.8203 147.589 34.5469C147.261 34.2734 146.773 34.0703 146.124 33.9375C145.476 33.8047 144.671 33.7383 143.71 33.7383ZM140.464 21.8672C140.464 23.25 140.241 24.5469 139.796 25.7578C139.351 26.9688 138.675 28.0352 137.769 28.957C136.87 29.8711 135.765 30.5547 134.452 31.0078L132.894 28.6289C134.034 28.2461 134.987 27.7031 135.753 27C136.527 26.2891 137.097 25.4922 137.464 24.6094C137.839 23.7188 138.027 22.8047 138.027 21.8672V20.4609H140.464V21.8672ZM141.073 21.8438C141.073 22.7109 141.249 23.5508 141.601 24.3633C141.96 25.1758 142.507 25.9102 143.241 26.5664C143.976 27.2227 144.89 27.7344 145.984 28.1016L144.507 30.4453C143.218 30.0234 142.132 29.3828 141.249 28.5234C140.374 27.6562 139.722 26.6484 139.292 25.5C138.862 24.3516 138.648 23.1328 138.648 21.8438V20.4609H141.073V21.8438ZM145.327 22.0195H133.749V19.6055H145.327V22.0195ZM167.288 34.7578H164.311V31.2773H167.288V34.7578ZM176.709 39.6562H173.745V18.3047H176.709V39.6562ZM160.127 33.6328C162.667 33.6172 164.92 33.5703 166.889 33.4922C168.866 33.4062 170.76 33.2461 172.573 33.0117L172.76 35.2266C170.713 35.5859 168.6 35.8203 166.42 35.9297C164.249 36.0312 161.87 36.082 159.284 36.082L158.885 33.6328H160.127ZM172.268 23.0508H159.307V20.707H172.268V23.0508ZM165.776 23.8945C166.823 23.8945 167.752 24.0625 168.565 24.3984C169.377 24.7344 170.01 25.207 170.463 25.8164C170.917 26.418 171.143 27.1133 171.143 27.9023C171.143 28.6836 170.917 29.375 170.463 29.9766C170.01 30.5781 169.377 31.0508 168.565 31.3945C167.752 31.7305 166.823 31.8984 165.776 31.8984C164.752 31.8984 163.834 31.7305 163.022 31.3945C162.217 31.0586 161.588 30.5898 161.135 29.9883C160.69 29.3789 160.467 28.6836 160.467 27.9023C160.467 27.1133 160.69 26.418 161.135 25.8164C161.588 25.207 162.217 24.7344 163.022 24.3984C163.834 24.0625 164.752 23.8945 165.776 23.8945ZM165.776 26.1562C165.299 26.1562 164.874 26.2266 164.499 26.3672C164.124 26.5 163.831 26.6992 163.62 26.9648C163.409 27.2227 163.303 27.5352 163.303 27.9023C163.303 28.2617 163.409 28.5703 163.62 28.8281C163.831 29.0859 164.124 29.2852 164.499 29.4258C164.874 29.5586 165.299 29.625 165.776 29.625C166.276 29.625 166.717 29.5586 167.1 29.4258C167.483 29.293 167.776 29.0977 167.979 28.8398C168.182 28.5742 168.284 28.2617 168.284 27.9023C168.284 27.5352 168.182 27.2227 167.979 26.9648C167.776 26.6992 167.483 26.5 167.1 26.3672C166.717 26.2266 166.276 26.1562 165.776 26.1562ZM167.311 22.043H164.311V18.4102H167.311V22.043ZM187.906 33.9492H184.895V29.2383H187.906V33.9492ZM197.34 34.4648H194.34V18.3516H197.34V34.4648ZM197.809 39.293H181.895V36.8789H197.809V39.293ZM184.906 37.5234H181.895V32.918H184.906V37.5234ZM179.188 27.8086C182.11 27.7695 184.629 27.7148 186.746 27.6445C188.871 27.5664 190.922 27.4023 192.899 27.1523L193.051 29.2969C190.981 29.6484 188.813 29.8828 186.547 30C184.289 30.1172 181.953 30.1719 179.539 30.1641L179.188 27.8086ZM195.02 32.7656H190.262V30.7266H195.02V32.7656ZM186.125 19.0664C187.149 19.0586 188.063 19.2188 188.867 19.5469C189.68 19.8672 190.313 20.3203 190.766 20.9062C191.227 21.4844 191.457 22.1445 191.457 22.8867C191.457 23.6445 191.227 24.3047 190.766 24.8672C190.313 25.4297 189.684 25.8711 188.879 26.1914C188.074 26.5039 187.156 26.6602 186.125 26.6602C185.086 26.6602 184.16 26.5039 183.348 26.1914C182.535 25.8711 181.903 25.4297 181.449 24.8672C180.996 24.3047 180.77 23.6445 180.77 22.8867C180.77 22.1445 180.996 21.4805 181.449 20.8945C181.903 20.3086 182.535 19.8555 183.348 19.5352C184.16 19.2148 185.086 19.0586 186.125 19.0664ZM186.125 21.2578C185.625 21.25 185.184 21.3125 184.801 21.4453C184.418 21.5703 184.121 21.7578 183.91 22.0078C183.707 22.2578 183.606 22.5508 183.606 22.8867C183.606 23.2227 183.707 23.5156 183.91 23.7656C184.121 24.0078 184.418 24.1914 184.801 24.3164C185.184 24.4414 185.625 24.5039 186.125 24.5039C186.617 24.5039 187.047 24.4414 187.414 24.3164C187.789 24.1914 188.082 24.0078 188.293 23.7656C188.504 23.5156 188.61 23.2227 188.61 22.8867C188.61 22.5508 188.504 22.2578 188.293 22.0078C188.082 21.7578 187.789 21.5703 187.414 21.4453C187.047 21.3125 186.617 21.25 186.125 21.2578ZM216.576 39.6211H213.576V18.3047H216.576V39.6211ZM219.588 28.9688H215.803V26.5078H219.588V28.9688ZM210.881 20.5078C210.881 22.7344 210.564 24.7891 209.931 26.6719C209.299 28.5469 208.267 30.2734 206.838 31.8516C205.408 33.4219 203.533 34.7812 201.213 35.9297L199.525 33.6445C201.439 32.6758 203.014 31.582 204.248 30.3633C205.49 29.1445 206.416 27.7695 207.025 26.2383C207.642 24.707 207.951 22.9766 207.951 21.0469V20.5078H210.881ZM209.451 22.957H200.721V20.5078H209.451V22.957ZM238.074 29.8008H235.085V18.3047H238.074V29.8008ZM226.765 32.707H235.097V30.7266H238.074V39.4219H223.824V30.7266H226.765V32.707ZM235.097 37.0078V35.0273H226.765V37.0078H235.097ZM226.39 19.207C227.492 19.1992 228.484 19.4102 229.367 19.8398C230.257 20.2617 230.957 20.8594 231.464 21.6328C231.972 22.4062 232.226 23.2852 232.226 24.2695C232.226 25.2148 231.972 26.0703 231.464 26.8359C230.957 27.5938 230.257 28.1875 229.367 28.6172C228.484 29.0469 227.492 29.2656 226.39 29.2734C225.289 29.2656 224.292 29.0469 223.402 28.6172C222.519 28.1875 221.824 27.5938 221.316 26.8359C220.808 26.0703 220.554 25.2148 220.554 24.2695C220.554 23.2852 220.808 22.4062 221.316 21.6328C221.824 20.8594 222.519 20.2617 223.402 19.8398C224.292 19.4102 225.289 19.1992 226.39 19.207ZM226.39 21.7031C225.82 21.6953 225.312 21.7969 224.867 22.0078C224.429 22.2188 224.085 22.5156 223.835 22.8984C223.593 23.2812 223.472 23.7383 223.472 24.2695C223.472 24.7852 223.593 25.2344 223.835 25.6172C224.085 26 224.429 26.2969 224.867 26.5078C225.312 26.7109 225.82 26.8164 226.39 26.8242C226.953 26.8164 227.449 26.7109 227.878 26.5078C228.316 26.2969 228.656 26 228.898 25.6172C229.14 25.2344 229.261 24.7852 229.261 24.2695C229.261 23.7383 229.136 23.2812 228.886 22.8984C228.644 22.5156 228.308 22.2188 227.878 22.0078C227.449 21.7969 226.953 21.6953 226.39 21.7031Z" fill="#B6B6B6"/>
<defs>
<clipPath id="clip0_376_995">
<rect width="24" height="24" fill="white" transform="translate(31.5 16.5)"/>
</clipPath>
</defs>
</svg>
