<svg width="254" height="57" viewBox="0 0 254 57" fill="none" xmlns="http://www.w3.org/2000/svg">
<rect x="1" y="1" width="252" height="55" rx="15" stroke="white" stroke-width="2"/>
<g clip-path="url(#clip0_376_972)">
<path d="M56.214 28.7244C56.214 27.7412 56.1342 27.0236 55.9615 26.2795H44.7336V30.7175H51.3241C51.1913 31.8204 50.4738 33.4814 48.8793 34.5975L48.8569 34.746L52.407 37.4962L52.6529 37.5208C54.9118 35.4346 56.214 32.3652 56.214 28.7244Z" fill="#4285F4"/>
<path d="M44.7336 40.4176C47.9624 40.4176 50.673 39.3545 52.6529 37.5209L48.8792 34.5976C47.8694 35.3018 46.514 35.7934 44.7336 35.7934C41.5711 35.7934 38.8871 33.7074 37.9303 30.824L37.79 30.8359L34.0986 33.6927L34.0504 33.8269C36.0169 37.7334 40.0563 40.4176 44.7336 40.4176Z" fill="#34A853"/>
<path d="M37.9303 30.824C37.6778 30.08 37.5317 29.2826 37.5317 28.4589C37.5317 27.635 37.6778 26.8378 37.917 26.0937L37.9103 25.9352L34.1726 23.0325L34.0504 23.0906C33.2398 24.7117 32.7748 26.5322 32.7748 28.4589C32.7748 30.3855 33.2398 32.2059 34.0504 33.827L37.9303 30.824Z" fill="#FBBC05"/>
<path d="M44.7336 21.124C46.9791 21.124 48.4939 22.094 49.3576 22.9046L52.7326 19.6093C50.6598 17.6826 47.9624 16.5 44.7336 16.5C40.0563 16.5 36.0169 19.1841 34.0504 23.0906L37.917 26.0936C38.8871 23.2102 41.5711 21.124 44.7336 21.124Z" fill="#EB4335"/>
</g>
<path d="M83.2865 21.9492H69.763V19.582H83.2865V21.9492ZM87.0013 31.0664H67.5482V28.6523H87.0013V31.0664ZM78.6693 39.6797H75.6693V30.3281H78.6693V39.6797ZM84.7162 21.4805C84.7162 22.5586 84.7005 23.4727 84.6693 24.2227C84.6458 24.9727 84.5677 25.8477 84.4349 26.8477C84.3099 27.8398 84.1185 28.9219 83.8607 30.0938L80.9076 29.7656C81.1654 28.6562 81.3529 27.6211 81.4701 26.6602C81.5951 25.6914 81.6693 24.8359 81.6927 24.0938C81.7162 23.3516 81.7279 22.4844 81.7279 21.4922V19.582H84.7162V21.4805ZM104.046 21.5625H90.4053V19.1953H104.046V21.5625ZM107.526 28.2188H88.0264V25.875H107.526V28.2188ZM105.218 20.6484C105.218 21.7266 105.187 22.7109 105.124 23.6016C105.062 24.4844 104.905 25.4766 104.655 26.5781L101.702 26.2969C101.937 25.2266 102.081 24.2852 102.136 23.4727C102.198 22.6523 102.233 21.7109 102.241 20.6484V19.1953H105.218V20.6484ZM105.136 35.6836H93.2178V37.9219H90.2295V33.4453H102.171V32.0273H90.2178V29.7305H105.136V35.6836ZM105.698 39.4922H90.2295V37.1836H105.698V39.4922ZM126.463 26.3789H122.08V23.9531H126.463V26.3789ZM126.393 31.6875H121.975V29.2734H126.393V31.6875ZM132.264 39.6562H129.451V18.3047H132.264V39.6562ZM127.811 38.7188H124.987V18.8086H127.811V38.7188ZM123.065 20.8594C123.065 22.9609 122.815 24.8711 122.315 26.5898C121.815 28.3086 120.987 29.8906 119.83 31.3359C118.682 32.7734 117.143 34.0664 115.213 35.2148L113.455 33.1172C115.08 32.1562 116.381 31.1055 117.358 29.9648C118.342 28.8164 119.057 27.5508 119.502 26.168C119.955 24.7852 120.182 23.2188 120.182 21.4688V20.8594H123.065ZM121.178 23.2617H114.698V20.8594H121.178V23.2617ZM150.035 25.9453H145.934V23.5195H150.035V25.9453ZM152.238 30.9961H149.262V18.3047H152.238V30.9961ZM144.949 31.4648C146.473 31.4648 147.785 31.6289 148.887 31.957C149.988 32.2773 150.832 32.7461 151.418 33.3633C152.012 33.9805 152.309 34.7188 152.309 35.5781C152.309 36.4297 152.012 37.1602 151.418 37.7695C150.832 38.3867 149.988 38.8594 148.887 39.1875C147.785 39.5156 146.473 39.6836 144.949 39.6914C143.441 39.6836 142.137 39.5156 141.035 39.1875C139.941 38.8594 139.098 38.3867 138.504 37.7695C137.918 37.1602 137.625 36.4297 137.625 35.5781C137.625 34.7188 137.918 33.9805 138.504 33.3633C139.098 32.7461 139.941 32.2773 141.035 31.957C142.137 31.6289 143.441 31.4648 144.949 31.4648ZM144.949 33.7383C144.012 33.7383 143.219 33.8047 142.57 33.9375C141.922 34.0703 141.43 34.2734 141.094 34.5469C140.758 34.8203 140.59 35.1641 140.59 35.5781C140.59 35.9688 140.758 36.3047 141.094 36.5859C141.43 36.8594 141.922 37.0664 142.57 37.207C143.219 37.3398 144.012 37.4062 144.949 37.4062C145.91 37.4062 146.715 37.3398 147.363 37.207C148.012 37.0664 148.5 36.8594 148.828 36.5859C149.156 36.3047 149.32 35.9688 149.32 35.5781C149.32 35.1641 149.156 34.8203 148.828 34.5469C148.5 34.2734 148.012 34.0703 147.363 33.9375C146.715 33.8047 145.91 33.7383 144.949 33.7383ZM141.703 21.8672C141.703 23.25 141.48 24.5469 141.035 25.7578C140.59 26.9688 139.914 28.0352 139.008 28.957C138.109 29.8711 137.004 30.5547 135.691 31.0078L134.133 28.6289C135.273 28.2461 136.227 27.7031 136.992 27C137.766 26.2891 138.336 25.4922 138.703 24.6094C139.078 23.7188 139.266 22.8047 139.266 21.8672V20.4609H141.703V21.8672ZM142.312 21.8438C142.312 22.7109 142.488 23.5508 142.84 24.3633C143.199 25.1758 143.746 25.9102 144.48 26.5664C145.215 27.2227 146.129 27.7344 147.223 28.1016L145.746 30.4453C144.457 30.0234 143.371 29.3828 142.488 28.5234C141.613 27.6562 140.961 26.6484 140.531 25.5C140.102 24.3516 139.887 23.1328 139.887 21.8438V20.4609H142.312V21.8438ZM146.566 22.0195H134.988V19.6055H146.566V22.0195ZM179.542 37.2891H160.042V34.8398H179.542V37.2891ZM171.222 35.8594H168.281V30.7969H171.222V35.8594ZM177.292 26.7773H165.269V30.4219H162.292V24.4336H174.339V22.1133H162.257V19.7109H177.292V26.7773ZM177.796 31.6055H162.292V29.1797H177.796V31.6055ZM196.165 22.6992H182.524V20.2852H196.165V22.6992ZM199.974 36.8438H180.521V34.418H199.974V36.8438ZM197.571 22.8398C197.571 24.1758 197.556 25.293 197.524 26.1914C197.501 27.082 197.435 28.1094 197.325 29.2734C197.224 30.4375 197.052 31.7109 196.81 33.0938L193.774 32.8477C194.032 31.5664 194.22 30.3555 194.337 29.2148C194.454 28.0742 194.524 27.0469 194.548 26.1328C194.571 25.2109 194.583 24.1133 194.583 22.8398V20.2852H197.571V22.8398ZM218.835 33.6797H215.846V18.3516H218.835V33.6797ZM219.421 39.293H204.549V36.8789H219.421V39.293ZM207.573 37.8633H204.549V32.1445H207.573V37.8633ZM207.151 19.6992C208.237 19.6992 209.225 19.9297 210.116 20.3906C211.014 20.8438 211.717 21.4844 212.225 22.3125C212.733 23.1328 212.987 24.0508 212.987 25.0664C212.987 26.1133 212.733 27.0469 212.225 27.8672C211.717 28.6875 211.014 29.332 210.116 29.8008C209.225 30.2617 208.237 30.4922 207.151 30.4922C206.065 30.4922 205.077 30.2617 204.186 29.8008C203.303 29.332 202.604 28.6875 202.089 27.8672C201.573 27.0469 201.315 26.1133 201.315 25.0664C201.315 24.0508 201.573 23.1328 202.089 22.3125C202.604 21.4844 203.303 20.8438 204.186 20.3906C205.077 19.9297 206.065 19.6992 207.151 19.6992ZM207.151 22.3008C206.596 22.293 206.096 22.4023 205.651 22.6289C205.214 22.8477 204.866 23.168 204.608 23.5898C204.358 24.0117 204.233 24.5039 204.233 25.0664C204.233 25.6445 204.358 26.1484 204.608 26.5781C204.866 27 205.214 27.3242 205.651 27.5508C206.096 27.7695 206.596 27.8789 207.151 27.8789C207.698 27.8789 208.186 27.7695 208.616 27.5508C209.053 27.3242 209.397 27 209.647 26.5781C209.897 26.1484 210.022 25.6445 210.022 25.0664C210.022 24.5039 209.897 24.0117 209.647 23.5898C209.397 23.168 209.053 22.8477 208.616 22.6289C208.186 22.4023 207.698 22.293 207.151 22.3008Z" fill="white"/>
<defs>
<clipPath id="clip0_376_972">
<rect width="24" height="24" fill="white" transform="translate(32.5 16.5)"/>
</clipPath>
</defs>
</svg>
