<svg width="214" height="57" viewBox="0 0 214 57" fill="none" xmlns="http://www.w3.org/2000/svg">
<rect x="1" y="1" width="212" height="55" rx="15" stroke="#FFA858" stroke-width="2"/>
<path d="M47.9826 20.8867C47.9826 22.332 47.7638 23.6758 47.3263 24.918C46.8967 26.1602 46.2404 27.2422 45.3576 28.1641C44.4748 29.0781 43.381 29.7617 42.0763 30.2148L40.4709 27.8711C41.6115 27.4805 42.5607 26.9297 43.3185 26.2188C44.0763 25.5 44.6349 24.6836 44.9943 23.7695C45.3615 22.8555 45.5451 21.8945 45.5451 20.8867V18.9531H47.9826V20.8867ZM48.5451 21.1797C48.5451 22.0703 48.7209 22.918 49.0724 23.7227C49.4318 24.5195 49.9748 25.2305 50.7013 25.8555C51.4357 26.4727 52.3459 26.9531 53.4318 27.2969L51.8381 29.6172C50.5959 29.1953 49.5451 28.5703 48.6857 27.7422C47.8263 26.9141 47.1857 25.9414 46.7638 24.8242C46.342 23.6992 46.131 22.4844 46.131 21.1797V18.9531H48.5451V21.1797ZM57.6974 30.4727H54.7092V17.8047H57.6974V30.4727ZM60.5803 25.3047H56.8537V22.8086H60.5803V25.3047ZM50.7013 30.9062C52.1701 30.9062 53.4435 31.0703 54.5217 31.3984C55.6076 31.7188 56.4396 32.1875 57.0178 32.8047C57.6037 33.4219 57.8967 34.1602 57.8967 35.0195C57.8967 35.8867 57.6037 36.6289 57.0178 37.2461C56.4396 37.8711 55.6115 38.3438 54.5334 38.6641C53.4553 38.9922 52.1779 39.1562 50.7013 39.1562C49.217 39.1562 47.924 38.9922 46.8224 38.6641C45.7209 38.3438 44.8732 37.8711 44.2795 37.2461C43.6857 36.6289 43.3888 35.8867 43.3888 35.0195C43.3888 34.1602 43.6857 33.4219 44.2795 32.8047C44.8732 32.1875 45.7209 31.7188 46.8224 31.3984C47.924 31.0703 49.217 30.9062 50.7013 30.9062ZM50.7013 33.25C49.7795 33.25 48.9943 33.3164 48.3459 33.4492C47.7053 33.5742 47.2209 33.7734 46.8928 34.0469C46.5646 34.3125 46.4006 34.6367 46.4006 35.0195C46.4006 35.418 46.5646 35.75 46.8928 36.0156C47.2209 36.2812 47.7013 36.4805 48.3342 36.6133C48.9748 36.7383 49.7638 36.8047 50.7013 36.8125C51.6467 36.8047 52.4318 36.7383 53.0568 36.6133C53.6818 36.4805 54.1545 36.2812 54.4748 36.0156C54.7951 35.75 54.9553 35.418 54.9553 35.0195C54.9553 34.6289 54.7912 34.3008 54.4631 34.0352C54.1428 33.7695 53.6662 33.5742 53.0334 33.4492C52.4006 33.3164 51.6232 33.25 50.7013 33.25ZM72.4452 32.8164H69.4686V29.5117H72.4452V32.8164ZM80.7186 30.1797H61.2655V27.8242H80.7186V30.1797ZM78.9608 20.8047H62.9647V18.4141H78.9608V20.8047ZM78.8319 26.4531H63.117V24.0508H78.8319V26.4531ZM68.7186 25.6797H65.7303V19.3164H68.7186V25.6797ZM76.1952 25.6797H73.1952V19.3164H76.1952V25.6797ZM78.3866 38.9219H63.5155V32.0195H78.3866V38.9219ZM66.4569 36.5195H75.4569V34.3164H66.4569V36.5195ZM102.773 21.4492H89.2492V19.082H102.773V21.4492ZM106.487 30.5664H87.0343V28.1523H106.487V30.5664ZM98.1554 39.1797H95.1554V29.8281H98.1554V39.1797ZM104.202 20.9805C104.202 22.0586 104.187 22.9727 104.155 23.7227C104.132 24.4727 104.054 25.3477 103.921 26.3477C103.796 27.3398 103.605 28.4219 103.347 29.5938L100.394 29.2656C100.652 28.1562 100.839 27.1211 100.956 26.1602C101.081 25.1914 101.155 24.3359 101.179 23.5938C101.202 22.8516 101.214 21.9844 101.214 20.9922V19.082H104.202V20.9805ZM125.993 39.1562H123.122V17.8047H125.993V39.1562ZM124.071 28.3984H120.462V25.9727H124.071V28.3984ZM121.2 38.1719H118.388V18.1328H121.2V38.1719ZM116.583 33.8008H108.098V20.0312H116.583V33.8008ZM110.899 31.4453H113.794V22.3867H110.899V31.4453ZM151.129 39.2148H148.094V17.8047H151.129V39.2148ZM139.539 19.3164C140.61 19.3164 141.57 19.6289 142.422 20.2539C143.281 20.8789 143.949 21.7656 144.426 22.9141C144.91 24.0625 145.153 25.3984 145.153 26.9219C145.153 28.4531 144.91 29.793 144.426 30.9414C143.949 32.0898 143.281 32.9766 142.422 33.6016C141.57 34.2188 140.61 34.5273 139.539 34.5273C138.453 34.5273 137.481 34.2188 136.621 33.6016C135.77 32.9766 135.102 32.0898 134.617 30.9414C134.133 29.793 133.891 28.4531 133.891 26.9219C133.891 25.3984 134.133 24.0625 134.617 22.9141C135.102 21.7656 135.77 20.8789 136.621 20.2539C137.481 19.6289 138.453 19.3164 139.539 19.3164ZM139.539 22.0234C138.992 22.0156 138.508 22.2031 138.086 22.5859C137.672 22.9609 137.352 23.5195 137.125 24.2617C136.906 24.9961 136.797 25.8828 136.797 26.9219C136.797 27.9609 136.906 28.8477 137.125 29.582C137.352 30.3164 137.672 30.875 138.086 31.2578C138.508 31.6328 138.992 31.8203 139.539 31.8203C140.078 31.8203 140.555 31.6328 140.969 31.2578C141.383 30.875 141.703 30.3164 141.93 29.582C142.156 28.8477 142.27 27.9609 142.27 26.9219C142.27 25.8828 142.156 24.9961 141.93 24.2617C141.703 23.5195 141.383 22.9609 140.969 22.5859C140.563 22.2031 140.086 22.0156 139.539 22.0234ZM156.197 28.0117C158.369 28.0117 160.049 27.9805 161.236 27.918C162.431 27.8477 163.607 27.707 164.764 27.4961L165.045 29.875C163.865 30.0781 162.646 30.2148 161.389 30.2852C160.131 30.3555 158.4 30.3906 156.197 30.3906H154.58V28.0117H156.197ZM163.978 25.7148H157.545V29.5703H154.58V23.5117H161.002V21.4141H154.545V19.0703H163.978V25.7148ZM171.724 30.9883H168.748V17.8516H171.724V30.9883ZM169.299 23.1719H165.221V20.793H169.299V23.1719ZM169.299 27.707H165.221V25.3164H169.299V27.707ZM171.724 39.168H168.748V34.3164H157.017V31.9258H171.724V39.168Z" fill="#FFA858"/>
</svg>
