      <svg
        width="393"
        height="28"
        viewBox="0 0 393 28"
        fill="none"
        xmlns="http://www.w3.org/2000/svg"
      >
        <g clip-path="url(#clip0_129_1371)">
          <path
            d="M52 3.09946C52 3.09946 52 3.09844 52 3.0981C52 3.09537 52 3.09263 51.9997 3.09024C51.9997 3.08 51.9987 3.06941 51.9976 3.05951C51.9973 3.05576 51.9966 3.052 51.996 3.04824C51.9946 3.03902 51.9929 3.02946 51.9906 3.02059C51.9896 3.01683 51.9889 3.01341 51.9879 3.00966C51.9852 2.99976 51.9822 2.9902 51.9788 2.98098C51.9782 2.97893 51.9778 2.97722 51.9772 2.97517L51.4322 1.56083L50.9142 0.216829C50.8638 0.0860488 50.7394 0 50.6014 0H34.3986C34.2602 0 34.1362 0.0860488 34.0858 0.216829L33.0228 2.97517C33.0222 2.97722 33.0218 2.97893 33.0212 2.98098C33.0178 2.99054 33.0148 3.0001 33.0121 3.00966C33.0111 3.01341 33.0101 3.01683 33.0094 3.02059C33.0074 3.0298 33.0057 3.03902 33.004 3.04824C33.0034 3.052 33.0027 3.05576 33.0024 3.05951C33.0013 3.06976 33.0007 3.08 33.0003 3.09024C33.0003 3.09298 33 3.09571 33 3.0981C33 3.09844 33 3.09912 33 3.09946V24.9009C33 24.9009 33 24.9019 33 24.9022C33 24.905 33 24.9077 33.0003 24.9104C33.0003 24.9207 33.0013 24.9309 33.0024 24.9412C33.0027 24.9449 33.0034 24.9487 33.004 24.9524C33.0054 24.9617 33.0071 24.9709 33.0091 24.9801C33.0101 24.9839 33.0108 24.9873 33.0118 24.991C33.0144 25.0009 33.0175 25.0105 33.0208 25.0197C33.0215 25.0218 33.0218 25.0235 33.0225 25.0255L33.5675 26.4392L34.0855 27.7832C34.1359 27.9139 34.2602 28 34.3983 28H50.601C50.7394 28 50.8634 27.9139 50.9138 27.7832L51.9768 25.0255C51.9775 25.0235 51.9782 25.0214 51.9788 25.0194C51.9822 25.0101 51.9852 25.0006 51.9879 24.991C51.9889 24.9873 51.9899 24.9835 51.9906 24.9801C51.9926 24.9712 51.9943 24.962 51.9956 24.9528C51.9963 24.949 51.997 24.9453 51.9973 24.9415C51.9983 24.9313 51.999 24.921 51.9993 24.9108C51.9993 24.908 51.9997 24.9053 51.9997 24.9026C51.9997 24.9022 51.9997 24.9016 51.9997 24.9012V3.09946H52ZM51.1718 2.758H33.8278L34.0963 2.06176H50.9037L51.1722 2.758H51.1718ZM45.5676 19.5495C44.0839 18.7235 43.286 17.8165 42.5146 16.9393C41.5534 15.8463 40.6456 14.814 38.6083 14.068C37.0864 13.5103 35.4267 13.1385 33.6709 12.9613V6.60322C35.3471 6.77771 36.9298 7.13454 38.3802 7.66585C40.2576 8.35356 41.0713 9.27859 42.0134 10.3498C42.8227 11.27 43.6596 12.2217 45.2444 13.104C46.8886 14.0191 48.9343 14.6645 51.3277 15.0237V21.3773C49.0559 21.0273 47.1194 20.413 45.5672 19.5491L45.5676 19.5495ZM33.8278 25.2423H51.1718L50.9037 25.9382H34.0963L33.8282 25.2423H33.8278ZM34.6274 0.682927H50.3719L50.6403 1.37917H34.3593L34.6278 0.682927H34.6274ZM50.3719 27.3171H34.6274L34.359 26.6208H50.64L50.3716 27.3171H50.3719Z"
            fill="#5D9EFF"
          />
          <path
            d="M248 3.09946C248 3.09946 248 3.09844 248 3.0981C248 3.09537 248 3.09263 248 3.09024C248 3.08 247.999 3.06941 247.998 3.05951C247.997 3.05576 247.997 3.052 247.996 3.04824C247.995 3.03902 247.993 3.02946 247.991 3.02059C247.99 3.01683 247.989 3.01341 247.988 3.00966C247.985 2.99976 247.982 2.9902 247.979 2.98098C247.978 2.97893 247.978 2.97722 247.977 2.97517L247.432 1.56083L246.914 0.216829C246.864 0.0860488 246.739 0 246.601 0H230.399C230.26 0 230.136 0.0860488 230.086 0.216829L229.023 2.97517C229.022 2.97722 229.022 2.97893 229.021 2.98098C229.018 2.99054 229.015 3.0001 229.012 3.00966C229.011 3.01341 229.01 3.01683 229.009 3.02059C229.007 3.0298 229.006 3.03902 229.004 3.04824C229.003 3.052 229.003 3.05576 229.002 3.05951C229.001 3.06976 229.001 3.08 229 3.09024C229 3.09298 229 3.09571 229 3.0981C229 3.09844 229 3.09912 229 3.09946V24.9009C229 24.9009 229 24.9019 229 24.9022C229 24.905 229 24.9077 229 24.9104C229 24.9207 229.001 24.9309 229.002 24.9412C229.003 24.9449 229.003 24.9487 229.004 24.9524C229.005 24.9617 229.007 24.9709 229.009 24.9801C229.01 24.9839 229.011 24.9873 229.012 24.991C229.014 25.0009 229.017 25.0105 229.021 25.0197C229.022 25.0218 229.022 25.0235 229.023 25.0255L229.567 26.4392L230.086 27.7832C230.136 27.9139 230.26 28 230.398 28H246.601C246.739 28 246.863 27.9139 246.914 27.7832L247.977 25.0255C247.977 25.0235 247.978 25.0214 247.979 25.0194C247.982 25.0101 247.985 25.0006 247.988 24.991C247.989 24.9873 247.99 24.9835 247.991 24.9801C247.993 24.9712 247.994 24.962 247.996 24.9528C247.996 24.949 247.997 24.9453 247.997 24.9415C247.998 24.9313 247.999 24.921 247.999 24.9108C247.999 24.908 248 24.9053 248 24.9026C248 24.9022 248 24.9016 248 24.9012V3.09946H248ZM247.172 2.758H229.828L230.096 2.06176H246.904L247.172 2.758H247.172ZM241.568 19.5495C240.084 18.7235 239.286 17.8165 238.515 16.9393C237.553 15.8463 236.646 14.814 234.608 14.068C233.086 13.5103 231.427 13.1385 229.671 12.9613V6.60322C231.347 6.77771 232.93 7.13454 234.38 7.66585C236.258 8.35356 237.071 9.27859 238.013 10.3498C238.823 11.27 239.66 12.2217 241.244 13.104C242.889 14.0191 244.934 14.6645 247.328 15.0237V21.3773C245.056 21.0273 243.119 20.413 241.567 19.5491L241.568 19.5495ZM229.828 25.2423H247.172L246.904 25.9382H230.096L229.828 25.2423H229.828ZM230.627 0.682927H246.372L246.64 1.37917H230.359L230.628 0.682927H230.627ZM246.372 27.3171H230.627L230.359 26.6208H246.64L246.372 27.3171H246.372Z"
            fill="#5D9EFF"
          />
          <path
            d="M80.9007 3.18455C80.8373 3.11968 80.7516 3.08452 80.6636 3.08725L77.243 3.18557C75.5294 1.15938 73.0814 0 70.4997 0C68.09 0 65.8245 0.986978 64.1207 2.77863C62.4168 4.57028 61.4785 6.95289 61.4785 9.48674C61.4785 10.6782 61.6844 11.8335 62.0908 12.9284H60.3273C60.1464 12.9284 60 13.0823 60 13.2725V14.7828C60 14.973 60.1464 15.127 60.3273 15.127H61.3565L61.7097 17.9981L62.5126 24.5283L62.9025 27.6999C62.9236 27.8713 63.0626 28 63.2272 28H77.7728C77.9374 28 78.0764 27.8716 78.0975 27.6999L78.4874 24.5283L79.2903 17.9978L79.6435 15.1266H80.6727C80.8536 15.1266 81 14.9726 81 14.7825V13.2721C81 13.082 80.8536 12.928 80.6727 12.928H78.9092C79.3156 11.8328 79.5215 10.6775 79.5215 9.48639C79.5215 8.47415 79.3712 7.48342 79.0751 6.53365L80.6636 6.5794C80.6666 6.5794 80.6695 6.5794 80.6727 6.5794C80.7578 6.5794 80.8396 6.54458 80.901 6.48176C80.9643 6.41689 81 6.32813 81 6.23527V3.43104C81 3.33818 80.9643 3.24907 80.901 3.18455H80.9007ZM80.3455 4.48937H66.5741V4.18109L77.1082 3.87827L80.3458 3.78507V4.48937H80.3455ZM72.8798 5.87476C72.8798 5.87476 72.8785 5.87749 72.8778 5.87885C72.8541 5.93245 72.8301 5.98434 72.8058 6.03658C72.6431 6.38719 72.4587 6.78458 72.4587 7.54043C72.4587 8.29628 72.6431 8.69401 72.8061 9.04463C72.9567 9.36929 73.0869 9.64992 73.0869 10.247C73.0869 10.8441 72.9567 11.1248 72.8061 11.4494C72.6451 11.7963 72.4629 12.1885 72.4587 12.9284H71.3795C71.3831 12.3487 71.512 12.0715 71.6604 11.7516C71.823 11.4009 72.0077 11.0036 72.0077 10.2474C72.0077 9.49117 71.8233 9.09379 71.6604 8.74317C71.5097 8.4185 71.3795 8.13788 71.3795 7.54077C71.3795 6.94367 71.5097 6.66304 71.6604 6.33837C71.6941 6.266 71.7289 6.19089 71.7626 6.11169C71.8594 5.88397 71.9581 5.59891 71.9938 5.17797H73.0701C73.0366 5.49239 72.959 5.69484 72.8798 5.8751V5.87476ZM69.6458 12.9284C69.6494 12.3487 69.7783 12.0715 69.9266 11.7516C70.0893 11.4009 70.274 11.0036 70.274 10.2474C70.274 9.49117 70.0896 9.09379 69.9266 8.74317C69.776 8.4185 69.6458 8.13788 69.6458 7.54077C69.6458 6.94367 69.776 6.66304 69.9266 6.33837C69.9679 6.24927 70.0107 6.15743 70.0513 6.0574C70.1335 5.85564 70.225 5.5815 70.2597 5.17797H71.336C71.3052 5.46474 71.2373 5.66138 71.1652 5.83072C71.136 5.89968 71.1052 5.96625 71.0724 6.03658C70.9097 6.38719 70.725 6.78458 70.725 7.54077C70.725 8.29697 70.9094 8.69435 71.0724 9.04497C71.223 9.36964 71.3532 9.65026 71.3532 10.2474C71.3532 10.8445 71.223 11.1251 71.0724 11.4498C70.9114 11.7963 70.7295 12.1892 70.7253 12.9287H69.6461L69.6458 12.9284ZM67.9124 12.9284C67.916 12.3487 68.0449 12.0715 68.1933 11.7516C68.3559 11.4009 68.5406 11.0036 68.5406 10.2474C68.5406 9.49117 68.3562 9.09379 68.1933 8.74317C68.0426 8.4185 67.9124 8.13788 67.9124 7.54077C67.9124 6.94367 68.0426 6.66338 68.1933 6.33871C68.242 6.23356 68.2926 6.12466 68.3397 6.00312C68.3397 6.00312 68.3397 6.00278 68.3397 6.00244C68.4413 5.74025 68.5017 5.47669 68.5267 5.17762H69.6023C69.5731 5.44972 69.5111 5.63612 69.4497 5.78633C69.4153 5.87066 69.378 5.95123 69.3387 6.03658C69.176 6.38719 68.9916 6.78458 68.9916 7.54077C68.9916 8.29697 69.176 8.69435 69.339 9.04497C69.4896 9.36964 69.6198 9.65026 69.6198 10.2474C69.6198 10.8445 69.4896 11.1251 69.339 11.4498C69.178 11.7963 68.9962 12.1892 68.9919 12.9287H67.9127L67.9124 12.9284ZM67.8066 5.52141L66.5738 5.48591V5.17762H67.8689C67.8546 5.31282 67.8322 5.42514 67.8066 5.52141ZM77.8751 24.1402H63.1246L62.4061 18.2978H78.5936L77.8751 24.1402ZM80.3455 14.4384H60.6545V13.6163H80.3455V14.4384ZM78.6192 5.83242C78.617 5.83242 78.6147 5.83242 78.6124 5.83242L73.6421 5.68938C73.6807 5.54121 73.7109 5.37359 73.7275 5.17797H80.3455V5.88227L78.6192 5.83276V5.83242Z"
            fill="#FFA858"
          />
          <path
            d="M276.901 3.18455C276.837 3.11968 276.752 3.08452 276.664 3.08725L273.243 3.18557C271.529 1.15938 269.081 0 266.5 0C264.09 0 261.824 0.986978 260.121 2.77863C258.417 4.57028 257.479 6.95289 257.479 9.48674C257.479 10.6782 257.684 11.8335 258.091 12.9284H256.327C256.146 12.9284 256 13.0823 256 13.2725V14.7828C256 14.973 256.146 15.127 256.327 15.127H257.356L257.71 17.9981L258.513 24.5283L258.903 27.6999C258.924 27.8713 259.063 28 259.227 28H273.773C273.937 28 274.076 27.8716 274.097 27.6999L274.487 24.5283L275.29 17.9978L275.644 15.1266H276.673C276.854 15.1266 277 14.9726 277 14.7825V13.2721C277 13.082 276.854 12.928 276.673 12.928H274.909C275.316 11.8328 275.521 10.6775 275.521 9.48639C275.521 8.47415 275.371 7.48342 275.075 6.53365L276.664 6.5794C276.667 6.5794 276.669 6.5794 276.673 6.5794C276.758 6.5794 276.84 6.54458 276.901 6.48176C276.964 6.41689 277 6.32813 277 6.23527V3.43104C277 3.33818 276.964 3.24907 276.901 3.18455H276.901ZM276.345 4.48937H262.574V4.18109L273.108 3.87827L276.346 3.78507V4.48937H276.345ZM268.88 5.87476C268.88 5.87476 268.878 5.87749 268.878 5.87885C268.854 5.93245 268.83 5.98434 268.806 6.03658C268.643 6.38719 268.459 6.78458 268.459 7.54043C268.459 8.29628 268.643 8.69401 268.806 9.04463C268.957 9.36929 269.087 9.64992 269.087 10.247C269.087 10.8441 268.957 11.1248 268.806 11.4494C268.645 11.7963 268.463 12.1885 268.459 12.9284H267.38C267.383 12.3487 267.512 12.0715 267.66 11.7516C267.823 11.4009 268.008 11.0036 268.008 10.2474C268.008 9.49117 267.823 9.09379 267.66 8.74317C267.51 8.4185 267.38 8.13788 267.38 7.54077C267.38 6.94367 267.51 6.66304 267.66 6.33837C267.694 6.266 267.729 6.19089 267.763 6.11169C267.859 5.88397 267.958 5.59891 267.994 5.17797H269.07C269.037 5.49239 268.959 5.69484 268.88 5.8751V5.87476ZM265.646 12.9284C265.649 12.3487 265.778 12.0715 265.927 11.7516C266.089 11.4009 266.274 11.0036 266.274 10.2474C266.274 9.49117 266.09 9.09379 265.927 8.74317C265.776 8.4185 265.646 8.13788 265.646 7.54077C265.646 6.94367 265.776 6.66304 265.927 6.33837C265.968 6.24927 266.011 6.15743 266.051 6.0574C266.133 5.85564 266.225 5.5815 266.26 5.17797H267.336C267.305 5.46474 267.237 5.66138 267.165 5.83072C267.136 5.89968 267.105 5.96625 267.072 6.03658C266.91 6.38719 266.725 6.78458 266.725 7.54077C266.725 8.29697 266.909 8.69435 267.072 9.04497C267.223 9.36964 267.353 9.65026 267.353 10.2474C267.353 10.8445 267.223 11.1251 267.072 11.4498C266.911 11.7963 266.73 12.1892 266.725 12.9287H265.646L265.646 12.9284ZM263.912 12.9284C263.916 12.3487 264.045 12.0715 264.193 11.7516C264.356 11.4009 264.541 11.0036 264.541 10.2474C264.541 9.49117 264.356 9.09379 264.193 8.74317C264.043 8.4185 263.912 8.13788 263.912 7.54077C263.912 6.94367 264.043 6.66338 264.193 6.33871C264.242 6.23356 264.293 6.12466 264.34 6.00312C264.34 6.00312 264.34 6.00278 264.34 6.00244C264.441 5.74025 264.502 5.47669 264.527 5.17762H265.602C265.573 5.44972 265.511 5.63612 265.45 5.78633C265.415 5.87066 265.378 5.95123 265.339 6.03658C265.176 6.38719 264.992 6.78458 264.992 7.54077C264.992 8.29697 265.176 8.69435 265.339 9.04497C265.49 9.36964 265.62 9.65026 265.62 10.2474C265.62 10.8445 265.49 11.1251 265.339 11.4498C265.178 11.7963 264.996 12.1892 264.992 12.9287H263.913L263.912 12.9284ZM263.807 5.52141L262.574 5.48591V5.17762H263.869C263.855 5.31282 263.832 5.42514 263.807 5.52141ZM273.875 24.1402H259.125L258.406 18.2978H274.594L273.875 24.1402ZM276.345 14.4384H256.655V13.6163H276.345V14.4384ZM274.619 5.83242C274.617 5.83242 274.615 5.83242 274.612 5.83242L269.642 5.68938C269.681 5.54121 269.711 5.37359 269.727 5.17797H276.345V5.88227L274.619 5.83276V5.83242Z"
            fill="#FFA858"
          />
          <path
            d="M138.642 10.1363H131.255C130.042 7.00888 126.919 4.92356 123.4 4.91844C123.347 3.61576 122.785 2.3981 121.808 1.47785C120.797 0.525171 119.456 0 118.034 0C117.938 0 117.846 0.0365366 117.779 0.101415C117.712 0.166293 117.674 0.25439 117.676 0.345561C117.693 1.69878 118.26 2.96868 119.271 3.92068C119.874 4.48922 120.595 4.90512 121.38 5.14824C119.907 5.49142 118.557 6.21224 117.457 7.25985C115.873 8.76946 115 10.7766 115 12.9114C115 15.0462 115.873 17.0537 117.457 18.5633C119.041 20.0729 121.147 20.9044 123.387 20.9044C123.424 20.9044 123.461 20.9034 123.498 20.903C122.863 21.6467 122.229 22.2078 121.539 22.6407C120.528 23.2752 119.361 23.6539 117.969 23.7976C117.022 23.8956 116.279 24.1182 115.761 24.4594C115.239 24.8036 114.97 25.2649 115.003 25.7586C115.044 26.378 115.56 26.9695 116.417 27.3816C117.262 27.7873 118.367 28 119.625 28C119.696 28 119.768 27.9993 119.841 27.998C120.518 27.9846 121.19 27.9085 121.843 27.7729C122.47 27.9235 123.167 28 123.92 28C123.992 28 124.064 27.9993 124.137 27.998C124.813 27.9846 125.486 27.9085 126.139 27.7729C126.766 27.9235 127.463 28 128.216 28C128.288 28 128.36 27.9993 128.432 27.998C130.828 27.9522 133.068 27.1436 134.911 25.6589C136.635 24.2695 137.857 22.3887 138.349 20.3639C138.748 18.7245 138.865 17.2043 138.685 15.9682C138.513 14.7765 138.076 13.9372 137.416 13.523V12.3012H138.642C138.839 12.3012 139 12.1482 139 11.9598V10.4778C139 10.2893 138.839 10.1363 138.642 10.1363H138.642ZM121.403 8.70595C121.403 9.15976 121.015 9.52888 120.539 9.52888C120.063 9.52888 119.676 9.15976 119.676 8.70595C119.676 8.25215 120.063 7.88302 120.539 7.88302C121.015 7.88302 121.403 8.25215 121.403 8.70595ZM118.412 0.697268C119.503 0.780585 120.518 1.22278 121.305 1.96341C122.09 2.70337 122.566 3.66459 122.667 4.70093C121.577 4.61795 120.561 4.17576 119.774 3.43478C118.989 2.69483 118.513 1.73361 118.412 0.697268ZM138.284 11.6183H137.058C136.86 11.6183 136.7 11.7713 136.7 11.9598V13.72C136.7 13.8501 136.777 13.9686 136.9 14.0263C137.441 14.2807 137.823 15.0032 137.976 16.0614C138.141 17.1995 138.025 18.6726 137.651 20.2095C137.193 22.092 136.056 23.842 134.448 25.1372C132.733 26.5194 130.647 27.2727 128.418 27.315C127.617 27.3304 126.885 27.2556 126.243 27.0934C126.242 27.0934 126.242 27.0934 126.241 27.0931C126.24 27.0931 126.239 27.0927 126.238 27.0924C126.238 27.0924 126.238 27.0924 126.238 27.0924C125.552 26.9193 124.987 26.6441 124.646 26.3169C124.636 26.3077 124.627 26.2988 124.617 26.2889C124.415 26.0861 124.308 25.8747 124.308 25.6777C124.308 25.2348 124.918 24.6543 126.638 24.4768C126.961 24.4433 127.277 24.3972 127.575 24.3405C129.027 24.065 130.256 23.506 131.332 22.6322C132.418 21.7499 133.228 20.6503 133.877 19.6912C134.078 19.3948 134.244 19.0055 134.387 18.5008C134.521 18.0235 134.623 17.4898 134.721 16.9735C134.979 15.611 135.246 14.2021 136.095 13.9611C136.247 13.918 136.351 13.7849 136.351 13.634V11.9604C136.351 11.772 136.19 11.619 135.993 11.619H132.814C132.616 11.619 132.456 11.772 132.456 11.9604V13.7466C132.456 13.8716 132.528 13.9867 132.643 14.0464C133.513 14.4982 133.922 16.1857 133.687 18.3496C133.566 18.772 133.432 19.0902 133.275 19.3214C131.722 21.6174 130.203 23.1458 127.435 23.6709C127.157 23.7239 126.862 23.7665 126.56 23.798C125.639 23.8932 124.91 24.1066 124.394 24.4324C123.876 24.7592 123.591 25.2017 123.591 25.6777C123.591 26.053 123.766 26.4269 124.096 26.7581C124.11 26.7721 124.124 26.7858 124.138 26.7991C124.322 26.9756 124.547 27.1361 124.807 27.2785C124.58 27.2983 124.351 27.3109 124.122 27.3154C123.322 27.3307 122.59 27.256 121.948 27.0938C121.947 27.0938 121.946 27.0934 121.945 27.0931C121.944 27.0931 121.943 27.0927 121.942 27.0924C121.253 26.9182 120.686 26.641 120.345 26.3118C120.127 26.1018 120.012 25.8826 120.012 25.6777C120.012 25.2345 120.623 24.654 122.342 24.4764C124.078 24.2972 125.516 23.7689 126.741 22.861C127.97 21.9503 128.867 20.7473 129.582 19.6905C129.782 19.3951 129.948 19.0069 130.09 18.5042V18.5036C130.2 18.1146 130.286 17.695 130.363 17.2996C130.363 17.2979 130.363 17.2965 130.364 17.2948C130.364 17.2934 130.364 17.2924 130.364 17.291C130.385 17.1859 130.405 17.08 130.425 16.9741C130.658 15.7476 130.898 14.4794 131.561 14.0659C131.647 14.0126 131.737 13.9747 131.837 13.9505C131.996 13.9119 132.107 13.7757 132.107 13.6196V11.9598C132.107 11.7713 131.947 11.6183 131.749 11.6183H128.571C128.373 11.6183 128.212 11.7713 128.212 11.9598V13.774C128.212 13.8941 128.279 14.0055 128.387 14.0669C129.111 14.4801 129.51 15.7602 129.453 17.4915C129.444 17.7674 129.423 18.0573 129.391 18.3526C129.27 18.773 129.136 19.0902 128.98 19.3207C128.298 20.329 127.446 21.4743 126.302 22.3221C125.185 23.1499 123.864 23.6323 122.265 23.7976C121.344 23.8929 120.615 24.1063 120.099 24.4321C119.581 24.7592 119.296 25.2014 119.296 25.6777C119.296 26.0656 119.482 26.4508 119.835 26.7912C120.021 26.9705 120.249 27.1337 120.512 27.2781C120.285 27.298 120.056 27.3106 119.827 27.315C118.614 27.3379 117.517 27.1453 116.74 26.7718C116.125 26.4761 115.743 26.081 115.718 25.7149C115.697 25.4008 115.952 25.1641 116.169 25.0211C116.456 24.8316 117.016 24.583 118.047 24.4764C119.554 24.3207 120.826 23.9069 121.934 23.211C122.869 22.624 123.7 21.8321 124.551 20.7186C124.784 20.414 125.025 20.078 125.286 19.6908C125.742 19.0168 125.939 17.9777 126.13 16.9728C126.395 15.5728 126.669 14.125 127.58 13.942C127.745 13.9085 127.864 13.7692 127.864 13.608V11.9598C127.864 11.7713 127.703 11.6183 127.505 11.6183H126.28V10.8193H138.284V11.6183ZM134.302 15.4983C134.099 14.5976 133.715 13.9259 133.173 13.5575V12.3009H135.635V13.4007C134.909 13.7401 134.547 14.5521 134.302 15.498V15.4983Z"
            fill="#FFFA87"
          />
          <path
            d="M334.642 10.1363H327.255C326.042 7.00888 322.919 4.92356 319.4 4.91844C319.347 3.61576 318.785 2.3981 317.808 1.47785C316.797 0.525171 315.456 0 314.034 0C313.938 0 313.846 0.0365366 313.779 0.101415C313.712 0.166293 313.674 0.25439 313.676 0.345561C313.693 1.69878 314.26 2.96868 315.271 3.92068C315.874 4.48922 316.595 4.90512 317.38 5.14824C315.907 5.49142 314.557 6.21224 313.457 7.25985C311.873 8.76946 311 10.7766 311 12.9114C311 15.0462 311.873 17.0537 313.457 18.5633C315.041 20.0729 317.147 20.9044 319.387 20.9044C319.424 20.9044 319.461 20.9034 319.498 20.903C318.863 21.6467 318.229 22.2078 317.539 22.6407C316.528 23.2752 315.361 23.6539 313.969 23.7976C313.022 23.8956 312.279 24.1182 311.761 24.4594C311.239 24.8036 310.97 25.2649 311.003 25.7586C311.044 26.378 311.56 26.9695 312.417 27.3816C313.262 27.7873 314.367 28 315.625 28C315.696 28 315.768 27.9993 315.841 27.998C316.518 27.9846 317.19 27.9085 317.843 27.7729C318.47 27.9235 319.167 28 319.92 28C319.992 28 320.064 27.9993 320.137 27.998C320.813 27.9846 321.486 27.9085 322.139 27.7729C322.766 27.9235 323.463 28 324.216 28C324.288 28 324.36 27.9993 324.432 27.998C326.828 27.9522 329.068 27.1436 330.911 25.6589C332.635 24.2695 333.857 22.3887 334.349 20.3639C334.748 18.7245 334.865 17.2043 334.685 15.9682C334.513 14.7765 334.076 13.9372 333.416 13.523V12.3012H334.642C334.839 12.3012 335 12.1482 335 11.9598V10.4778C335 10.2893 334.839 10.1363 334.642 10.1363H334.642ZM317.403 8.70595C317.403 9.15976 317.015 9.52888 316.539 9.52888C316.063 9.52888 315.676 9.15976 315.676 8.70595C315.676 8.25215 316.063 7.88302 316.539 7.88302C317.015 7.88302 317.403 8.25215 317.403 8.70595ZM314.412 0.697268C315.503 0.780585 316.518 1.22278 317.305 1.96341C318.09 2.70337 318.566 3.66459 318.667 4.70093C317.577 4.61795 316.561 4.17576 315.774 3.43478C314.989 2.69483 314.513 1.73361 314.412 0.697268ZM334.284 11.6183H333.058C332.86 11.6183 332.7 11.7713 332.7 11.9598V13.72C332.7 13.8501 332.777 13.9686 332.9 14.0263C333.441 14.2807 333.823 15.0032 333.976 16.0614C334.141 17.1995 334.025 18.6726 333.651 20.2095C333.193 22.092 332.056 23.842 330.448 25.1372C328.733 26.5194 326.647 27.2727 324.418 27.315C323.617 27.3304 322.885 27.2556 322.243 27.0934C322.242 27.0934 322.242 27.0934 322.241 27.0931C322.24 27.0931 322.239 27.0927 322.238 27.0924C322.238 27.0924 322.238 27.0924 322.238 27.0924C321.552 26.9193 320.987 26.6441 320.646 26.3169C320.636 26.3077 320.627 26.2988 320.617 26.2889C320.415 26.0861 320.308 25.8747 320.308 25.6777C320.308 25.2348 320.918 24.6543 322.638 24.4768C322.961 24.4433 323.277 24.3972 323.575 24.3405C325.027 24.065 326.256 23.506 327.332 22.6322C328.418 21.7499 329.228 20.6503 329.877 19.6912C330.078 19.3948 330.244 19.0055 330.387 18.5008C330.521 18.0235 330.623 17.4898 330.721 16.9735C330.979 15.611 331.246 14.2021 332.095 13.9611C332.247 13.918 332.351 13.7849 332.351 13.634V11.9604C332.351 11.772 332.19 11.619 331.993 11.619H328.814C328.616 11.619 328.456 11.772 328.456 11.9604V13.7466C328.456 13.8716 328.528 13.9867 328.643 14.0464C329.513 14.4982 329.922 16.1857 329.687 18.3496C329.566 18.772 329.432 19.0902 329.275 19.3214C327.722 21.6174 326.203 23.1458 323.435 23.6709C323.157 23.7239 322.862 23.7665 322.56 23.798C321.639 23.8932 320.91 24.1066 320.394 24.4324C319.876 24.7592 319.591 25.2017 319.591 25.6777C319.591 26.053 319.766 26.4269 320.096 26.7581C320.11 26.7721 320.124 26.7858 320.138 26.7991C320.322 26.9756 320.547 27.1361 320.807 27.2785C320.58 27.2983 320.351 27.3109 320.122 27.3154C319.322 27.3307 318.59 27.256 317.948 27.0938C317.947 27.0938 317.946 27.0934 317.945 27.0931C317.944 27.0931 317.943 27.0927 317.942 27.0924C317.253 26.9182 316.686 26.641 316.345 26.3118C316.127 26.1018 316.012 25.8826 316.012 25.6777C316.012 25.2345 316.623 24.654 318.342 24.4764C320.078 24.2972 321.516 23.7689 322.741 22.861C323.97 21.9503 324.867 20.7473 325.582 19.6905C325.782 19.3951 325.948 19.0069 326.09 18.5042V18.5036C326.2 18.1146 326.286 17.695 326.363 17.2996C326.363 17.2979 326.363 17.2965 326.364 17.2948C326.364 17.2934 326.364 17.2924 326.364 17.291C326.385 17.1859 326.405 17.08 326.425 16.9741C326.658 15.7476 326.898 14.4794 327.561 14.0659C327.647 14.0126 327.737 13.9747 327.837 13.9505C327.996 13.9119 328.107 13.7757 328.107 13.6196V11.9598C328.107 11.7713 327.947 11.6183 327.749 11.6183H324.571C324.373 11.6183 324.212 11.7713 324.212 11.9598V13.774C324.212 13.8941 324.279 14.0055 324.387 14.0669C325.111 14.4801 325.51 15.7602 325.453 17.4915C325.444 17.7674 325.423 18.0573 325.391 18.3526C325.27 18.773 325.136 19.0902 324.98 19.3207C324.298 20.329 323.446 21.4743 322.302 22.3221C321.185 23.1499 319.864 23.6323 318.265 23.7976C317.344 23.8929 316.615 24.1063 316.099 24.4321C315.581 24.7592 315.296 25.2014 315.296 25.6777C315.296 26.0656 315.482 26.4508 315.835 26.7912C316.021 26.9705 316.249 27.1337 316.512 27.2781C316.285 27.298 316.056 27.3106 315.827 27.315C314.614 27.3379 313.517 27.1453 312.74 26.7718C312.125 26.4761 311.743 26.081 311.718 25.7149C311.697 25.4008 311.952 25.1641 312.169 25.0211C312.456 24.8316 313.016 24.583 314.047 24.4764C315.554 24.3207 316.826 23.9069 317.934 23.211C318.869 22.624 319.7 21.8321 320.551 20.7186C320.784 20.414 321.025 20.078 321.286 19.6908C321.742 19.0168 321.939 17.9777 322.13 16.9728C322.395 15.5728 322.669 14.125 323.58 13.942C323.745 13.9085 323.864 13.7692 323.864 13.608V11.9598C323.864 11.7713 323.703 11.6183 323.505 11.6183H322.28V10.8193H334.284V11.6183ZM330.302 15.4983C330.099 14.5976 329.715 13.9259 329.173 13.5575V12.3009H331.635V13.4007C330.909 13.7401 330.547 14.5521 330.302 15.498V15.4983Z"
            fill="#FFFA87"
          />
          <path
            d="M166.954 14.8543H169.677C169.848 14.8543 169.989 14.7137 169.999 14.5334C170 14.5208 170 14.5061 170 14.4935C170 13.5259 170 12.429 169.743 11.4341C169.465 10.3611 168.938 9.59795 168.139 9.11126C168.233 8.98157 168.32 8.84334 168.4 8.69795C168.678 8.18737 168.838 7.63857 168.848 7.15222C168.859 6.59215 168.675 6.16723 168.328 5.95597C168.068 5.79727 167.75 5.78328 167.415 5.9116C167.018 5.49795 166.519 5.21536 165.975 5.0959C165.861 4.443 165.549 3.84573 165.08 3.39215C164.545 2.87509 163.85 2.5901 163.124 2.5901C163.071 2.5901 163.018 2.59147 162.965 2.59454C162.475 1.56485 161.484 0.912969 160.377 0.912969C160.028 0.912969 159.689 0.977133 159.368 1.10341C158.819 0.40785 158.005 0 157.14 0C156.274 0 155.46 0.40785 154.911 1.10375C154.59 0.977133 154.251 0.912969 153.902 0.912969C152.795 0.912969 151.804 1.56519 151.314 2.59454C151.261 2.59147 151.208 2.5901 151.155 2.5901C150.429 2.5901 149.734 2.87474 149.199 3.39215C148.73 3.84539 148.418 4.44266 148.304 5.0959C146.974 5.38737 146 6.63174 146 8.09249C146 8.92628 146.311 9.70546 146.877 10.2867L146.883 10.2932C146.975 10.3942 149.148 12.8505 149.706 20.1959C149.709 22.2754 150.478 24.2297 151.87 25.7003C153.237 27.1451 155.046 27.9529 156.975 27.9846C157.029 27.9945 157.084 28 157.141 28C157.197 28 157.25 27.9949 157.303 27.9853C158.53 27.9648 159.737 27.6212 160.801 26.9891C161.682 26.4655 162.456 25.7512 163.068 24.902C163.834 26.9754 164.627 27.9863 165.484 27.9863C166.413 27.9863 167.266 26.8014 168.092 24.3638C168.678 22.6345 169.237 20.2724 169.626 17.8833C169.642 17.784 169.616 17.6826 169.555 17.6055C169.493 17.5283 169.403 17.484 169.308 17.484H166.954C166.912 17.484 166.878 17.4481 166.878 17.4038C166.878 17.3594 166.912 17.3235 166.954 17.3235H169.437C169.597 17.3235 169.732 17.2007 169.756 17.0341C169.776 16.8993 169.794 16.7672 169.811 16.6386C169.825 16.5406 169.797 16.4416 169.735 16.3669C169.674 16.2921 169.585 16.2495 169.492 16.2495H166.954C166.912 16.2495 166.878 16.2137 166.878 16.1693C166.878 16.1249 166.912 16.0891 166.954 16.0891H169.593C169.757 16.0891 169.895 15.9584 169.914 15.786C169.928 15.6488 169.941 15.5147 169.952 15.3874C169.96 15.2918 169.93 15.1973 169.869 15.1263C169.808 15.0553 169.721 15.015 169.631 15.015H166.954C166.912 15.015 166.878 14.9792 166.878 14.9348C166.878 14.8904 166.912 14.8546 166.954 14.8546V14.8543ZM157.413 25.4154V27.0754C157.413 27.1802 157.338 27.2693 157.233 27.3031C157.217 27.3031 157.202 27.3038 157.186 27.3038C157.179 27.3038 157.172 27.3038 157.165 27.3034H157.146C157.144 27.3027 157.142 27.3027 157.14 27.3027C157.138 27.3027 157.135 27.3027 157.133 27.3027H157.115C157.108 27.3034 157.101 27.3038 157.093 27.3038C157.078 27.3038 157.064 27.3034 157.049 27.3031C156.944 27.2696 156.869 27.1802 156.869 27.0754V25.4065C156.867 25.3962 156.866 25.386 156.866 25.3758C156.866 25.3642 156.857 24.2154 156.284 22.8116C155.949 21.9921 155.49 21.2471 154.919 20.5966C154.207 19.7857 153.317 19.1195 152.274 18.6164C152.142 18.5526 152.093 18.4055 152.165 18.2881C152.214 18.2072 152.308 18.1614 152.405 18.1614C152.448 18.1614 152.493 18.171 152.534 18.1908C153.648 18.7276 154.597 19.4399 155.357 20.3078C155.963 21.001 156.45 21.7939 156.803 22.6638C156.826 22.7195 156.848 22.7747 156.869 22.8297V21.9208C156.867 21.9106 156.866 21.9003 156.866 21.8901C156.866 21.8785 156.857 20.7297 156.284 19.3259C155.949 18.5065 155.49 17.7614 154.919 17.1109C154.207 16.3 153.317 15.6338 152.274 15.1307C152.142 15.0669 152.093 14.9198 152.165 14.8024C152.214 14.7215 152.308 14.6758 152.405 14.6758C152.448 14.6758 152.493 14.6853 152.534 14.7051C153.648 15.242 154.597 15.9543 155.357 16.8222C155.963 17.5154 156.45 18.3082 156.803 19.1782C156.826 19.2338 156.848 19.2891 156.869 19.344V18.4352C156.867 18.4249 156.866 18.4147 156.866 18.4044C156.866 18.3928 156.857 17.244 156.284 15.8403C155.949 15.0208 155.49 14.2758 154.919 13.6253C154.207 12.8143 153.317 12.1481 152.274 11.6451C152.142 11.5812 152.093 11.4341 152.165 11.3167C152.214 11.2358 152.308 11.1901 152.405 11.1901C152.448 11.1901 152.493 11.1997 152.534 11.2195C153.648 11.7563 154.597 12.4686 155.357 13.3365C155.963 14.0297 156.45 14.8225 156.803 15.6925C156.826 15.7481 156.848 15.8034 156.869 15.8584V14.9495C156.867 14.9392 156.866 14.929 156.866 14.9188C156.866 14.9072 156.857 13.7584 156.284 12.3546C155.949 11.5352 155.49 10.7901 154.919 10.1396C154.207 9.32867 153.317 8.66246 152.274 8.15939C152.142 8.09556 152.093 7.94846 152.165 7.83106C152.214 7.75017 152.308 7.70444 152.405 7.70444C152.448 7.70444 152.493 7.71399 152.534 7.73379C153.648 8.27065 154.597 8.98293 155.357 9.85085C155.963 10.544 156.45 11.3369 156.803 12.2068C156.826 12.2625 156.848 12.3177 156.869 12.3727V4.67065C156.869 4.53686 156.991 4.42833 157.141 4.42833C157.292 4.42833 157.414 4.53686 157.414 4.67065V12.4058C157.434 12.3532 157.455 12.3 157.476 12.2464C157.83 11.3761 158.316 10.5836 158.923 9.89044C159.683 9.02252 160.632 8.31024 161.745 7.77338C161.787 7.75358 161.831 7.74403 161.875 7.74403C161.972 7.74403 162.065 7.78976 162.115 7.87065C162.187 7.98805 162.138 8.13515 162.005 8.19898C160.962 8.70205 160.073 9.36826 159.361 10.1792C158.79 10.8297 158.331 11.5751 157.996 12.3942C157.423 13.798 157.414 14.9468 157.414 14.9584V15.8918C157.434 15.8392 157.455 15.786 157.476 15.7324C157.83 14.8621 158.316 14.0696 158.923 13.3764C159.556 12.6536 160.321 12.0392 161.202 11.5437C161.15 11.759 161.11 11.9788 161.079 12.2003C160.427 12.6157 159.852 13.1061 159.361 13.6652C158.79 14.3157 158.331 15.0611 157.996 15.8802C157.423 17.284 157.414 18.4328 157.414 18.4444V19.3778C157.434 19.3253 157.455 19.272 157.477 19.2184C157.83 18.3481 158.317 17.5556 158.923 16.8625C159.507 16.1959 160.202 15.6215 160.998 15.1474C161.01 15.3198 161.027 15.5072 161.047 15.7072C160.409 16.1181 159.844 16.6014 159.361 17.1512C158.79 17.8017 158.331 18.5471 157.996 19.3662C157.423 20.77 157.414 21.9188 157.414 21.9304V22.8638C157.434 22.8113 157.455 22.758 157.477 22.7044C157.83 21.8341 158.317 21.0416 158.923 20.3485C159.61 19.5642 160.452 18.9075 161.429 18.3918C161.459 18.5621 161.49 18.7348 161.522 18.9089C160.686 19.3754 159.96 19.9549 159.361 20.6372C158.79 21.2877 158.331 22.0331 157.996 22.8522C157.423 24.256 157.414 25.4048 157.414 25.4164L157.413 25.4154ZM158.525 16.3119C158.545 16.2584 158.566 16.2041 158.589 16.1498C158.894 15.402 159.313 14.7218 159.834 14.1283C160.177 13.7382 160.566 13.3843 160.997 13.0683C160.972 13.5174 160.97 13.9625 160.97 14.3857C160.03 14.9044 159.209 15.5502 158.524 16.3119H158.525ZM161.312 17.6911C160.227 18.2375 159.291 18.9454 158.524 19.798C158.545 19.7444 158.566 19.6901 158.588 19.6358C158.894 18.8881 159.313 18.2078 159.834 17.6143C160.212 17.1833 160.647 16.7966 161.133 16.4567C161.182 16.8413 161.242 17.256 161.311 17.6911H161.312ZM161.512 10.6212C161.5 10.6263 161.488 10.6317 161.476 10.6372C160.322 11.1942 159.329 11.93 158.524 12.8256C158.545 12.772 158.566 12.7177 158.588 12.6635C158.894 11.9157 159.313 11.2355 159.834 10.642C160.487 9.89761 161.308 9.28396 162.273 8.81843C162.371 8.77099 162.459 8.70648 162.534 8.62901C162.546 8.65188 162.557 8.67474 162.57 8.69727C162.65 8.84334 162.737 8.98157 162.83 9.11092C162.25 9.46416 161.814 9.96348 161.512 10.6208L161.512 10.6212ZM168.005 6.54676C168.297 6.72457 168.288 7.53584 167.84 8.35597C167.755 8.51092 167.66 8.65631 167.557 8.78839C167.55 8.79761 167.543 8.80648 167.536 8.81536C167.532 8.81365 167.528 8.81229 167.523 8.81058C167.51 8.80546 167.496 8.80034 167.482 8.79556C167.457 8.78635 167.432 8.77713 167.406 8.76792C167.39 8.76246 167.375 8.75734 167.359 8.75222C167.334 8.74403 167.31 8.73584 167.285 8.72799C167.269 8.72287 167.252 8.71809 167.236 8.71297C167.211 8.70546 167.186 8.69795 167.16 8.69078C167.144 8.68601 167.127 8.68157 167.11 8.67713C167.084 8.66997 167.057 8.66314 167.03 8.65631C167.014 8.65222 166.999 8.64812 166.982 8.64437C166.953 8.6372 166.924 8.63072 166.894 8.62423C166.88 8.62116 166.866 8.61775 166.852 8.61468C166.812 8.60614 166.772 8.59829 166.731 8.59044C166.727 8.58976 166.723 8.58874 166.719 8.58805C166.674 8.57952 166.628 8.57167 166.582 8.56416C166.569 8.56211 166.556 8.56041 166.543 8.55836C166.51 8.55324 166.476 8.54812 166.443 8.54369C166.426 8.5413 166.408 8.53925 166.391 8.53686C166.361 8.5331 166.331 8.52935 166.301 8.52594C166.282 8.52389 166.263 8.52184 166.244 8.51979C166.214 8.51672 166.185 8.51399 166.156 8.51126C166.136 8.50956 166.116 8.50785 166.096 8.50614C166.066 8.50375 166.037 8.50136 166.007 8.49932C165.987 8.49795 165.967 8.49659 165.947 8.49522C165.916 8.49352 165.885 8.49181 165.853 8.49044C165.834 8.48942 165.815 8.4884 165.795 8.48771C165.761 8.48635 165.726 8.48532 165.691 8.48464C165.674 8.4843 165.658 8.48362 165.641 8.48328C165.589 8.48225 165.537 8.48157 165.485 8.48157C165.436 8.48157 165.387 8.48191 165.338 8.48293C165.335 8.48293 165.332 8.48293 165.328 8.48293C165.312 8.48293 165.295 8.48396 165.278 8.4843C165.243 8.48532 165.209 8.48601 165.175 8.48737C165.155 8.48805 165.135 8.48908 165.116 8.4901C165.085 8.49147 165.054 8.49317 165.023 8.49488C165.003 8.49625 164.982 8.49761 164.962 8.49898C164.933 8.50102 164.904 8.50307 164.874 8.50546C164.854 8.50717 164.833 8.50887 164.813 8.51058C164.784 8.51331 164.756 8.51604 164.727 8.51911C164.707 8.52116 164.688 8.52321 164.668 8.5256C164.639 8.52901 164.61 8.53242 164.581 8.53618C164.562 8.53857 164.544 8.54061 164.526 8.54334C164.494 8.54778 164.463 8.55256 164.431 8.55734C164.416 8.55973 164.401 8.56177 164.387 8.56416C164.341 8.57167 164.296 8.57918 164.252 8.58771C164.243 8.58942 164.235 8.59113 164.226 8.59283C164.19 8.59966 164.154 8.60682 164.118 8.61433C164.102 8.61775 164.086 8.6215 164.07 8.62526C164.043 8.6314 164.015 8.63754 163.988 8.64403C163.971 8.64846 163.953 8.6529 163.935 8.65734C163.91 8.66382 163.885 8.66996 163.861 8.67679C163.843 8.68157 163.825 8.68669 163.807 8.69181C163.783 8.69863 163.759 8.70546 163.736 8.71263C163.718 8.71809 163.7 8.72321 163.683 8.72901C163.659 8.73652 163.636 8.74403 163.613 8.75154C163.596 8.757 163.579 8.7628 163.562 8.7686C163.538 8.77679 163.514 8.78567 163.491 8.7942C163.475 8.8 163.46 8.80546 163.445 8.81126C163.441 8.81263 163.437 8.81399 163.433 8.81536C163.323 8.67679 163.221 8.52287 163.13 8.35597C163.115 8.33003 163.102 8.3041 163.089 8.27816C162.906 7.92355 162.806 7.57474 162.776 7.28157C162.775 7.26997 162.774 7.25802 162.773 7.24642C162.773 7.243 162.772 7.23959 162.772 7.23618C162.746 6.88362 162.828 6.62969 162.964 6.54642C163.007 6.52048 163.058 6.50785 163.117 6.50785C163.238 6.50785 163.389 6.56212 163.551 6.66655C163.766 6.8099 163.988 7.03413 164.166 7.28328C164.184 7.30956 164.203 7.33584 164.221 7.36348C164.296 7.47816 164.431 7.53208 164.559 7.50034C164.688 7.4686 164.786 7.357 164.805 7.21911C164.91 6.4843 165.233 6.04505 165.485 6.04505C165.736 6.04505 166.059 6.4843 166.164 7.21877C166.184 7.357 166.282 7.46826 166.41 7.5C166.539 7.53174 166.673 7.47747 166.749 7.36314C166.804 7.2802 166.861 7.20136 166.921 7.12764C167.099 6.90683 167.295 6.7314 167.489 6.62184C167.7 6.50239 167.888 6.4744 168.005 6.54607V6.54676ZM166.83 6.27133C166.826 6.2744 166.823 6.27816 166.819 6.28123C166.795 6.30205 166.771 6.32321 166.747 6.34539C166.74 6.35222 166.732 6.35939 166.725 6.36621C166.697 6.39283 166.669 6.41979 166.641 6.44778C166.626 6.40478 166.61 6.36314 166.593 6.32218C166.592 6.32048 166.591 6.31877 166.59 6.31672C166.574 6.27782 166.558 6.23959 166.54 6.20273C166.538 6.2 166.537 6.19761 166.536 6.19488C166.519 6.15904 166.501 6.12389 166.482 6.0901C166.481 6.08703 166.479 6.0843 166.477 6.08123C166.459 6.04778 166.44 6.01536 166.421 5.9843C166.42 5.98293 166.419 5.98157 166.419 5.98055C166.565 6.06075 166.703 6.15836 166.83 6.27133ZM150.353 20.1823C150.353 20.173 150.352 20.1642 150.352 20.1549C149.787 12.6863 147.596 10.0904 147.349 9.82048C147.339 9.80921 147.334 9.80375 147.334 9.80375C147.333 9.80273 147.331 9.80102 147.33 9.8C146.889 9.34812 146.646 8.74164 146.646 8.09249C146.646 6.88771 147.499 5.87235 148.629 5.73072C148.781 5.71195 148.898 5.58396 148.913 5.42389C148.966 4.83788 149.222 4.29488 149.635 3.89556C150.051 3.49386 150.591 3.2727 151.155 3.2727C151.26 3.2727 151.366 3.28055 151.468 3.29556C151.615 3.31741 151.757 3.23072 151.813 3.08498C152.158 2.1802 152.978 1.59522 153.902 1.59522C154.244 1.59522 154.572 1.67372 154.877 1.82867C155.021 1.90171 155.193 1.8529 155.283 1.71433C155.704 1.06792 156.398 0.681911 157.14 0.681911C157.882 0.681911 158.576 1.06792 158.996 1.71433C159.087 1.8529 159.259 1.90137 159.403 1.82833C159.708 1.67338 160.035 1.59488 160.378 1.59488C161.301 1.59488 162.121 2.17952 162.467 3.08464C162.523 3.23003 162.665 3.31672 162.812 3.29488C162.914 3.27952 163.019 3.27201 163.125 3.27201C163.689 3.27201 164.228 3.49317 164.644 3.89488C165.045 4.28225 165.298 4.80478 165.361 5.37099C165.359 5.37099 165.357 5.37167 165.355 5.37201C165.349 5.37304 165.343 5.37406 165.336 5.37509C165.328 5.37645 165.32 5.37816 165.312 5.37952C165.306 5.38089 165.299 5.38225 165.293 5.38362C165.285 5.38532 165.277 5.38737 165.27 5.38942C165.263 5.39113 165.257 5.39283 165.251 5.39454C165.243 5.39659 165.235 5.39898 165.228 5.40136C165.221 5.40341 165.215 5.40546 165.209 5.40751C165.201 5.41024 165.194 5.41297 165.186 5.4157C165.18 5.41809 165.174 5.42014 165.167 5.42253C165.16 5.4256 165.152 5.42867 165.144 5.43208C165.138 5.43447 165.133 5.4372 165.127 5.43959C165.119 5.443 165.111 5.44676 165.103 5.45051C165.098 5.45324 165.092 5.45597 165.086 5.4587C165.078 5.4628 165.07 5.46758 165.061 5.47201C165.056 5.4744 165.051 5.47713 165.047 5.47952C165.034 5.48669 165.021 5.4942 165.008 5.50205C165.003 5.50512 164.998 5.50819 164.994 5.51126C164.986 5.51638 164.977 5.5215 164.97 5.52662C164.964 5.53038 164.958 5.53447 164.953 5.53857C164.945 5.54334 164.939 5.54846 164.932 5.55324C164.926 5.55768 164.92 5.56212 164.914 5.56655C164.907 5.57167 164.901 5.57645 164.894 5.58157C164.888 5.58635 164.882 5.59113 164.876 5.59625C164.87 5.60136 164.864 5.60683 164.858 5.61229C164.852 5.61741 164.846 5.62253 164.84 5.62799C164.834 5.63345 164.828 5.63925 164.822 5.64471C164.816 5.65017 164.81 5.65563 164.804 5.66109C164.798 5.66689 164.792 5.6727 164.786 5.67884C164.78 5.68464 164.775 5.69044 164.769 5.69625C164.763 5.70239 164.757 5.70853 164.751 5.71502C164.746 5.72116 164.74 5.72696 164.735 5.73311C164.729 5.73959 164.723 5.74642 164.717 5.7529C164.712 5.75904 164.706 5.76519 164.701 5.77167C164.695 5.77884 164.689 5.78601 164.683 5.79317C164.678 5.79932 164.673 5.80546 164.668 5.8116C164.661 5.82014 164.654 5.82901 164.648 5.83788C164.643 5.84403 164.639 5.84983 164.634 5.85597C164.625 5.86894 164.615 5.88225 164.606 5.8959C164.601 5.90239 164.597 5.90887 164.592 5.91536C164.587 5.92389 164.581 5.93242 164.575 5.9413C164.57 5.94846 164.566 5.95563 164.561 5.9628C164.556 5.97133 164.551 5.97952 164.545 5.9884C164.541 5.9959 164.536 6.00341 164.532 6.01092C164.526 6.01945 164.521 6.02799 164.516 6.03686C164.512 6.04471 164.507 6.05256 164.503 6.06041C164.498 6.06928 164.493 6.07816 164.488 6.08703C164.484 6.09488 164.479 6.10307 164.475 6.11126C164.47 6.12048 164.465 6.12969 164.461 6.13891C164.457 6.1471 164.453 6.15529 164.449 6.16348C164.444 6.17304 164.439 6.18259 164.434 6.19249C164.431 6.20068 164.427 6.20887 164.423 6.21706C164.418 6.2273 164.413 6.23754 164.409 6.24778C164.405 6.25597 164.401 6.26416 164.398 6.27235C164.393 6.28328 164.389 6.2942 164.384 6.30546C164.38 6.31331 164.377 6.32116 164.374 6.32901C164.369 6.34164 164.364 6.35427 164.359 6.36689C164.356 6.37338 164.353 6.3802 164.351 6.38669C164.343 6.40614 164.336 6.42594 164.329 6.44607C163.764 5.86723 163.119 5.66451 162.641 5.95631C162.468 6.06212 162.335 6.22116 162.247 6.42355C162.165 6.61195 162.123 6.83857 162.122 7.09454C162.043 7.0727 161.96 7.06075 161.874 7.06075C161.737 7.06075 161.6 7.09215 161.476 7.15188C160.284 7.72662 159.266 8.49181 158.448 9.42628C158.312 9.58089 158.183 9.73959 158.059 9.90307V4.66962C158.059 4.15973 157.646 3.74471 157.14 3.74471C156.633 3.74471 156.221 4.15939 156.221 4.66962V9.86655C156.096 9.70205 155.966 9.54198 155.83 9.38635C155.012 8.45188 153.993 7.68635 152.801 7.1116C152.678 7.05222 152.54 7.02048 152.403 7.02048C152.081 7.02048 151.788 7.18464 151.62 7.45938C151.487 7.6785 151.449 7.94642 151.518 8.19454C151.589 8.45085 151.767 8.66382 152.004 8.77884C152.969 9.24437 153.79 9.85802 154.443 10.6024C154.964 11.1959 155.383 11.8758 155.689 12.6239C155.711 12.6785 155.732 12.7324 155.753 12.786C154.948 11.8904 153.956 11.1546 152.801 10.5976C152.678 10.5382 152.54 10.5065 152.403 10.5065C152.081 10.5065 151.788 10.6706 151.62 10.9454C151.486 11.1645 151.449 11.4324 151.518 11.6805C151.589 11.9369 151.766 12.1498 152.004 12.2648C152.969 12.7304 153.789 13.344 154.443 14.0884C154.964 14.6819 155.383 15.3618 155.688 16.1099C155.711 16.1645 155.732 16.2184 155.752 16.272C154.948 15.3764 153.955 14.6406 152.801 14.0836C152.677 14.0242 152.54 13.9925 152.403 13.9925C152.081 13.9925 151.788 14.1567 151.62 14.4314C151.486 14.6505 151.449 14.9184 151.517 15.1666C151.589 15.4229 151.766 15.6358 152.004 15.7509C152.969 16.2164 153.789 16.83 154.443 17.5744C154.963 18.1679 155.383 18.8478 155.688 19.5959C155.71 19.6505 155.732 19.7044 155.752 19.758C154.947 18.8625 153.955 18.1266 152.8 17.5696C152.677 17.5099 152.539 17.4785 152.402 17.4785C152.08 17.4785 151.787 17.6427 151.619 17.9177C151.485 18.1369 151.448 18.4048 151.517 18.6529C151.588 18.9092 151.765 19.1222 152.003 19.2372C152.968 19.7027 153.789 20.3164 154.442 21.0607C154.963 21.6543 155.382 22.3341 155.687 23.0823C156.193 24.3195 156.216 25.3474 156.217 25.3809C156.217 25.4014 156.218 25.4222 156.219 25.4427V27.0758C156.219 27.1345 156.225 27.1915 156.236 27.2471C152.921 26.802 150.35 23.8034 150.35 20.1826L150.353 20.1823ZM158.043 27.2468C158.053 27.1911 158.059 27.1338 158.059 27.0754V25.4195C158.06 25.3741 158.086 24.3512 158.589 23.1215C158.894 22.3737 159.313 21.6935 159.834 21.1C160.343 20.5201 160.954 20.0201 161.655 19.6072C161.961 21.1491 162.353 22.7659 162.798 24.1259C161.702 25.8648 159.974 26.9884 158.043 27.2464V27.2468Z"
            fill="#85FF8A"
          />
          <path
            d="M362.954 14.8543H365.677C365.848 14.8543 365.989 14.7137 365.999 14.5334C366 14.5208 366 14.5061 366 14.4935C366 13.5259 366 12.429 365.743 11.4341C365.465 10.3611 364.938 9.59795 364.139 9.11126C364.233 8.98157 364.32 8.84334 364.4 8.69795C364.678 8.18737 364.838 7.63857 364.848 7.15222C364.859 6.59215 364.675 6.16723 364.328 5.95597C364.068 5.79727 363.75 5.78328 363.415 5.9116C363.018 5.49795 362.519 5.21536 361.975 5.0959C361.861 4.443 361.549 3.84573 361.08 3.39215C360.545 2.87509 359.85 2.5901 359.124 2.5901C359.071 2.5901 359.018 2.59147 358.965 2.59454C358.475 1.56485 357.484 0.912969 356.377 0.912969C356.028 0.912969 355.689 0.977133 355.368 1.10341C354.819 0.40785 354.005 0 353.14 0C352.274 0 351.46 0.40785 350.911 1.10375C350.59 0.977133 350.251 0.912969 349.902 0.912969C348.795 0.912969 347.804 1.56519 347.314 2.59454C347.261 2.59147 347.208 2.5901 347.155 2.5901C346.429 2.5901 345.734 2.87474 345.199 3.39215C344.73 3.84539 344.418 4.44266 344.304 5.0959C342.974 5.38737 342 6.63174 342 8.09249C342 8.92628 342.311 9.70546 342.877 10.2867L342.883 10.2932C342.975 10.3942 345.148 12.8505 345.706 20.1959C345.709 22.2754 346.478 24.2297 347.87 25.7003C349.237 27.1451 351.046 27.9529 352.975 27.9846C353.029 27.9945 353.084 28 353.141 28C353.197 28 353.25 27.9949 353.303 27.9853C354.53 27.9648 355.737 27.6212 356.801 26.9891C357.682 26.4655 358.456 25.7512 359.068 24.902C359.834 26.9754 360.627 27.9863 361.484 27.9863C362.413 27.9863 363.266 26.8014 364.092 24.3638C364.678 22.6345 365.237 20.2724 365.626 17.8833C365.642 17.784 365.616 17.6826 365.555 17.6055C365.493 17.5283 365.403 17.484 365.308 17.484H362.954C362.912 17.484 362.878 17.4481 362.878 17.4038C362.878 17.3594 362.912 17.3235 362.954 17.3235H365.437C365.597 17.3235 365.732 17.2007 365.756 17.0341C365.776 16.8993 365.794 16.7672 365.811 16.6386C365.825 16.5406 365.797 16.4416 365.735 16.3669C365.674 16.2921 365.585 16.2495 365.492 16.2495H362.954C362.912 16.2495 362.878 16.2137 362.878 16.1693C362.878 16.1249 362.912 16.0891 362.954 16.0891H365.593C365.757 16.0891 365.895 15.9584 365.914 15.786C365.928 15.6488 365.941 15.5147 365.952 15.3874C365.96 15.2918 365.93 15.1973 365.869 15.1263C365.808 15.0553 365.721 15.015 365.631 15.015H362.954C362.912 15.015 362.878 14.9792 362.878 14.9348C362.878 14.8904 362.912 14.8546 362.954 14.8546V14.8543ZM353.413 25.4154V27.0754C353.413 27.1802 353.338 27.2693 353.233 27.3031C353.217 27.3031 353.202 27.3038 353.186 27.3038C353.179 27.3038 353.172 27.3038 353.165 27.3034H353.146C353.144 27.3027 353.142 27.3027 353.14 27.3027C353.138 27.3027 353.135 27.3027 353.133 27.3027H353.115C353.108 27.3034 353.101 27.3038 353.093 27.3038C353.078 27.3038 353.064 27.3034 353.049 27.3031C352.944 27.2696 352.869 27.1802 352.869 27.0754V25.4065C352.867 25.3962 352.866 25.386 352.866 25.3758C352.866 25.3642 352.857 24.2154 352.284 22.8116C351.949 21.9921 351.49 21.2471 350.919 20.5966C350.207 19.7857 349.317 19.1195 348.274 18.6164C348.142 18.5526 348.093 18.4055 348.165 18.2881C348.214 18.2072 348.308 18.1614 348.405 18.1614C348.448 18.1614 348.493 18.171 348.534 18.1908C349.648 18.7276 350.597 19.4399 351.357 20.3078C351.963 21.001 352.45 21.7939 352.803 22.6638C352.826 22.7195 352.848 22.7747 352.869 22.8297V21.9208C352.867 21.9106 352.866 21.9003 352.866 21.8901C352.866 21.8785 352.857 20.7297 352.284 19.3259C351.949 18.5065 351.49 17.7614 350.919 17.1109C350.207 16.3 349.317 15.6338 348.274 15.1307C348.142 15.0669 348.093 14.9198 348.165 14.8024C348.214 14.7215 348.308 14.6758 348.405 14.6758C348.448 14.6758 348.493 14.6853 348.534 14.7051C349.648 15.242 350.597 15.9543 351.357 16.8222C351.963 17.5154 352.45 18.3082 352.803 19.1782C352.826 19.2338 352.848 19.2891 352.869 19.344V18.4352C352.867 18.4249 352.866 18.4147 352.866 18.4044C352.866 18.3928 352.857 17.244 352.284 15.8403C351.949 15.0208 351.49 14.2758 350.919 13.6253C350.207 12.8143 349.317 12.1481 348.274 11.6451C348.142 11.5812 348.093 11.4341 348.165 11.3167C348.214 11.2358 348.308 11.1901 348.405 11.1901C348.448 11.1901 348.493 11.1997 348.534 11.2195C349.648 11.7563 350.597 12.4686 351.357 13.3365C351.963 14.0297 352.45 14.8225 352.803 15.6925C352.826 15.7481 352.848 15.8034 352.869 15.8584V14.9495C352.867 14.9392 352.866 14.929 352.866 14.9188C352.866 14.9072 352.857 13.7584 352.284 12.3546C351.949 11.5352 351.49 10.7901 350.919 10.1396C350.207 9.32867 349.317 8.66246 348.274 8.15939C348.142 8.09556 348.093 7.94846 348.165 7.83106C348.214 7.75017 348.308 7.70444 348.405 7.70444C348.448 7.70444 348.493 7.71399 348.534 7.73379C349.648 8.27065 350.597 8.98293 351.357 9.85085C351.963 10.544 352.45 11.3369 352.803 12.2068C352.826 12.2625 352.848 12.3177 352.869 12.3727V4.67065C352.869 4.53686 352.991 4.42833 353.141 4.42833C353.292 4.42833 353.414 4.53686 353.414 4.67065V12.4058C353.434 12.3532 353.455 12.3 353.476 12.2464C353.83 11.3761 354.316 10.5836 354.923 9.89044C355.683 9.02252 356.632 8.31024 357.745 7.77338C357.787 7.75358 357.831 7.74403 357.875 7.74403C357.972 7.74403 358.065 7.78976 358.115 7.87065C358.187 7.98805 358.138 8.13515 358.005 8.19898C356.962 8.70205 356.073 9.36826 355.361 10.1792C354.79 10.8297 354.331 11.5751 353.996 12.3942C353.423 13.798 353.414 14.9468 353.414 14.9584V15.8918C353.434 15.8392 353.455 15.786 353.476 15.7324C353.83 14.8621 354.316 14.0696 354.923 13.3764C355.556 12.6536 356.321 12.0392 357.202 11.5437C357.15 11.759 357.11 11.9788 357.079 12.2003C356.427 12.6157 355.852 13.1061 355.361 13.6652C354.79 14.3157 354.331 15.0611 353.996 15.8802C353.423 17.284 353.414 18.4328 353.414 18.4444V19.3778C353.434 19.3253 353.455 19.272 353.477 19.2184C353.83 18.3481 354.317 17.5556 354.923 16.8625C355.507 16.1959 356.202 15.6215 356.998 15.1474C357.01 15.3198 357.027 15.5072 357.047 15.7072C356.409 16.1181 355.844 16.6014 355.361 17.1512C354.79 17.8017 354.331 18.5471 353.996 19.3662C353.423 20.77 353.414 21.9188 353.414 21.9304V22.8638C353.434 22.8113 353.455 22.758 353.477 22.7044C353.83 21.8341 354.317 21.0416 354.923 20.3485C355.61 19.5642 356.452 18.9075 357.429 18.3918C357.459 18.5621 357.49 18.7348 357.522 18.9089C356.686 19.3754 355.96 19.9549 355.361 20.6372C354.79 21.2877 354.331 22.0331 353.996 22.8522C353.423 24.256 353.414 25.4048 353.414 25.4164L353.413 25.4154ZM354.525 16.3119C354.545 16.2584 354.566 16.2041 354.589 16.1498C354.894 15.402 355.313 14.7218 355.834 14.1283C356.177 13.7382 356.566 13.3843 356.997 13.0683C356.972 13.5174 356.97 13.9625 356.97 14.3857C356.03 14.9044 355.209 15.5502 354.524 16.3119H354.525ZM357.312 17.6911C356.227 18.2375 355.291 18.9454 354.524 19.798C354.545 19.7444 354.566 19.6901 354.588 19.6358C354.894 18.8881 355.313 18.2078 355.834 17.6143C356.212 17.1833 356.647 16.7966 357.133 16.4567C357.182 16.8413 357.242 17.256 357.311 17.6911H357.312ZM357.512 10.6212C357.5 10.6263 357.488 10.6317 357.476 10.6372C356.322 11.1942 355.329 11.93 354.524 12.8256C354.545 12.772 354.566 12.7177 354.588 12.6635C354.894 11.9157 355.313 11.2355 355.834 10.642C356.487 9.89761 357.308 9.28396 358.273 8.81843C358.371 8.77099 358.459 8.70648 358.534 8.62901C358.546 8.65188 358.557 8.67474 358.57 8.69727C358.65 8.84334 358.737 8.98157 358.83 9.11092C358.25 9.46416 357.814 9.96348 357.512 10.6208L357.512 10.6212ZM364.005 6.54676C364.297 6.72457 364.288 7.53584 363.84 8.35597C363.755 8.51092 363.66 8.65631 363.557 8.78839C363.55 8.79761 363.543 8.80648 363.536 8.81536C363.532 8.81365 363.528 8.81229 363.523 8.81058C363.51 8.80546 363.496 8.80034 363.482 8.79556C363.457 8.78635 363.432 8.77713 363.406 8.76792C363.39 8.76246 363.375 8.75734 363.359 8.75222C363.334 8.74403 363.31 8.73584 363.285 8.72799C363.269 8.72287 363.252 8.71809 363.236 8.71297C363.211 8.70546 363.186 8.69795 363.16 8.69078C363.144 8.68601 363.127 8.68157 363.11 8.67713C363.084 8.66997 363.057 8.66314 363.03 8.65631C363.014 8.65222 362.999 8.64812 362.982 8.64437C362.953 8.6372 362.924 8.63072 362.894 8.62423C362.88 8.62116 362.866 8.61775 362.852 8.61468C362.812 8.60614 362.772 8.59829 362.731 8.59044C362.727 8.58976 362.723 8.58874 362.719 8.58805C362.674 8.57952 362.628 8.57167 362.582 8.56416C362.569 8.56211 362.556 8.56041 362.543 8.55836C362.51 8.55324 362.476 8.54812 362.443 8.54369C362.426 8.5413 362.408 8.53925 362.391 8.53686C362.361 8.5331 362.331 8.52935 362.301 8.52594C362.282 8.52389 362.263 8.52184 362.244 8.51979C362.214 8.51672 362.185 8.51399 362.156 8.51126C362.136 8.50956 362.116 8.50785 362.096 8.50614C362.066 8.50375 362.037 8.50136 362.007 8.49932C361.987 8.49795 361.967 8.49659 361.947 8.49522C361.916 8.49352 361.885 8.49181 361.853 8.49044C361.834 8.48942 361.815 8.4884 361.795 8.48771C361.761 8.48635 361.726 8.48532 361.691 8.48464C361.674 8.4843 361.658 8.48362 361.641 8.48328C361.589 8.48225 361.537 8.48157 361.485 8.48157C361.436 8.48157 361.387 8.48191 361.338 8.48293C361.335 8.48293 361.332 8.48293 361.328 8.48293C361.312 8.48293 361.295 8.48396 361.278 8.4843C361.243 8.48532 361.209 8.48601 361.175 8.48737C361.155 8.48805 361.135 8.48908 361.116 8.4901C361.085 8.49147 361.054 8.49317 361.023 8.49488C361.003 8.49625 360.982 8.49761 360.962 8.49898C360.933 8.50102 360.904 8.50307 360.874 8.50546C360.854 8.50717 360.833 8.50887 360.813 8.51058C360.784 8.51331 360.756 8.51604 360.727 8.51911C360.707 8.52116 360.688 8.52321 360.668 8.5256C360.639 8.52901 360.61 8.53242 360.581 8.53618C360.562 8.53857 360.544 8.54061 360.526 8.54334C360.494 8.54778 360.463 8.55256 360.431 8.55734C360.416 8.55973 360.401 8.56177 360.387 8.56416C360.341 8.57167 360.296 8.57918 360.252 8.58771C360.243 8.58942 360.235 8.59113 360.226 8.59283C360.19 8.59966 360.154 8.60682 360.118 8.61433C360.102 8.61775 360.086 8.6215 360.07 8.62526C360.043 8.6314 360.015 8.63754 359.988 8.64403C359.971 8.64846 359.953 8.6529 359.935 8.65734C359.91 8.66382 359.885 8.66996 359.861 8.67679C359.843 8.68157 359.825 8.68669 359.807 8.69181C359.783 8.69863 359.759 8.70546 359.736 8.71263C359.718 8.71809 359.7 8.72321 359.683 8.72901C359.659 8.73652 359.636 8.74403 359.613 8.75154C359.596 8.757 359.579 8.7628 359.562 8.7686C359.538 8.77679 359.514 8.78567 359.491 8.7942C359.475 8.8 359.46 8.80546 359.445 8.81126C359.441 8.81263 359.437 8.81399 359.433 8.81536C359.323 8.67679 359.221 8.52287 359.13 8.35597C359.115 8.33003 359.102 8.3041 359.089 8.27816C358.906 7.92355 358.806 7.57474 358.776 7.28157C358.775 7.26997 358.774 7.25802 358.773 7.24642C358.773 7.243 358.772 7.23959 358.772 7.23618C358.746 6.88362 358.828 6.62969 358.964 6.54642C359.007 6.52048 359.058 6.50785 359.117 6.50785C359.238 6.50785 359.389 6.56212 359.551 6.66655C359.766 6.8099 359.988 7.03413 360.166 7.28328C360.184 7.30956 360.203 7.33584 360.221 7.36348C360.296 7.47816 360.431 7.53208 360.559 7.50034C360.688 7.4686 360.786 7.357 360.805 7.21911C360.91 6.4843 361.233 6.04505 361.485 6.04505C361.736 6.04505 362.059 6.4843 362.164 7.21877C362.184 7.357 362.282 7.46826 362.41 7.5C362.539 7.53174 362.673 7.47747 362.749 7.36314C362.804 7.2802 362.861 7.20136 362.921 7.12764C363.099 6.90683 363.295 6.7314 363.489 6.62184C363.7 6.50239 363.888 6.4744 364.005 6.54607V6.54676ZM362.83 6.27133C362.826 6.2744 362.823 6.27816 362.819 6.28123C362.795 6.30205 362.771 6.32321 362.747 6.34539C362.74 6.35222 362.732 6.35939 362.725 6.36621C362.697 6.39283 362.669 6.41979 362.641 6.44778C362.626 6.40478 362.61 6.36314 362.593 6.32218C362.592 6.32048 362.591 6.31877 362.59 6.31672C362.574 6.27782 362.558 6.23959 362.54 6.20273C362.538 6.2 362.537 6.19761 362.536 6.19488C362.519 6.15904 362.501 6.12389 362.482 6.0901C362.481 6.08703 362.479 6.0843 362.477 6.08123C362.459 6.04778 362.44 6.01536 362.421 5.9843C362.42 5.98293 362.419 5.98157 362.419 5.98055C362.565 6.06075 362.703 6.15836 362.83 6.27133ZM346.353 20.1823C346.353 20.173 346.352 20.1642 346.352 20.1549C345.787 12.6863 343.596 10.0904 343.349 9.82048C343.339 9.80921 343.334 9.80375 343.334 9.80375C343.333 9.80273 343.331 9.80102 343.33 9.8C342.889 9.34812 342.646 8.74164 342.646 8.09249C342.646 6.88771 343.499 5.87235 344.629 5.73072C344.781 5.71195 344.898 5.58396 344.913 5.42389C344.966 4.83788 345.222 4.29488 345.635 3.89556C346.051 3.49386 346.591 3.2727 347.155 3.2727C347.26 3.2727 347.366 3.28055 347.468 3.29556C347.615 3.31741 347.757 3.23072 347.813 3.08498C348.158 2.1802 348.978 1.59522 349.902 1.59522C350.244 1.59522 350.572 1.67372 350.877 1.82867C351.021 1.90171 351.193 1.8529 351.283 1.71433C351.704 1.06792 352.398 0.681911 353.14 0.681911C353.882 0.681911 354.576 1.06792 354.996 1.71433C355.087 1.8529 355.259 1.90137 355.403 1.82833C355.708 1.67338 356.035 1.59488 356.378 1.59488C357.301 1.59488 358.121 2.17952 358.467 3.08464C358.523 3.23003 358.665 3.31672 358.812 3.29488C358.914 3.27952 359.019 3.27201 359.125 3.27201C359.689 3.27201 360.228 3.49317 360.644 3.89488C361.045 4.28225 361.298 4.80478 361.361 5.37099C361.359 5.37099 361.357 5.37167 361.355 5.37201C361.349 5.37304 361.343 5.37406 361.336 5.37509C361.328 5.37645 361.32 5.37816 361.312 5.37952C361.306 5.38089 361.299 5.38225 361.293 5.38362C361.285 5.38532 361.277 5.38737 361.27 5.38942C361.263 5.39113 361.257 5.39283 361.251 5.39454C361.243 5.39659 361.235 5.39898 361.228 5.40136C361.221 5.40341 361.215 5.40546 361.209 5.40751C361.201 5.41024 361.194 5.41297 361.186 5.4157C361.18 5.41809 361.174 5.42014 361.167 5.42253C361.16 5.4256 361.152 5.42867 361.144 5.43208C361.138 5.43447 361.133 5.4372 361.127 5.43959C361.119 5.443 361.111 5.44676 361.103 5.45051C361.098 5.45324 361.092 5.45597 361.086 5.4587C361.078 5.4628 361.07 5.46758 361.061 5.47201C361.056 5.4744 361.051 5.47713 361.047 5.47952C361.034 5.48669 361.021 5.4942 361.008 5.50205C361.003 5.50512 360.998 5.50819 360.994 5.51126C360.986 5.51638 360.977 5.5215 360.97 5.52662C360.964 5.53038 360.958 5.53447 360.953 5.53857C360.945 5.54334 360.939 5.54846 360.932 5.55324C360.926 5.55768 360.92 5.56212 360.914 5.56655C360.907 5.57167 360.901 5.57645 360.894 5.58157C360.888 5.58635 360.882 5.59113 360.876 5.59625C360.87 5.60136 360.864 5.60683 360.858 5.61229C360.852 5.61741 360.846 5.62253 360.84 5.62799C360.834 5.63345 360.828 5.63925 360.822 5.64471C360.816 5.65017 360.81 5.65563 360.804 5.66109C360.798 5.66689 360.792 5.6727 360.786 5.67884C360.78 5.68464 360.775 5.69044 360.769 5.69625C360.763 5.70239 360.757 5.70853 360.751 5.71502C360.746 5.72116 360.74 5.72696 360.735 5.73311C360.729 5.73959 360.723 5.74642 360.717 5.7529C360.712 5.75904 360.706 5.76519 360.701 5.77167C360.695 5.77884 360.689 5.78601 360.683 5.79317C360.678 5.79932 360.673 5.80546 360.668 5.8116C360.661 5.82014 360.654 5.82901 360.648 5.83788C360.643 5.84403 360.639 5.84983 360.634 5.85597C360.625 5.86894 360.615 5.88225 360.606 5.8959C360.601 5.90239 360.597 5.90887 360.592 5.91536C360.587 5.92389 360.581 5.93242 360.575 5.9413C360.57 5.94846 360.566 5.95563 360.561 5.9628C360.556 5.97133 360.551 5.97952 360.545 5.9884C360.541 5.9959 360.536 6.00341 360.532 6.01092C360.526 6.01945 360.521 6.02799 360.516 6.03686C360.512 6.04471 360.507 6.05256 360.503 6.06041C360.498 6.06928 360.493 6.07816 360.488 6.08703C360.484 6.09488 360.479 6.10307 360.475 6.11126C360.47 6.12048 360.465 6.12969 360.461 6.13891C360.457 6.1471 360.453 6.15529 360.449 6.16348C360.444 6.17304 360.439 6.18259 360.434 6.19249C360.431 6.20068 360.427 6.20887 360.423 6.21706C360.418 6.2273 360.413 6.23754 360.409 6.24778C360.405 6.25597 360.401 6.26416 360.398 6.27235C360.393 6.28328 360.389 6.2942 360.384 6.30546C360.38 6.31331 360.377 6.32116 360.374 6.32901C360.369 6.34164 360.364 6.35427 360.359 6.36689C360.356 6.37338 360.353 6.3802 360.351 6.38669C360.343 6.40614 360.336 6.42594 360.329 6.44607C359.764 5.86723 359.119 5.66451 358.641 5.95631C358.468 6.06212 358.335 6.22116 358.247 6.42355C358.165 6.61195 358.123 6.83857 358.122 7.09454C358.043 7.0727 357.96 7.06075 357.874 7.06075C357.737 7.06075 357.6 7.09215 357.476 7.15188C356.284 7.72662 355.266 8.49181 354.448 9.42628C354.312 9.58089 354.183 9.73959 354.059 9.90307V4.66962C354.059 4.15973 353.646 3.74471 353.14 3.74471C352.633 3.74471 352.221 4.15939 352.221 4.66962V9.86655C352.096 9.70205 351.966 9.54198 351.83 9.38635C351.012 8.45188 349.993 7.68635 348.801 7.1116C348.678 7.05222 348.54 7.02048 348.403 7.02048C348.081 7.02048 347.788 7.18464 347.62 7.45938C347.487 7.6785 347.449 7.94642 347.518 8.19454C347.589 8.45085 347.767 8.66382 348.004 8.77884C348.969 9.24437 349.79 9.85802 350.443 10.6024C350.964 11.1959 351.383 11.8758 351.689 12.6239C351.711 12.6785 351.732 12.7324 351.753 12.786C350.948 11.8904 349.956 11.1546 348.801 10.5976C348.678 10.5382 348.54 10.5065 348.403 10.5065C348.081 10.5065 347.788 10.6706 347.62 10.9454C347.486 11.1645 347.449 11.4324 347.518 11.6805C347.589 11.9369 347.766 12.1498 348.004 12.2648C348.969 12.7304 349.789 13.344 350.443 14.0884C350.964 14.6819 351.383 15.3618 351.688 16.1099C351.711 16.1645 351.732 16.2184 351.752 16.272C350.948 15.3764 349.955 14.6406 348.801 14.0836C348.677 14.0242 348.54 13.9925 348.403 13.9925C348.081 13.9925 347.788 14.1567 347.62 14.4314C347.486 14.6505 347.449 14.9184 347.517 15.1666C347.589 15.4229 347.766 15.6358 348.004 15.7509C348.969 16.2164 349.789 16.83 350.443 17.5744C350.963 18.1679 351.383 18.8478 351.688 19.5959C351.71 19.6505 351.732 19.7044 351.752 19.758C350.947 18.8625 349.955 18.1266 348.8 17.5696C348.677 17.5099 348.539 17.4785 348.402 17.4785C348.08 17.4785 347.787 17.6427 347.619 17.9177C347.485 18.1369 347.448 18.4048 347.517 18.6529C347.588 18.9092 347.765 19.1222 348.003 19.2372C348.968 19.7027 349.789 20.3164 350.442 21.0607C350.963 21.6543 351.382 22.3341 351.687 23.0823C352.193 24.3195 352.216 25.3474 352.217 25.3809C352.217 25.4014 352.218 25.4222 352.219 25.4427V27.0758C352.219 27.1345 352.225 27.1915 352.236 27.2471C348.921 26.802 346.35 23.8034 346.35 20.1826L346.353 20.1823ZM354.043 27.2468C354.053 27.1911 354.059 27.1338 354.059 27.0754V25.4195C354.06 25.3741 354.086 24.3512 354.589 23.1215C354.894 22.3737 355.313 21.6935 355.834 21.1C356.343 20.5201 356.954 20.0201 357.655 19.6072C357.961 21.1491 358.353 22.7659 358.798 24.1259C357.702 25.8648 355.974 26.9884 354.043 27.2464V27.2468Z"
            fill="#85FF8A"
          />
          <path
            d="M186.401 22.8383C186.154 22.7621 185.899 22.7042 185.643 22.6668C185.614 22.6625 185.584 22.6625 185.555 22.6668C185.3 22.7042 185.045 22.7618 184.797 22.8383C183.763 23.1568 182.834 23.8119 182.181 24.6832C181.506 25.5843 181.15 26.6579 181.15 27.7878C181.15 27.9556 181.286 28.0917 181.453 28.0917C182.352 28.0917 183.237 27.8566 184.013 27.4124C184.633 27.0578 185.174 26.5762 185.599 26.0044C186.025 26.5762 186.566 27.0582 187.185 27.4124C187.961 27.8566 188.847 28.0917 189.745 28.0917C189.913 28.0917 190.049 27.9556 190.049 27.7878C190.049 26.6579 189.692 25.5843 189.017 24.6832C188.364 23.8119 187.435 23.1564 186.401 22.8383Z"
            fill="#FF89C1"
          />
          <path
            d="M192.281 11.9558C191.731 11.1603 190.981 10.5409 190.102 10.1559C189.938 8.50958 189.509 6.91625 188.823 5.41759C188.087 3.80836 187.074 2.35208 185.814 1.08913C185.695 0.970288 185.503 0.970288 185.385 1.08913C184.124 2.35208 183.112 3.80836 182.375 5.41759C181.689 6.91658 181.26 8.50991 181.097 10.1562C180.218 10.5412 179.467 11.1603 178.917 11.9561C178.317 12.8235 178 13.8418 178 14.9008C178 14.9812 178.032 15.0587 178.089 15.1156C178.146 15.1726 178.223 15.2047 178.303 15.2047C179.363 15.2047 180.393 14.878 181.255 14.2768C181.501 15.6582 181.937 16.992 182.556 18.2484C183.275 19.707 184.226 21.0348 185.384 22.1958C185.444 22.255 185.521 22.2848 185.599 22.2848C185.677 22.2848 185.754 22.255 185.813 22.1958C186.972 21.0351 187.923 19.707 188.642 18.2484C189.261 16.992 189.697 15.6582 189.943 14.2768C190.805 14.878 191.835 15.2047 192.894 15.2047C193.062 15.2047 193.198 15.0686 193.198 14.9008C193.198 13.8418 192.881 12.8231 192.281 11.9558H192.281ZM186.417 4.91109C186.802 4.91109 187.114 5.22393 187.114 5.6096C187.114 5.99527 186.802 6.30844 186.417 6.30844C186.032 6.30844 185.719 5.9956 185.719 5.6096C185.719 5.2236 186.032 4.91109 186.417 4.91109ZM187.404 6.88612C187.543 6.79144 187.731 6.82686 187.826 6.96557C187.92 7.10428 187.884 7.29331 187.746 7.38799C187.112 7.82199 186.37 8.05141 185.599 8.05141C184.829 8.05141 184.086 7.82199 183.452 7.38799C183.314 7.29331 183.278 7.10428 183.373 6.96557C183.467 6.82686 183.656 6.79144 183.794 6.88612C184.327 7.2506 184.951 7.44361 185.599 7.44361C186.247 7.44361 186.871 7.2506 187.404 6.88612Z"
            fill="#FF89C1"
          />
          <path
            d="M382.401 22.8383C382.154 22.7621 381.899 22.7042 381.643 22.6668C381.614 22.6625 381.584 22.6625 381.555 22.6668C381.3 22.7042 381.045 22.7618 380.797 22.8383C379.763 23.1568 378.834 23.8119 378.181 24.6832C377.506 25.5843 377.15 26.6579 377.15 27.7878C377.15 27.9556 377.286 28.0917 377.453 28.0917C378.352 28.0917 379.237 27.8566 380.013 27.4124C380.633 27.0578 381.174 26.5762 381.599 26.0044C382.025 26.5762 382.566 27.0582 383.185 27.4124C383.961 27.8566 384.847 28.0917 385.745 28.0917C385.913 28.0917 386.049 27.9556 386.049 27.7878C386.049 26.6579 385.692 25.5843 385.017 24.6832C384.364 23.8119 383.435 23.1564 382.401 22.8383Z"
            fill="#FF89C1"
          />
          <path
            d="M388.281 11.9558C387.731 11.1603 386.981 10.5409 386.102 10.1559C385.938 8.50958 385.509 6.91625 384.823 5.41759C384.087 3.80836 383.074 2.35208 381.814 1.08913C381.695 0.970288 381.503 0.970288 381.385 1.08913C380.124 2.35208 379.112 3.80836 378.375 5.41759C377.689 6.91658 377.26 8.50991 377.097 10.1562C376.218 10.5412 375.467 11.1603 374.917 11.9561C374.317 12.8235 374 13.8418 374 14.9008C374 14.9812 374.032 15.0587 374.089 15.1156C374.146 15.1726 374.223 15.2047 374.303 15.2047C375.363 15.2047 376.393 14.878 377.255 14.2768C377.501 15.6582 377.937 16.992 378.556 18.2484C379.275 19.707 380.226 21.0348 381.384 22.1958C381.444 22.255 381.521 22.2848 381.599 22.2848C381.677 22.2848 381.754 22.255 381.813 22.1958C382.972 21.0351 383.923 19.707 384.642 18.2484C385.261 16.992 385.697 15.6582 385.943 14.2768C386.805 14.878 387.835 15.2047 388.894 15.2047C389.062 15.2047 389.198 15.0686 389.198 14.9008C389.198 13.8418 388.881 12.8231 388.281 11.9558H388.281ZM382.417 4.91109C382.802 4.91109 383.114 5.22393 383.114 5.6096C383.114 5.99527 382.802 6.30844 382.417 6.30844C382.032 6.30844 381.719 5.9956 381.719 5.6096C381.719 5.2236 382.032 4.91109 382.417 4.91109ZM383.404 6.88612C383.543 6.79144 383.731 6.82686 383.826 6.96557C383.92 7.10428 383.884 7.29331 383.746 7.38799C383.112 7.82199 382.37 8.05141 381.599 8.05141C380.829 8.05141 380.086 7.82199 379.452 7.38799C379.314 7.29331 379.278 7.10428 379.373 6.96557C379.467 6.82686 379.656 6.79144 379.794 6.88612C380.327 7.2506 380.951 7.44361 381.599 7.44361C382.247 7.44361 382.871 7.2506 383.404 6.88612Z"
            fill="#FF89C1"
          />
          <path
            d="M24.0459 6.30498L24.9741 4.11812C24.9912 4.07797 25 4.03484 25 3.99104V1.33205C25 1.21161 24.9333 1.10079 24.8255 1.04206C24.7177 0.983331 24.586 0.986317 24.4809 1.04969L23.2084 1.81746L21.936 1.04969C21.8264 0.983663 21.6876 0.983663 21.5781 1.04969L20.3056 1.81746L19.0331 1.04969C18.9236 0.983663 18.7848 0.983663 18.6753 1.04969L17.4028 1.81746L16.1303 1.04969C16.0208 0.983663 15.882 0.983663 15.7725 1.04969L14.5 1.81746L13.2275 1.04969C13.118 0.983663 12.9792 0.983663 12.8697 1.04969L11.5972 1.81746L10.3247 1.04969C10.2152 0.983663 10.0764 0.983663 9.96686 1.04969L8.69437 1.81746L7.42188 1.05002C7.31235 0.983995 7.17357 0.983995 7.06404 1.05002L5.79155 1.81779L4.51906 1.05002C4.41396 0.986649 4.28232 0.983995 4.1745 1.04239C4.06667 1.10079 4 1.21194 4 1.33205V3.99104C4 4.03451 4.00884 4.07764 4.02585 4.11812L4.95411 6.30498V22.6946L4.02585 24.8821C4.00884 24.9223 4 24.9654 4 25.0092V27.6679C4 27.7883 4.06667 27.8991 4.1745 27.9579C4.28232 28.0166 4.41396 28.0136 4.51906 27.9502L5.79155 27.1825L7.06404 27.9502C7.17357 28.0163 7.31235 28.0163 7.42188 27.9502L8.69437 27.1825L9.96686 27.9502C10.0764 28.0163 10.2152 28.0163 10.3247 27.9502L11.5972 27.1825L12.8697 27.9502C12.9792 28.0163 13.118 28.0163 13.2275 27.9502L14.5 27.1825L15.7725 27.9502C15.882 28.0163 16.0208 28.0163 16.1303 27.9502L17.4028 27.1825L18.6753 27.9502C18.7848 28.0163 18.9236 28.0163 19.0331 27.9502L20.3056 27.1825L21.5781 27.9502C21.6329 27.9834 21.6951 28 21.757 28C21.8189 28 21.8812 27.9834 21.936 27.9502L23.2084 27.1825L24.4809 27.9502C24.586 28.0136 24.7177 28.0163 24.8255 27.9579C24.9333 27.8991 25 27.7883 25 27.6679V25.0092C25 24.9657 24.9912 24.9226 24.9741 24.8821L24.0459 22.6949V6.30498ZM24.3197 25.0749V26.0062H4.68029V25.0749L4.70819 25.0089H24.2915L24.3194 25.0749H24.3197ZM4.68029 3.92535V2.99367H24.3197V3.92535L24.2918 3.99138H4.70819L4.68029 3.92535ZM5.63441 17.873V10.538H23.3656V17.873H5.63441Z"
            fill="#FF5858"
          />
          <path
            d="M220.046 6.30498L220.974 4.11812C220.991 4.07797 221 4.03484 221 3.99104V1.33205C221 1.21161 220.933 1.10079 220.826 1.04206C220.718 0.983331 220.586 0.986317 220.481 1.04969L219.208 1.81746L217.936 1.04969C217.826 0.983663 217.688 0.983663 217.578 1.04969L216.306 1.81746L215.033 1.04969C214.924 0.983663 214.785 0.983663 214.675 1.04969L213.403 1.81746L212.13 1.04969C212.021 0.983663 211.882 0.983663 211.772 1.04969L210.5 1.81746L209.228 1.04969C209.118 0.983663 208.979 0.983663 208.87 1.04969L207.597 1.81746L206.325 1.04969C206.215 0.983663 206.076 0.983663 205.967 1.04969L204.694 1.81746L203.422 1.05002C203.312 0.983995 203.174 0.983995 203.064 1.05002L201.792 1.81779L200.519 1.05002C200.414 0.986649 200.282 0.983995 200.174 1.04239C200.067 1.10079 200 1.21194 200 1.33205V3.99104C200 4.03451 200.009 4.07764 200.026 4.11812L200.954 6.30498V22.6946L200.026 24.8821C200.009 24.9223 200 24.9654 200 25.0092V27.6679C200 27.7883 200.067 27.8991 200.174 27.9579C200.282 28.0166 200.414 28.0136 200.519 27.9502L201.792 27.1825L203.064 27.9502C203.174 28.0163 203.312 28.0163 203.422 27.9502L204.694 27.1825L205.967 27.9502C206.076 28.0163 206.215 28.0163 206.325 27.9502L207.597 27.1825L208.87 27.9502C208.979 28.0163 209.118 28.0163 209.228 27.9502L210.5 27.1825L211.772 27.9502C211.882 28.0163 212.021 28.0163 212.13 27.9502L213.403 27.1825L214.675 27.9502C214.785 28.0163 214.924 28.0163 215.033 27.9502L216.306 27.1825L217.578 27.9502C217.633 27.9834 217.695 28 217.757 28C217.819 28 217.881 27.9834 217.936 27.9502L219.208 27.1825L220.481 27.9502C220.586 28.0136 220.718 28.0163 220.826 27.9579C220.933 27.8991 221 27.7883 221 27.6679V25.0092C221 24.9657 220.991 24.9226 220.974 24.8821L220.046 22.6949V6.30498ZM220.32 25.0749V26.0062H200.68V25.0749L200.708 25.0089H220.291L220.319 25.0749H220.32ZM200.68 3.92535V2.99367H220.32V3.92535L220.292 3.99138H200.708L200.68 3.92535ZM201.634 17.873V10.538H219.366V17.873H201.634Z"
            fill="#FF5858"
          />
          <path
            d="M103.562 28.2246C103.402 28.2246 103.242 28.2006 103.086 28.1486C102.251 27.8849 101.791 26.9977 102.055 26.1625C103.03 23.0813 103.522 19.8683 103.522 16.6113C103.522 13.3544 103.026 10.1413 102.055 7.0602C101.791 6.22497 102.255 5.33779 103.086 5.07404C103.921 4.81028 104.809 5.27385 105.072 6.10508C106.143 9.49394 106.687 13.0307 106.687 16.6113C106.687 20.192 106.143 23.7287 105.072 27.1176C104.861 27.793 104.237 28.2246 103.566 28.2246H103.562Z"
            fill="white"
          />
          <path
            d="M96.9041 26.43C96.7522 26.43 96.6004 26.4101 96.4485 26.3621C95.6133 26.1103 95.1377 25.2272 95.3895 24.3919C96.1488 21.8743 96.5324 19.2607 96.5324 16.6112C96.5324 13.9616 96.1488 11.348 95.3895 8.83038C95.1377 7.99516 95.6093 7.11198 96.4485 6.86021C97.2837 6.60844 98.1669 7.08001 98.4187 7.91923C99.2659 10.7326 99.6975 13.6579 99.6975 16.6112C99.6975 19.5644 99.2659 22.4897 98.4187 25.3031C98.2109 25.9865 97.5835 26.43 96.9041 26.43Z"
            fill="white"
          />
          <path
            d="M90.5819 24.5643C90.4421 24.5643 90.2982 24.5443 90.1543 24.5044C89.3111 24.2686 88.8236 23.3934 89.0593 22.5542C89.5988 20.628 89.8746 18.6298 89.8746 16.6157C89.8746 14.6016 89.6028 12.5994 89.0593 10.6772C88.8236 9.834 89.3151 8.9628 90.1543 8.72702C90.9975 8.49124 91.8687 8.98279 92.1045 9.82201C92.7239 12.024 93.0357 14.3098 93.0357 16.6157C93.0357 18.9216 92.7239 21.2074 92.1045 23.4094C91.9087 24.1088 91.2733 24.5643 90.5819 24.5643Z"
            fill="white"
          />
          <path
            d="M299.562 28.2246C299.402 28.2246 299.242 28.2006 299.086 28.1486C298.251 27.8849 297.791 26.9977 298.055 26.1625C299.03 23.0813 299.522 19.8683 299.522 16.6113C299.522 13.3544 299.026 10.1413 298.055 7.0602C297.791 6.22497 298.255 5.33779 299.086 5.07404C299.921 4.81028 300.809 5.27385 301.072 6.10508C302.143 9.49394 302.687 13.0307 302.687 16.6113C302.687 20.192 302.143 23.7287 301.072 27.1176C300.861 27.793 300.237 28.2246 299.566 28.2246H299.562Z"
            fill="white"
          />
          <path
            d="M292.904 26.43C292.752 26.43 292.6 26.4101 292.449 26.3621C291.613 26.1103 291.138 25.2272 291.39 24.3919C292.149 21.8743 292.532 19.2607 292.532 16.6112C292.532 13.9616 292.149 11.348 291.39 8.83038C291.138 7.99516 291.609 7.11198 292.449 6.86021C293.284 6.60844 294.167 7.08001 294.419 7.91923C295.266 10.7326 295.698 13.6579 295.698 16.6112C295.698 19.5644 295.266 22.4897 294.419 25.3031C294.211 25.9865 293.583 26.43 292.904 26.43Z"
            fill="white"
          />
          <path
            d="M286.582 24.5643C286.442 24.5643 286.298 24.5443 286.154 24.5044C285.311 24.2686 284.824 23.3934 285.059 22.5542C285.599 20.628 285.875 18.6298 285.875 16.6157C285.875 14.6016 285.603 12.5994 285.059 10.6772C284.824 9.834 285.315 8.9628 286.154 8.72702C286.998 8.49124 287.869 8.98279 288.105 9.82201C288.724 12.024 289.036 14.3098 289.036 16.6157C289.036 18.9216 288.724 21.2074 288.105 23.4094C287.909 24.1088 287.273 24.5643 286.582 24.5643Z"
            fill="white"
          />
        </g>
        <defs>
          <clipPath id="clip0_129_1371">
            <rect width="393" height="28" fill="white" />
          </clipPath>
        </defs>
      </svg>