<svg width="175" height="47" viewBox="0 0 175 47" fill="none" xmlns="http://www.w3.org/2000/svg">
<path d="M35.4097 19.6C35.4097 19.696 35.4097 19.744 35.3617 19.792C35.4097 19.888 35.4097 19.936 35.4097 20.032V31.696C35.4097 33.04 34.3057 34.096 33.0097 34.096C31.7137 34.096 30.6577 33.04 30.6577 31.696V20.032C30.6577 19.936 30.6577 19.888 30.6577 19.792C30.6577 19.744 30.6577 19.696 30.6577 19.6C30.6577 16.912 28.4497 14.752 25.7617 14.752C23.0737 14.752 20.8657 16.912 20.8657 19.6V31.696C20.8657 33.04 19.8097 34.096 18.5137 34.096C17.2177 34.096 16.1137 33.04 16.1137 31.696V19.6C16.1137 16.912 13.9537 14.752 11.2657 14.752C8.57769 14.752 6.36968 16.912 6.36968 19.6V31.696C6.36968 33.04 5.31368 34.096 4.01768 34.096C2.67368 34.096 1.61768 33.04 1.61768 31.696V19.6C1.61768 14.32 5.93768 10 11.2657 10C14.1457 10 16.7377 11.248 18.5137 13.312C20.2897 11.248 22.8817 10 25.7617 10C31.0897 10 35.4097 14.32 35.4097 19.6ZM56.9448 10.096C58.2888 10.096 59.3448 11.152 59.3448 12.448V36.112C59.3448 41.536 54.8808 46 49.4088 46C45.6168 46 42.2088 43.84 40.5288 40.432C39.9528 39.28 40.4328 37.84 41.6328 37.264C42.7848 36.688 44.2248 37.216 44.7528 38.368C45.6648 40.144 47.4408 41.248 49.4088 41.248C52.2888 41.248 54.5928 38.944 54.5928 36.112V32.656C53.1528 33.52 51.4728 34 49.6488 34C44.3688 34 40.0488 29.728 40.0008 24.448C40.0008 24.4 40.0008 24.4 40.0008 24.4V12.448C40.0008 11.152 41.0568 10.096 42.3528 10.096C43.6488 10.096 44.7048 11.152 44.7048 12.448V24.352C44.7048 27.088 46.9608 29.296 49.6488 29.296C52.3848 29.296 54.5928 27.088 54.5928 24.352V12.448C54.5928 11.152 55.6488 10.096 56.9448 10.096ZM76.1864 34.192C73.4504 34.192 70.9064 33.28 68.8904 31.744V43.696C68.8904 44.992 67.8344 46.048 66.5384 46.048C65.1944 46.048 64.1384 44.992 64.1384 43.696V22.192V22.144C64.1384 15.52 69.5624 10.096 76.1864 10.096C82.8584 10.096 88.2344 15.52 88.2344 22.144C88.2344 28.816 82.8584 34.192 76.1864 34.192ZM76.1864 14.848C72.1544 14.848 68.8904 18.112 68.8904 22.144V22.192C68.8904 26.176 72.1544 29.44 76.1864 29.44C80.2184 29.44 83.4824 26.176 83.4824 22.144C83.4824 18.16 80.2184 14.848 76.1864 14.848ZM105.109 10C111.877 10 116.917 15.376 116.917 22.144V31.552C116.917 32.944 115.909 33.952 114.517 33.952C113.557 33.952 112.213 32.944 112.213 31.552C110.149 33.28 107.845 33.952 105.109 33.952C98.3407 33.952 92.9647 28.912 92.9647 22.144C92.9647 15.376 98.3407 10 105.109 10ZM105.109 29.248C109.141 29.248 112.213 26.176 112.213 22.144C112.213 18.112 109.141 14.704 105.109 14.704C101.077 14.704 97.6687 18.112 97.6687 22.144C97.6687 26.176 101.077 29.248 105.109 29.248ZM145.794 21.952C145.794 21.952 145.794 21.952 145.794 34C145.794 40.624 140.37 46.048 133.746 46.048C129.09 46.048 124.962 43.456 122.898 39.28C122.322 38.08 122.802 36.688 124.002 36.112C125.154 35.536 126.594 36.016 127.17 37.168C128.418 39.712 130.914 41.296 133.746 41.296C137.73 41.296 140.946 38.08 141.042 34.144C141.042 34.096 141.042 34.048 141.042 31.504C138.978 33.04 136.482 34 133.746 34C127.074 34 121.698 28.576 121.698 21.952C121.698 15.28 127.074 9.904 133.746 9.904C140.37 9.904 145.794 15.28 145.794 21.952ZM133.746 29.248C137.73 29.248 141.042 25.936 141.042 21.952C141.042 17.92 137.73 14.656 133.746 14.656C129.714 14.656 126.45 17.92 126.45 21.952C126.45 25.936 129.714 29.248 133.746 29.248ZM162.597 9.904C168.405 9.904 174.645 14.128 174.645 21.952C174.645 23.248 173.589 24.304 172.245 24.304H155.685C156.693 27.184 159.381 29.248 162.597 29.248C163.701 29.248 165.669 29.152 167.973 27.664C169.077 26.944 170.565 27.616 171.141 28.768C171.717 29.968 171.093 31.216 169.989 31.936C166.821 34.048 164.373 34 162.597 34C155.925 34 150.549 28.576 150.549 21.952C150.549 15.28 155.925 9.904 162.597 9.904ZM162.597 14.656C159.381 14.656 156.693 16.72 155.685 19.552H169.557C168.549 16.192 165.477 14.656 162.597 14.656Z" fill="#FFFA87"/>
</svg>
