<svg width="148" height="35" viewBox="0 0 148 35" fill="none" xmlns="http://www.w3.org/2000/svg">
<rect x="1.5" y="1.5" width="145" height="32" rx="16" stroke="#5D9EFF" stroke-width="3"/>
<path d="M42.8426 19.7656H29.8426V18.1719H42.8426V19.7656ZM37.2879 24.4219H35.3113V19.1953H37.2879V24.4219ZM41.2957 16.6406H31.366V10.9062H41.2957V16.6406ZM33.3269 15.0781H39.3035V12.4922H33.3269V15.0781ZM48.7759 21.875H46.8306V18.5H48.7759V21.875ZM53.3306 21.8672H51.3775V18.4844H53.3306V21.8672ZM56.5103 22.8594H43.5103V21.2266H56.5103V22.8594ZM55.0103 15.8516H46.9947V18.2812H45.0103V14.2656H53.0416V12.7422H44.9869V11.1406H55.0103V15.8516ZM55.3463 19.0469H45.0103V17.4297H55.3463V19.0469ZM68.8302 17.2422H66.5255V15.6094H68.8302V17.2422ZM64.7443 14.5391C64.7443 15.5755 64.6323 16.5573 64.4083 17.4844C64.1844 18.4115 63.8354 19.2474 63.3614 19.9922C62.8875 20.737 62.2859 21.3229 61.5568 21.75L60.4161 20.2578C61.0672 19.8724 61.6036 19.3776 62.0255 18.7734C62.4474 18.1693 62.7547 17.5104 62.9474 16.7969C63.1453 16.0781 63.2443 15.3255 63.2443 14.5391V14.1406H64.7443V14.5391ZM65.1114 14.5391C65.1114 15.2995 65.2078 16.0208 65.4005 16.7031C65.5932 17.3854 65.8979 18.0104 66.3146 18.5781C66.7364 19.1406 67.2703 19.5964 67.9161 19.9453L66.8224 21.4062C66.088 21.026 65.4786 20.487 64.9943 19.7891C64.5151 19.0859 64.1661 18.2917 63.9474 17.4062C63.7286 16.5156 63.6193 15.5599 63.6193 14.5391V14.1406H65.1114V14.5391ZM67.3614 14.2266H60.9474V12.625H67.3614V14.2266ZM65.1036 13.9141H63.2443V10.7031H65.1036V13.9141ZM72.9708 24.4375H71.0958V10.2031H72.9708V24.4375ZM70.0646 23.7891H68.1974V10.4531H70.0646V23.7891ZM86.3183 18.8125H84.3339V10.2031H86.3183V18.8125ZM85.1464 16.0156H82.4901V14.3906H85.1464V16.0156ZM86.3183 24.2812H76.7636V19.4219H86.3183V24.2812ZM78.7558 22.6797H84.3729V20.9844H78.7558V22.6797ZM82.7479 13.0469H74.3651V11.4609H82.7479V13.0469ZM78.5604 13.5078C79.2219 13.5078 79.813 13.6172 80.3339 13.8359C80.8547 14.0547 81.2584 14.3594 81.5448 14.75C81.8365 15.1354 81.9823 15.5755 81.9823 16.0703C81.9823 16.5755 81.8365 17.0208 81.5448 17.4062C81.2584 17.7917 80.8547 18.0938 80.3339 18.3125C79.813 18.5312 79.2219 18.6406 78.5604 18.6406C77.9094 18.6406 77.3235 18.5339 76.8026 18.3203C76.287 18.1016 75.8808 17.7969 75.5839 17.4062C75.2922 17.0156 75.1464 16.5703 75.1464 16.0703C75.1464 15.5755 75.2922 15.1328 75.5839 14.7422C75.8808 14.3516 76.287 14.0495 76.8026 13.8359C77.3235 13.6172 77.9094 13.5078 78.5604 13.5078ZM78.5604 15.0078C78.2531 15.0078 77.9875 15.0495 77.7636 15.1328C77.5396 15.2109 77.3651 15.3307 77.2401 15.4922C77.1151 15.6536 77.0526 15.8464 77.0526 16.0703C77.0526 16.2995 77.1125 16.4974 77.2323 16.6641C77.3573 16.8255 77.5318 16.9505 77.7558 17.0391C77.9849 17.1224 78.2531 17.1667 78.5604 17.1719C78.8677 17.1667 79.1334 17.1224 79.3573 17.0391C79.5813 16.9505 79.7531 16.8255 79.8729 16.6641C79.9979 16.4974 80.0604 16.2995 80.0604 16.0703C80.0604 15.8464 79.9979 15.6536 79.8729 15.4922C79.7531 15.3307 79.5787 15.2109 79.3495 15.1328C79.1255 15.0495 78.8625 15.0078 78.5604 15.0078ZM79.5448 12.6094H77.5683V10.1016H79.5448V12.6094ZM103.466 24.4375H101.443V10.2031H103.466V24.4375ZM99.2084 11.7031C99.2084 13.2292 99.0027 14.6146 98.5913 15.8594C98.185 17.099 97.4949 18.2396 96.5209 19.2812C95.547 20.3177 94.2423 21.224 92.6069 22L91.56 20.4062C92.9298 19.7604 94.0288 19.0339 94.8569 18.2266C95.685 17.4193 96.2866 16.513 96.6616 15.5078C97.0366 14.5026 97.2241 13.3516 97.2241 12.0547V11.7031H99.2084ZM98.1381 13.2734H92.3178V11.7031H98.1381V13.2734ZM116.447 20.4062H114.423V10.2031H116.447V20.4062ZM118.368 15.8438H115.868V14.2031H118.368V15.8438ZM112.564 11.2734C112.564 12.5495 112.306 13.6953 111.79 14.7109C111.275 15.7266 110.519 16.599 109.525 17.3281C108.535 18.0521 107.327 18.6172 105.9 19.0234L105.064 17.4453C106.23 17.1224 107.212 16.7005 108.009 16.1797C108.811 15.6589 109.413 15.0651 109.814 14.3984C110.22 13.7318 110.423 13.0208 110.423 12.2656V11.2734H112.564ZM111.532 12.9062H105.689V11.2734H111.532V12.9062ZM116.931 24.1953H107.197V22.5859H116.931V24.1953ZM109.212 23.3047H107.197V19.3672H109.212V23.3047Z" fill="#5D9EFF"/>
</svg>
