      <svg
        width="116"
        height="150"
        viewBox="0 0 116 150"
        fill="none"
        xmlns="http://www.w3.org/2000/svg"
      >
        <path
          d="M109.946 29.4721L115.037 17.3229C115.13 17.0999 115.179 16.8602 115.179 16.6169V1.8447C115.179 1.17558 114.813 0.559923 114.222 0.233658C113.63 -0.0926059 112.908 -0.0760162 112.332 0.276054L105.352 4.54145L98.3732 0.276054C97.7725 -0.0907626 97.0113 -0.0907626 96.4106 0.276054L89.4314 4.54145L82.4522 0.276054C81.8514 -0.0907626 81.0903 -0.0907626 80.4896 0.276054L73.5103 4.54145L66.5311 0.276054C65.9304 -0.0907626 65.1692 -0.0907626 64.5685 0.276054L57.5893 4.54145L50.6101 0.276054C50.0093 -0.0907626 49.2482 -0.0907626 48.6475 0.276054L41.6682 4.54145L34.689 0.276054C34.0883 -0.0907626 33.3271 -0.0907626 32.7264 0.276054L25.7472 4.54145L18.768 0.277898C18.1672 -0.0889192 17.4061 -0.0889192 16.8053 0.277898L9.82613 4.5433L2.84691 0.277898C2.27044 -0.0741728 1.54845 -0.0889193 0.957054 0.235502C0.365658 0.559923 0 1.17743 0 1.8447V16.6169C0 16.8584 0.0485057 17.098 0.141786 17.3229L5.23302 29.4721V120.526L0.141786 132.678C0.0485057 132.902 0 133.141 0 133.384V148.155C0 148.824 0.365658 149.44 0.957054 149.766C1.54845 150.092 2.27044 150.076 2.84691 149.724L9.82613 145.458L16.8053 149.724C17.4061 150.09 18.1672 150.09 18.768 149.724L25.7472 145.458L32.7264 149.724C33.3271 150.09 34.0883 150.09 34.689 149.724L41.6682 145.458L48.6475 149.724C49.2482 150.09 50.0093 150.09 50.6101 149.724L57.5893 145.458L64.5685 149.724C65.1692 150.09 65.9304 150.09 66.5311 149.724L73.5103 145.458L80.4896 149.724C81.0903 150.09 81.8514 150.09 82.4522 149.724L89.4314 145.458L96.4106 149.724C96.711 149.908 97.0524 150 97.3919 150C97.7315 150 98.0729 149.908 98.3732 149.724L105.352 145.458L112.332 149.724C112.908 150.076 113.63 150.09 114.222 149.766C114.813 149.44 115.179 148.824 115.179 148.155V133.384C115.179 133.143 115.13 132.903 115.037 132.678L109.946 120.527V29.4721ZM111.447 133.749V138.924H3.73121V133.749L3.88418 133.383H111.293L111.446 133.749H111.447ZM3.73121 16.2519V11.076H111.447V16.2519L111.294 16.6188H3.88418L3.73121 16.2519ZM8.96422 93.7388V52.9889H106.214V93.7388H8.96422Z"
          fill="#FF5858"
        />
      </svg>