<svg width="214" height="57" viewBox="0 0 214 57" fill="none" xmlns="http://www.w3.org/2000/svg">
<rect x="1" y="1" width="212" height="55" rx="15" stroke="#FFFA87" stroke-width="2"/>
<path d="M105.456 39.6562H102.644V18.3047H105.456V39.6562ZM99.0812 28.0547H95.4836V25.6523H99.0812V28.0547ZM101.097 38.6836H98.2961V18.6797H101.097V38.6836ZM93.1515 24.0352C93.1515 25.707 92.9797 27.293 92.6359 28.793C92.3 30.2852 91.7804 31.6328 91.0773 32.8359C90.3742 34.0312 89.4757 34.9648 88.382 35.6367L86.5773 33.4336C87.5851 32.8086 88.4093 32 89.05 31.0078C89.6984 30.0078 90.1672 28.918 90.4562 27.7383C90.7453 26.5586 90.8898 25.3242 90.8898 24.0352V21.7969H93.1515V24.0352ZM93.7726 24.0352C93.7726 25.293 93.9093 26.4883 94.1828 27.6211C94.464 28.7461 94.9211 29.7734 95.5539 30.7031C96.1867 31.625 96.9992 32.375 97.9914 32.9531L96.2453 35.1445C95.1593 34.5039 94.2687 33.6172 93.5734 32.4844C92.8781 31.3516 92.3703 30.0703 92.05 28.6406C91.7297 27.2109 91.5695 25.6758 91.5695 24.0352V21.7969H93.7726V24.0352ZM97.007 22.8867H87.3859V20.4961H97.007V22.8867ZM118.692 32.25H115.751V29.1445H118.692V32.25ZM126.919 29.5898H107.548V27.4102H126.919V29.5898ZM118.681 20.8828H115.716V18.3047H118.681V20.8828ZM118.153 21.4336C118.153 22.457 117.809 23.3594 117.122 24.1406C116.434 24.9141 115.415 25.5312 114.063 25.9922C112.712 26.4531 111.063 26.7383 109.118 26.8477L108.309 24.6445C109.95 24.5664 111.309 24.375 112.388 24.0703C113.473 23.7578 114.266 23.375 114.766 22.9219C115.274 22.4688 115.528 21.9727 115.528 21.4336V21H118.153V21.4336ZM118.88 21.4336C118.88 21.9727 119.13 22.4688 119.63 22.9219C120.138 23.375 120.934 23.7578 122.02 24.0703C123.114 24.375 124.485 24.5664 126.134 24.6445L125.266 26.8477C123.352 26.7383 121.72 26.4531 120.368 25.9922C119.024 25.5312 118.001 24.9141 117.298 24.1406C116.602 23.3594 116.255 22.457 116.255 21.4336V21H118.88V21.4336ZM125.079 22.207H109.376V19.9922H125.079V22.207ZM124.587 36.1289H112.704V38.2031H109.763V34.125H121.634V33.082H109.751V30.9375H124.587V36.1289ZM125.149 39.5039H109.763V37.3125H125.149V39.5039Z" fill="#FFFA87"/>
</svg>
