<svg width="95" height="39" viewBox="0 0 95 39" fill="none" xmlns="http://www.w3.org/2000/svg">
<rect x="1" y="1" width="93" height="37" rx="15" fill="#FF5858"/>
<rect x="1" y="1" width="93" height="37" rx="15" stroke="#FF5858" stroke-width="2"/>
<path d="M29.2661 15.1328H20.2504V13.5547H29.2661V15.1328ZM31.7426 21.2109H18.7739V19.6016H31.7426V21.2109ZM26.1879 26.9531H24.1879V20.7188H26.1879V26.9531ZM30.2192 14.8203C30.2192 15.5391 30.2088 16.1484 30.1879 16.6484C30.1723 17.1484 30.1202 17.7318 30.0317 18.3984C29.9484 19.0599 29.8207 19.7812 29.6489 20.5625L27.6801 20.3438C27.852 19.6042 27.977 18.9141 28.0551 18.2734C28.1385 17.6276 28.1879 17.0573 28.2036 16.5625C28.2192 16.0677 28.227 15.4896 28.227 14.8281V13.5547H30.2192V14.8203ZM45.3947 21.1953H32.426V19.6016H45.3947V21.1953ZM39.8947 20.125H37.8947V17.2969H39.8947V20.125ZM43.8479 26.9844H41.8869V23.7344H33.8557V22.1719H43.8479V26.9844ZM43.9963 18.3359H33.9963V16.75H43.9963V18.3359ZM43.8557 14.8594H35.9807V17.6172H33.9963V13.2891H43.8557V14.8594ZM54.9256 15.5859C54.9256 16.2891 54.7771 16.9375 54.4802 17.5312C54.1886 18.1198 53.7433 18.625 53.1443 19.0469C52.5454 19.4688 51.8084 19.7708 50.9334 19.9531L50.1052 18.3984C50.8188 18.2682 51.4151 18.0625 51.8943 17.7812C52.3787 17.4948 52.7381 17.1641 52.9724 16.7891C53.2068 16.4141 53.324 16.013 53.324 15.5859V15.4062H54.9256V15.5859ZM55.324 15.5859C55.324 15.987 55.4412 16.362 55.6756 16.7109C55.9099 17.0547 56.2615 17.3594 56.7302 17.625C57.2042 17.8906 57.7901 18.0859 58.4881 18.2109L57.7068 19.7422C56.837 19.5755 56.1026 19.2943 55.5037 18.8984C54.9099 18.4974 54.4646 18.0156 54.1677 17.4531C53.8709 16.8854 53.7224 16.263 53.7224 15.5859V15.4062H55.324V15.5859ZM58.1443 15.6797H50.4881V14.1406H58.1443V15.6797ZM55.324 15.25H53.3396V12.7422H55.324V15.25ZM55.324 26.5H53.324V20.7891H55.324V26.5ZM61.5818 26.9297H59.5974V12.7344H61.5818V26.9297ZM49.6287 20.5625C51.4151 20.5625 53.0506 20.5365 54.5349 20.4844C56.0245 20.4323 57.4308 20.3229 58.7537 20.1562L58.8787 21.6016C57.4985 21.8359 56.074 21.9922 54.6052 22.0703C53.1365 22.1432 51.561 22.1797 49.8787 22.1797L49.6287 20.5625ZM76.2574 25.2422H63.2574V23.6484H76.2574V25.2422ZM70.6714 24.0703H68.6871V20.4219H70.6714V24.0703ZM70.3589 14.5469C70.3589 15.5521 70.1168 16.4974 69.6324 17.3828C69.1532 18.263 68.4631 19.0104 67.5621 19.625C66.661 20.2396 65.6115 20.6589 64.4136 20.8828L63.5543 19.2188C64.5959 19.0573 65.497 18.737 66.2574 18.2578C67.023 17.7734 67.6063 17.2083 68.0074 16.5625C68.4084 15.9115 68.6089 15.2396 68.6089 14.5469V13.5391H70.3589V14.5469ZM70.7261 14.5469C70.7261 15.2448 70.9266 15.9193 71.3277 16.5703C71.7339 17.2161 72.3199 17.7786 73.0855 18.2578C73.8563 18.737 74.7652 19.0573 75.8121 19.2188L74.9605 20.8828C73.747 20.6536 72.6897 20.237 71.7886 19.6328C70.8928 19.0286 70.2027 18.2891 69.7183 17.4141C69.2391 16.5339 68.9996 15.5781 68.9996 14.5469V13.5391H70.7261V14.5469Z" fill="black"/>
</svg>
