<svg width="152" height="39" viewBox="0 0 152 39" fill="none" xmlns="http://www.w3.org/2000/svg">
<rect x="1" y="1" width="150" height="37" rx="15" fill="#FF5858"/>
<rect x="1" y="1" width="150" height="37" rx="15" stroke="#FF5858" stroke-width="2"/>
<path d="M57.7661 15.1328H48.7504V13.5547H57.7661V15.1328ZM60.2426 21.2109H47.2739V19.6016H60.2426V21.2109ZM54.6879 26.9531H52.6879V20.7188H54.6879V26.9531ZM58.7192 14.8203C58.7192 15.5391 58.7088 16.1484 58.6879 16.6484C58.6723 17.1484 58.6202 17.7318 58.5317 18.3984C58.4484 19.0599 58.3207 19.7812 58.1489 20.5625L56.1801 20.3438C56.352 19.6042 56.477 18.9141 56.5551 18.2734C56.6385 17.6276 56.6879 17.0573 56.7036 16.5625C56.7192 16.0677 56.727 15.4896 56.727 14.8281V13.5547H58.7192V14.8203ZM73.8947 21.1953H60.926V19.6016H73.8947V21.1953ZM68.3947 20.125H66.3947V17.2969H68.3947V20.125ZM72.3479 26.9844H70.3869V23.7344H62.3557V22.1719H72.3479V26.9844ZM72.4963 18.3359H62.4963V16.75H72.4963V18.3359ZM72.3557 14.8594H64.4807V17.6172H62.4963V13.2891H72.3557V14.8594ZM83.4256 15.5859C83.4256 16.2891 83.2771 16.9375 82.9802 17.5312C82.6886 18.1198 82.2433 18.625 81.6443 19.0469C81.0454 19.4688 80.3084 19.7708 79.4334 19.9531L78.6052 18.3984C79.3188 18.2682 79.9151 18.0625 80.3943 17.7812C80.8787 17.4948 81.2381 17.1641 81.4724 16.7891C81.7068 16.4141 81.824 16.013 81.824 15.5859V15.4062H83.4256V15.5859ZM83.824 15.5859C83.824 15.987 83.9412 16.362 84.1756 16.7109C84.4099 17.0547 84.7615 17.3594 85.2302 17.625C85.7042 17.8906 86.2901 18.0859 86.9881 18.2109L86.2068 19.7422C85.337 19.5755 84.6026 19.2943 84.0037 18.8984C83.4099 18.4974 82.9646 18.0156 82.6677 17.4531C82.3709 16.8854 82.2224 16.263 82.2224 15.5859V15.4062H83.824V15.5859ZM86.6443 15.6797H78.9881V14.1406H86.6443V15.6797ZM83.824 15.25H81.8396V12.7422H83.824V15.25ZM83.824 26.5H81.824V20.7891H83.824V26.5ZM90.0818 26.9297H88.0974V12.7344H90.0818V26.9297ZM78.1287 20.5625C79.9151 20.5625 81.5506 20.5365 83.0349 20.4844C84.5245 20.4323 85.9308 20.3229 87.2537 20.1562L87.3787 21.6016C85.9985 21.8359 84.574 21.9922 83.1052 22.0703C81.6365 22.1432 80.061 22.1797 78.3787 22.1797L78.1287 20.5625ZM104.757 25.2422H91.7574V23.6484H104.757V25.2422ZM99.1714 24.0703H97.1871V20.4219H99.1714V24.0703ZM98.8589 14.5469C98.8589 15.5521 98.6168 16.4974 98.1324 17.3828C97.6532 18.263 96.9631 19.0104 96.0621 19.625C95.161 20.2396 94.1115 20.6589 92.9136 20.8828L92.0543 19.2188C93.0959 19.0573 93.997 18.737 94.7574 18.2578C95.523 17.7734 96.1063 17.2083 96.5074 16.5625C96.9084 15.9115 97.1089 15.2396 97.1089 14.5469V13.5391H98.8589V14.5469ZM99.2261 14.5469C99.2261 15.2448 99.4266 15.9193 99.8277 16.5703C100.234 17.2161 100.82 17.7786 101.586 18.2578C102.356 18.737 103.265 19.0573 104.312 19.2188L103.461 20.8828C102.247 20.6536 101.19 20.237 100.289 19.6328C99.3928 19.0286 98.7027 18.2891 98.2183 17.4141C97.7391 16.5339 97.4996 15.5781 97.4996 14.5469V13.5391H99.2261V14.5469Z" fill="black"/>
</svg>
