<svg width="148" height="35" viewBox="0 0 148 35" fill="none" xmlns="http://www.w3.org/2000/svg">
<rect x="1.5" y="1.5" width="145" height="32" rx="16" fill="#5D9EFF"/>
<rect x="1.5" y="1.5" width="145" height="32" rx="16" stroke="#5D9EFF" stroke-width="3"/>
<path d="M40.8738 16.2969H37.0848V14.6953H40.8738V16.2969ZM34.8269 13.4297C34.8269 14.6484 34.6837 15.7917 34.3973 16.8594C34.1108 17.9271 33.6733 18.8724 33.0848 19.6953C32.4962 20.5182 31.767 21.1484 30.8973 21.5859L29.6473 19.9531C30.4285 19.599 31.0848 19.0833 31.616 18.4062C32.1525 17.7292 32.5509 16.9635 32.8113 16.1094C33.0769 15.2552 33.2098 14.362 33.2098 13.4297V11.3047H34.8269V13.4297ZM35.2332 13.4297C35.2332 14.362 35.3582 15.2422 35.6082 16.0703C35.8582 16.8932 36.241 17.625 36.7566 18.2656C37.2723 18.9062 37.9129 19.3958 38.6785 19.7344L37.4598 21.3281C36.6056 20.9062 35.892 20.3047 35.3191 19.5234C34.7514 18.737 34.3269 17.8281 34.0457 16.7969C33.7696 15.7656 33.6316 14.6432 33.6316 13.4297V11.3047H35.2332V13.4297ZM41.8504 24.4766H39.8738V10.2031H41.8504V24.4766ZM55.4088 24.4766H53.3853V10.2031H55.4088V24.4766ZM46.2056 14.8125H49.2759V11.3516H51.2369V21.1484H44.2134V11.3516H46.2056V14.8125ZM49.2759 19.5234V16.3594H46.2056V19.5234H49.2759ZM64.264 12.0859C64.264 13.1172 64.0218 14.0833 63.5374 14.9844C63.0531 15.8854 62.363 16.6562 61.4671 17.2969C60.5765 17.9323 59.5322 18.3698 58.3343 18.6094L57.4828 16.9531C58.5036 16.7604 59.3942 16.4141 60.1546 15.9141C60.9203 15.4141 61.5036 14.8281 61.9046 14.1562C62.3109 13.4844 62.514 12.7943 62.514 12.0859V11.0703H64.264V12.0859ZM64.6312 12.0859C64.6312 12.7995 64.8317 13.4948 65.2328 14.1719C65.639 14.849 66.2249 15.4375 66.9906 15.9375C67.7614 16.4323 68.6624 16.7708 69.6937 16.9531L68.8187 18.6094C67.6312 18.3698 66.5895 17.9349 65.6937 17.3047C64.8031 16.6745 64.1182 15.9089 63.639 15.0078C63.1598 14.1068 62.9203 13.1328 62.9203 12.0859V11.0703H64.6312V12.0859ZM70.1624 22.6953H57.1624V21.0625H70.1624V22.6953ZM84.8339 12.6328H75.8183V11.0547H84.8339V12.6328ZM87.3104 18.7109H74.3417V17.1016H87.3104V18.7109ZM81.7558 24.4531H79.7558V18.2188H81.7558V24.4531ZM85.787 12.3203C85.787 13.0391 85.7766 13.6484 85.7558 14.1484C85.7401 14.6484 85.688 15.2318 85.5995 15.8984C85.5162 16.5599 85.3886 17.2812 85.2167 18.0625L83.2479 17.8438C83.4198 17.1042 83.5448 16.4141 83.6229 15.7734C83.7063 15.1276 83.7558 14.5573 83.7714 14.0625C83.787 13.5677 83.7948 12.9896 83.7948 12.3281V11.0547H85.787V12.3203ZM100.963 18.6953H87.9938V17.1016H100.963V18.6953ZM95.4626 17.625H93.4626V14.7969H95.4626V17.625ZM99.4157 24.4844H97.4548V21.2344H89.4235V19.6719H99.4157V24.4844ZM99.5641 15.8359H89.5641V14.25H99.5641V15.8359ZM99.4235 12.3594H91.5485V15.1172H89.5641V10.7891H99.4235V12.3594ZM112.626 19.8594H110.665V17.3359H112.626V19.8594ZM118.142 18.2734H105.173V16.6797H118.142V18.2734ZM111.634 19.2969C112.665 19.2969 113.551 19.3984 114.29 19.6016C115.03 19.7995 115.598 20.0911 115.993 20.4766C116.389 20.8568 116.587 21.3229 116.587 21.875C116.587 22.4167 116.389 22.8776 115.993 23.2578C115.598 23.6432 115.03 23.9349 114.29 24.1328C113.551 24.3359 112.665 24.4375 111.634 24.4375C110.598 24.4375 109.707 24.3359 108.962 24.1328C108.217 23.9349 107.644 23.6432 107.243 23.2578C106.848 22.8776 106.65 22.4167 106.65 21.875C106.65 21.3229 106.848 20.8568 107.243 20.4766C107.639 20.0911 108.21 19.7995 108.954 19.6016C109.704 19.3984 110.598 19.2969 111.634 19.2969ZM111.634 20.7969C110.973 20.7969 110.423 20.8385 109.986 20.9219C109.553 21.0052 109.228 21.125 109.009 21.2812C108.79 21.4375 108.681 21.6354 108.681 21.875C108.681 22.099 108.79 22.2917 109.009 22.4531C109.228 22.6146 109.556 22.737 109.993 22.8203C110.431 22.8984 110.978 22.9375 111.634 22.9375C112.275 22.9375 112.816 22.8958 113.259 22.8125C113.702 22.724 114.032 22.6016 114.251 22.4453C114.47 22.2891 114.579 22.099 114.579 21.875C114.579 21.6354 114.47 21.4375 114.251 21.2812C114.032 21.125 113.704 21.0052 113.267 20.9219C112.835 20.8385 112.29 20.7969 111.634 20.7969ZM112.04 11.9141C112.04 12.6328 111.822 13.2917 111.384 13.8906C110.947 14.4896 110.306 14.987 109.462 15.3828C108.618 15.7734 107.598 16.026 106.4 16.1406L105.743 14.5703C106.723 14.4818 107.553 14.3021 108.236 14.0312C108.923 13.7604 109.436 13.4375 109.775 13.0625C110.113 12.6875 110.282 12.3047 110.282 11.9141V11.5391H112.04V11.9141ZM113.009 11.9141C113.009 12.3099 113.176 12.6953 113.509 13.0703C113.848 13.4401 114.361 13.7604 115.048 14.0312C115.736 14.3021 116.582 14.4818 117.587 14.5703L116.884 16.1406C115.702 16.026 114.683 15.7734 113.829 15.3828C112.98 14.987 112.332 14.4922 111.884 13.8984C111.441 13.2995 111.22 12.638 111.22 11.9141V11.5391H113.009V11.9141ZM116.97 12.3906H106.345V10.8203H116.97V12.3906Z" fill="#101010"/>
</svg>
