<svg width="214" height="57" viewBox="0 0 214 57" fill="none" xmlns="http://www.w3.org/2000/svg">
<rect x="1" y="1" width="212" height="55" rx="15" stroke="#FF5858" stroke-width="2"/>
<path d="M79.6491 21.9492H66.1257V19.582H79.6491V21.9492ZM83.3639 31.0664H63.9108V28.6523H83.3639V31.0664ZM75.0319 39.6797H72.0319V30.3281H75.0319V39.6797ZM81.0788 21.4805C81.0788 22.5586 81.0632 23.4727 81.0319 24.2227C81.0085 24.9727 80.9303 25.8477 80.7975 26.8477C80.6725 27.8398 80.4811 28.9219 80.2233 30.0938L77.2702 29.7656C77.528 28.6562 77.7155 27.6211 77.8327 26.6602C77.9577 25.6914 78.0319 24.8359 78.0553 24.0938C78.0788 23.3516 78.0905 22.4844 78.0905 21.4922V19.582H81.0788V21.4805ZM103.842 31.043H84.389V28.6523H103.842V31.043ZM95.5921 29.4375H92.5921V25.1953H95.5921V29.4375ZM101.522 39.7266H98.5804V34.8516H86.5335V32.5078H101.522V39.7266ZM101.744 26.7539H86.7445V24.375H101.744V26.7539ZM101.534 21.5391H89.721V25.6758H86.7445V19.1836H101.534V21.5391ZM118.138 22.6289C118.138 23.6836 117.916 24.6562 117.47 25.5469C117.033 26.4297 116.365 27.1875 115.466 27.8203C114.568 28.4531 113.463 28.9062 112.15 29.1797L110.908 26.8477C111.978 26.6523 112.873 26.3438 113.591 25.9219C114.318 25.4922 114.857 24.9961 115.209 24.4336C115.56 23.8711 115.736 23.2695 115.736 22.6289V22.3594H118.138V22.6289ZM118.736 22.6289C118.736 23.2305 118.912 23.793 119.263 24.3164C119.615 24.832 120.142 25.2891 120.845 25.6875C121.556 26.0859 122.435 26.3789 123.482 26.5664L122.31 28.8633C121.006 28.6133 119.904 28.1914 119.006 27.5977C118.115 26.9961 117.447 26.2734 117.002 25.4297C116.556 24.5781 116.334 23.6445 116.334 22.6289V22.3594H118.736V22.6289ZM122.966 22.7695H111.482V20.4609H122.966V22.7695ZM118.736 22.125H115.759V18.3633H118.736V22.125ZM118.736 39H115.736V30.4336H118.736V39ZM128.123 39.6445H125.146V18.3516H128.123V39.6445ZM110.193 30.0938C112.873 30.0938 115.326 30.0547 117.552 29.9766C119.787 29.8984 121.896 29.7344 123.881 29.4844L124.068 31.6523C121.998 32.0039 119.861 32.2383 117.658 32.3555C115.455 32.4648 113.091 32.5195 110.568 32.5195L110.193 30.0938ZM150.136 37.1133H130.636V34.7227H150.136V37.1133ZM141.757 35.3555H138.781V29.8828H141.757V35.3555ZM141.288 21.0703C141.288 22.5781 140.925 23.9961 140.199 25.3242C139.48 26.6445 138.445 27.7656 137.093 28.6875C135.742 29.6094 134.167 30.2383 132.37 30.5742L131.081 28.0781C132.644 27.8359 133.995 27.3555 135.136 26.6367C136.285 25.9102 137.16 25.0625 137.761 24.0938C138.363 23.1172 138.663 22.1094 138.663 21.0703V19.5586H141.288V21.0703ZM141.839 21.0703C141.839 22.1172 142.14 23.1289 142.742 24.1055C143.351 25.0742 144.23 25.918 145.378 26.6367C146.535 27.3555 147.898 27.8359 149.468 28.0781L148.191 30.5742C146.37 30.2305 144.785 29.6055 143.433 28.6992C142.089 27.793 141.054 26.6836 140.327 25.3711C139.609 24.0508 139.249 22.6172 139.249 21.0703V19.5586H141.839V21.0703Z" fill="#FF5858"/>
</svg>
