<svg width="214" height="57" viewBox="0 0 214 57" fill="none" xmlns="http://www.w3.org/2000/svg">
<rect x="1" y="1" width="212" height="55" rx="15" stroke="#FFFA87" stroke-width="2"/>
<path d="M47.0716 26.9453H41.388V24.543H47.0716V26.9453ZM38.0013 22.6445C38.0013 24.4727 37.7865 26.1875 37.3568 27.7891C36.9271 29.3906 36.2708 30.8086 35.388 32.043C34.5052 33.2773 33.4115 34.2227 32.1068 34.8789L30.2318 32.4297C31.4037 31.8984 32.388 31.125 33.1849 30.1094C33.9896 29.0938 34.5872 27.9453 34.9779 26.6641C35.3763 25.3828 35.5755 24.043 35.5755 22.6445V19.457H38.0013V22.6445ZM38.6107 22.6445C38.6107 24.043 38.7982 25.3633 39.1732 26.6055C39.5482 27.8398 40.1224 28.9375 40.8958 29.8984C41.6693 30.8594 42.6302 31.5938 43.7787 32.1016L41.9505 34.4922C40.6693 33.8594 39.599 32.957 38.7396 31.7852C37.888 30.6055 37.2513 29.2422 36.8294 27.6953C36.4154 26.1484 36.2083 24.4648 36.2083 22.6445V19.457H38.6107V22.6445ZM48.5365 39.2148H45.5716V17.8047H48.5365V39.2148ZM68.874 39.2148H65.8389V17.8047H68.874V39.2148ZM55.0693 24.7188H59.6748V19.5273H62.6162V34.2227H52.0811V19.5273H55.0693V24.7188ZM59.6748 31.7852V27.0391H55.0693V31.7852H59.6748ZM82.1569 20.6289C82.1569 22.1758 81.7936 23.625 81.0671 24.9766C80.3405 26.3281 79.3053 27.4844 77.9616 28.4453C76.6257 29.3984 75.0592 30.0547 73.2624 30.4141L71.985 27.9297C73.5163 27.6406 74.8522 27.1211 75.9928 26.3711C77.1413 25.6211 78.0163 24.7422 78.6178 23.7344C79.2272 22.7266 79.5319 21.6914 79.5319 20.6289V19.1055H82.1569V20.6289ZM82.7077 20.6289C82.7077 21.6992 83.0085 22.7422 83.61 23.7578C84.2194 24.7734 85.0983 25.6562 86.2467 26.4062C87.403 27.1484 88.7546 27.6562 90.3014 27.9297L88.9889 30.4141C87.2077 30.0547 85.6452 29.4023 84.3014 28.457C82.9655 27.5117 81.9382 26.3633 81.2194 25.0117C80.5007 23.6602 80.1413 22.1992 80.1413 20.6289V19.1055H82.7077V20.6289ZM91.0046 36.543H71.5046V34.0938H91.0046V36.543ZM113.012 21.4492H99.4883V19.082H113.012V21.4492ZM116.727 30.5664H97.2734V28.1523H116.727V30.5664ZM108.395 39.1797H105.395V29.8281H108.395V39.1797ZM114.441 20.9805C114.441 22.0586 114.426 22.9727 114.395 23.7227C114.371 24.4727 114.293 25.3477 114.16 26.3477C114.035 27.3398 113.844 28.4219 113.586 29.5938L110.633 29.2656C110.891 28.1562 111.078 27.1211 111.195 26.1602C111.32 25.1914 111.395 24.3359 111.418 23.5938C111.441 22.8516 111.453 21.9844 111.453 20.9922V19.082H114.441V20.9805ZM137.205 30.543H117.752V28.1523H137.205V30.543ZM128.955 28.9375H125.955V24.6953H128.955V28.9375ZM134.884 39.2266H131.943V34.3516H119.896V32.0078H134.884V39.2266ZM135.107 26.2539H120.107V23.875H135.107V26.2539ZM134.896 21.0391H123.084V25.1758H120.107V18.6836H134.896V21.0391ZM161.485 34.0938H158.509V17.8516H161.485V34.0938ZM159.622 25.5625H155.626V23.1484H159.622V25.5625ZM159.622 30.0742H155.626V27.6953H159.622V30.0742ZM155.403 22.4336H143.556V20.0781H155.403V22.4336ZM149.603 23.1836C150.571 23.1836 151.438 23.3633 152.204 23.7227C152.978 24.0742 153.579 24.5703 154.009 25.2109C154.438 25.8438 154.653 26.5664 154.653 27.3789C154.653 28.1836 154.438 28.9062 154.009 29.5469C153.579 30.1875 152.978 30.6875 152.204 31.0469C151.438 31.3984 150.571 31.5742 149.603 31.5742C148.649 31.5742 147.794 31.3984 147.036 31.0469C146.278 30.6875 145.685 30.1875 145.255 29.5469C144.825 28.9062 144.61 28.1836 144.61 27.3789C144.61 26.5742 144.825 25.8516 145.255 25.2109C145.685 24.5703 146.278 24.0742 147.036 23.7227C147.802 23.3633 148.657 23.1836 149.603 23.1836ZM149.603 25.5156C149.173 25.5156 148.79 25.5898 148.454 25.7383C148.118 25.8789 147.856 26.0898 147.669 26.3711C147.481 26.6523 147.388 26.9883 147.388 27.3789C147.388 27.7773 147.481 28.1211 147.669 28.4102C147.856 28.6914 148.114 28.9062 148.442 29.0547C148.778 29.2031 149.165 29.2773 149.603 29.2773C150.048 29.2773 150.435 29.2031 150.763 29.0547C151.099 28.9062 151.36 28.6914 151.548 28.4102C151.743 28.1211 151.841 27.7773 151.841 27.3789C151.841 26.9883 151.743 26.6523 151.548 26.3711C151.36 26.0898 151.099 25.8789 150.763 25.7383C150.435 25.5898 150.048 25.5156 149.603 25.5156ZM151.126 21.5312H148.138V17.793H151.126V21.5312ZM161.942 38.793H147.282V36.3789H161.942V38.793ZM150.306 37.4922H147.282V32.6992H150.306V37.4922ZM181.049 32.2422H178.038V17.8516H181.049V32.2422ZM183.78 26.3477H179.983V23.8984H183.78V26.3477ZM173.854 32.418C175.401 32.4023 176.714 32.5273 177.792 32.793C178.878 33.0586 179.702 33.4492 180.264 33.9648C180.835 34.4727 181.12 35.0859 181.12 35.8047C181.12 36.5312 180.835 37.1484 180.264 37.6562C179.702 38.1641 178.878 38.543 177.792 38.793C176.714 39.0508 175.401 39.1836 173.854 39.1914C172.307 39.1836 170.991 39.0508 169.905 38.793C168.819 38.543 167.991 38.1641 167.421 37.6562C166.858 37.1484 166.577 36.5312 166.577 35.8047C166.577 35.0781 166.862 34.4609 167.432 33.9531C168.003 33.4453 168.831 33.0586 169.917 32.793C171.01 32.5273 172.323 32.4023 173.854 32.418ZM173.854 34.5977C172.862 34.5977 172.049 34.6406 171.417 34.7266C170.792 34.8047 170.327 34.9375 170.022 35.125C169.717 35.3047 169.565 35.5312 169.565 35.8047C169.565 36.0781 169.717 36.3008 170.022 36.4727C170.327 36.6445 170.792 36.7773 171.417 36.8711C172.049 36.957 172.862 37 173.854 37C174.839 37 175.639 36.957 176.257 36.8711C176.882 36.7773 177.346 36.6445 177.651 36.4727C177.964 36.3008 178.12 36.0781 178.12 35.8047C178.12 35.5312 177.964 35.3047 177.651 35.125C177.346 34.9375 176.882 34.8047 176.257 34.7266C175.639 34.6406 174.839 34.5977 173.854 34.5977ZM171.909 30.3789H168.932V27.25H171.909V30.3789ZM163.764 29.3945C166.366 29.3945 168.749 29.3555 170.913 29.2773C173.077 29.1992 175.124 29.0391 177.053 28.7969L177.276 30.8242C175.26 31.168 173.182 31.3945 171.042 31.5039C168.901 31.6055 166.573 31.6562 164.057 31.6562L163.764 29.3945ZM176.514 21.5547H164.303V19.3516H176.514V21.5547ZM170.409 22.0586C171.471 22.0586 172.393 22.1836 173.174 22.4336C173.956 22.6758 174.561 23.0273 174.991 23.4883C175.421 23.9492 175.635 24.4922 175.635 25.1172C175.635 25.7344 175.421 26.2773 174.991 26.7461C174.561 27.207 173.952 27.5625 173.163 27.8125C172.382 28.0625 171.464 28.1875 170.409 28.1875C169.354 28.1875 168.432 28.0625 167.643 27.8125C166.862 27.5625 166.253 27.207 165.815 26.7461C165.385 26.2773 165.171 25.7344 165.171 25.1172C165.171 24.4922 165.385 23.9492 165.815 23.4883C166.245 23.0273 166.854 22.6758 167.643 22.4336C168.432 22.1836 169.354 22.0586 170.409 22.0586ZM170.409 24.0273C169.901 24.0273 169.471 24.0664 169.12 24.1445C168.768 24.2227 168.499 24.3477 168.311 24.5195C168.124 24.6836 168.03 24.8828 168.03 25.1172C168.03 25.3672 168.12 25.5742 168.299 25.7383C168.487 25.9023 168.757 26.0273 169.108 26.1133C169.467 26.1914 169.901 26.2305 170.409 26.2305C170.917 26.2305 171.346 26.1875 171.698 26.1016C172.049 26.0156 172.315 25.8945 172.495 25.7383C172.674 25.5742 172.764 25.3672 172.764 25.1172C172.764 24.8828 172.671 24.6836 172.483 24.5195C172.303 24.3477 172.038 24.2227 171.686 24.1445C171.342 24.0664 170.917 24.0273 170.409 24.0273ZM171.909 20.3477H168.932V17.6641H171.909V20.3477Z" fill="#FFFA87"/>
</svg>
