<svg width="30" height="32" viewBox="0 0 30 32" fill="none" xmlns="http://www.w3.org/2000/svg">
<path d="M16.1934 2.09121C15.9097 1.71868 15.4683 1.5 15 1.5C14.5317 1.5 14.0903 1.71868 13.8066 2.09121L1.80664 17.8488C1.46122 18.3024 1.4028 18.9126 1.65591 19.4235C1.90901 19.9343 2.42986 20.2576 3 20.2576H9.42154V29C9.42154 29.3978 9.57957 29.7794 9.86088 30.0607C10.1422 30.342 10.5237 30.5 10.9215 30.5H19.0785C19.9069 30.5 20.5785 29.8284 20.5785 29V20.2576H27C27.5701 20.2576 28.091 19.9343 28.3441 19.4235C28.5972 18.9126 28.5388 18.3024 28.1934 17.8488L16.1934 2.09121Z" fill="white" stroke="white" stroke-width="3" stroke-linejoin="round"/>
</svg>
